<?xml version="1.0" encoding="UTF-8" standalone="no"?>
<!DOCTYPE svg PUBLIC "-//W3C//DTD SVG 1.1//EN"
 "http://www.w3.org/Graphics/SVG/1.1/DTD/svg11.dtd">
<!-- Generated by graphviz version 2.43.0 (0)
 -->
<!-- Pages: 1 -->
<svg width="776pt" height="929pt"
 viewBox="0.00 0.00 775.50 929.00" xmlns="http://www.w3.org/2000/svg" xmlns:xlink="http://www.w3.org/1999/xlink">
<g id="graph0" class="graph" transform="scale(1 1) rotate(0) translate(4 925)">
<polygon fill="white" stroke="transparent" points="-4,4 -4,-925 771.5,-925 771.5,4 -4,4"/>
<!-- EGFR -->
<g id="node1" class="node">
<title>EGFR</title>
<ellipse fill="#a6cee3" stroke="#62a0ca" stroke-width="3" cx="336.5" cy="-887.06" rx="33" ry="33"/>
<text text-anchor="middle" x="336.5" y="-883.36" font-family="Times,serif" font-size="14.00">EGFR</text>
</g>
<!-- ERBB2 -->
<g id="node2" class="node">
<title>ERBB2</title>
<ellipse fill="#bdbdbd" stroke="#848484" stroke-width="3" cx="50.5" cy="-734.85" rx="38.5" ry="38.5"/>
<text text-anchor="middle" x="50.5" y="-731.15" font-family="Times,serif" font-size="14.00">ERBB2</text>
</g>
<!-- EGFR&#45;&gt;ERBB2 -->
<g id="edge1" class="edge">
<title>EGFR&#45;&gt;ERBB2</title>
<path fill="none" stroke="#33a02c" stroke-width="2.5" d="M307.24,-871.49C256.7,-844.59 152.81,-789.3 93.86,-757.92"/>
<polygon fill="#33a02c" stroke="#33a02c" stroke-width="2.5" points="95.27,-754.71 84.8,-753.1 91.98,-760.89 95.27,-754.71"/>
</g>
<!-- PTPN1 -->
<g id="node3" class="node">
<title>PTPN1</title>
<ellipse fill="#bdbdbd" stroke="#848484" stroke-width="3" cx="143.5" cy="-734.85" rx="36.5" ry="36.5"/>
<text text-anchor="middle" x="143.5" y="-731.15" font-family="Times,serif" font-size="14.00">PTPN1</text>
</g>
<!-- EGFR&#45;&gt;PTPN1 -->
<g id="edge2" class="edge">
<title>EGFR&#45;&gt;PTPN1</title>
<path fill="none" stroke="#33a02c" stroke-width="2.5" d="M310.48,-866.54C277,-840.13 218.63,-794.1 180.53,-764.05"/>
<polygon fill="#33a02c" stroke="#33a02c" stroke-width="2.5" points="182.28,-760.97 172.26,-757.53 177.94,-766.47 182.28,-760.97"/>
</g>
<!-- PRKDC -->
<g id="node4" class="node">
<title>PRKDC</title>
<ellipse fill="#bdbdbd" stroke="#848484" stroke-width="3" cx="238.5" cy="-734.85" rx="40.5" ry="40.5"/>
<text text-anchor="middle" x="238.5" y="-731.15" font-family="Times,serif" font-size="14.00">PRKDC</text>
</g>
<!-- EGFR&#45;&gt;PRKDC -->
<g id="edge3" class="edge">
<title>EGFR&#45;&gt;PRKDC</title>
<path fill="none" stroke="#33a02c" stroke-width="2.5" d="M318.53,-859.15C303.83,-836.32 282.82,-803.67 266.01,-777.57"/>
<polygon fill="#33a02c" stroke="#33a02c" stroke-width="2.5" points="268.84,-775.5 260.48,-768.99 262.95,-779.29 268.84,-775.5"/>
</g>
<!-- PIK3R1 -->
<g id="node5" class="node">
<title>PIK3R1</title>
<ellipse fill="#bdbdbd" stroke="#848484" stroke-width="3" cx="336.5" cy="-734.85" rx="39.5" ry="39.5"/>
<text text-anchor="middle" x="336.5" y="-731.15" font-family="Times,serif" font-size="14.00">PIK3R1</text>
</g>
<!-- EGFR&#45;&gt;PIK3R1 -->
<g id="edge4" class="edge">
<title>EGFR&#45;&gt;PIK3R1</title>
<path fill="none" stroke="#33a02c" stroke-width="2.5" d="M336.5,-854.04C336.5,-833.79 336.5,-807.48 336.5,-784.73"/>
<polygon fill="#33a02c" stroke="#33a02c" stroke-width="2.5" points="340,-784.57 336.5,-774.57 333,-784.57 340,-784.57"/>
</g>
<!-- E2F1 -->
<g id="node6" class="node">
<title>E2F1</title>
<ellipse fill="#bdbdbd" stroke="#848484" stroke-width="3" cx="424.5" cy="-734.85" rx="30" ry="30"/>
<text text-anchor="middle" x="424.5" y="-731.15" font-family="Times,serif" font-size="14.00">E2F1</text>
</g>
<!-- EGFR&#45;&gt;E2F1 -->
<g id="edge5" class="edge">
<title>EGFR&#45;&gt;E2F1</title>
<path fill="none" stroke="#33a02c" stroke-width="2.5" d="M353.06,-858.43C367.59,-833.29 388.79,-796.63 404.32,-769.77"/>
<polygon fill="#33a02c" stroke="#33a02c" stroke-width="2.5" points="407.37,-771.47 409.35,-761.06 401.31,-767.97 407.37,-771.47"/>
</g>
<!-- STAT1 -->
<g id="node7" class="node">
<title>STAT1</title>
<ellipse fill="#bdbdbd" stroke="#848484" stroke-width="3" cx="523.5" cy="-734.85" rx="35.5" ry="35.5"/>
<text text-anchor="middle" x="523.5" y="-731.15" font-family="Times,serif" font-size="14.00">STAT1</text>
</g>
<!-- EGFR&#45;&gt;STAT1 -->
<g id="edge6" class="edge">
<title>EGFR&#45;&gt;STAT1</title>
<path fill="none" stroke="#33a02c" stroke-width="2.5" d="M362.11,-866.22C394.66,-839.73 451.02,-793.85 487.79,-763.92"/>
<polygon fill="#33a02c" stroke="#33a02c" stroke-width="2.5" points="490.23,-766.45 495.77,-757.42 485.81,-761.02 490.23,-766.45"/>
</g>
<!-- PKIA -->
<g id="node8" class="node">
<title>PKIA</title>
<ellipse fill="#bdbdbd" stroke="#848484" stroke-width="3" cx="664.5" cy="-734.85" rx="31" ry="31"/>
<text text-anchor="middle" x="664.5" y="-731.15" font-family="Times,serif" font-size="14.00">PKIA</text>
</g>
<!-- EGFR&#45;&gt;PKIA -->
<g id="edge7" class="edge">
<title>EGFR&#45;&gt;PKIA</title>
<path fill="none" stroke="#33a02c" stroke-width="2.5" d="M366.48,-873.15C426.47,-845.31 561.17,-782.81 626.93,-752.28"/>
<polygon fill="#33a02c" stroke="#33a02c" stroke-width="2.5" points="628.52,-755.41 636.12,-748.02 625.58,-749.06 628.52,-755.41"/>
</g>
<!-- CDK1 -->
<g id="node9" class="node">
<title>CDK1</title>
<ellipse fill="#bdbdbd" stroke="#848484" stroke-width="3" cx="50.5" cy="-565.15" rx="34" ry="34"/>
<text text-anchor="middle" x="50.5" y="-561.45" font-family="Times,serif" font-size="14.00">CDK1</text>
</g>
<!-- ERBB2&#45;&gt;CDK1 -->
<g id="edge8" class="edge">
<title>ERBB2&#45;&gt;CDK1</title>
<path fill="none" stroke="#e31a1c" stroke-width="2.5" d="M50.5,-696.34C50.5,-670.53 50.5,-636.46 50.5,-609.51"/>
<polygon fill="#e31a1c" stroke="#e31a1c" stroke-width="2.5" points="54,-609.19 50.5,-599.19 47,-609.19 54,-609.19"/>
</g>
<!-- ABL1 -->
<g id="node10" class="node">
<title>ABL1</title>
<ellipse fill="#bdbdbd" stroke="#848484" stroke-width="3" cx="143.5" cy="-565.15" rx="32.5" ry="32.5"/>
<text text-anchor="middle" x="143.5" y="-561.45" font-family="Times,serif" font-size="14.00">ABL1</text>
</g>
<!-- PTPN1&#45;&gt;ABL1 -->
<g id="edge9" class="edge">
<title>PTPN1&#45;&gt;ABL1</title>
<path fill="none" stroke="#e31a1c" stroke-width="2.5" d="M143.5,-698.03C143.5,-671.58 143.5,-635.84 143.5,-608.09"/>
<polygon fill="#e31a1c" stroke="#e31a1c" stroke-width="2.5" points="147,-607.89 143.5,-597.89 140,-607.89 147,-607.89"/>
</g>
<!-- AKT1 -->
<g id="node11" class="node">
<title>AKT1</title>
<ellipse fill="#bdbdbd" stroke="#848484" stroke-width="3" cx="246.5" cy="-565.15" rx="33" ry="33"/>
<text text-anchor="middle" x="246.5" y="-561.45" font-family="Times,serif" font-size="14.00">AKT1</text>
</g>
<!-- PRKDC&#45;&gt;AKT1 -->
<g id="edge10" class="edge">
<title>PRKDC&#45;&gt;AKT1</title>
<path fill="none" stroke="#33a02c" stroke-width="2.5" d="M240.42,-694.2C241.64,-668.32 243.22,-634.82 244.46,-608.44"/>
<polygon fill="#33a02c" stroke="#33a02c" stroke-width="2.5" points="247.96,-608.5 244.94,-598.35 240.97,-608.17 247.96,-608.5"/>
</g>
<!-- PIK3R1&#45;&gt;AKT1 -->
<g id="edge11" class="edge">
<title>PIK3R1&#45;&gt;AKT1</title>
<path fill="none" stroke="#33a02c" stroke-width="2.5" d="M317.86,-699.69C302.94,-671.57 282.07,-632.21 266.75,-603.32"/>
<polygon fill="#33a02c" stroke="#33a02c" stroke-width="2.5" points="269.76,-601.53 261.98,-594.34 263.58,-604.81 269.76,-601.53"/>
</g>
<!-- HIC1 -->
<g id="node12" class="node">
<title>HIC1</title>
<ellipse fill="#b2df8a" stroke="#eb5e60" stroke-width="3" cx="334.5" cy="-565.15" rx="30.5" ry="30.5"/>
<text text-anchor="middle" x="334.5" y="-561.45" font-family="Times,serif" font-size="14.00">HIC1</text>
</g>
<!-- E2F1&#45;&gt;HIC1 -->
<g id="edge12" class="edge">
<title>E2F1&#45;&gt;HIC1</title>
<path fill="none" stroke="#33a02c" stroke-width="2.5" d="M410.44,-708.33C395.19,-679.57 370.74,-633.48 353.72,-601.39"/>
<polygon fill="#33a02c" stroke="#33a02c" stroke-width="2.5" points="356.69,-599.52 348.91,-592.32 350.51,-602.8 356.69,-599.52"/>
</g>
<!-- CHEK1 -->
<g id="node13" class="node">
<title>CHEK1</title>
<ellipse fill="#bdbdbd" stroke="#848484" stroke-width="3" cx="422.5" cy="-565.15" rx="39" ry="39"/>
<text text-anchor="middle" x="422.5" y="-561.45" font-family="Times,serif" font-size="14.00">CHEK1</text>
</g>
<!-- E2F1&#45;&gt;CHEK1 -->
<g id="edge13" class="edge">
<title>E2F1&#45;&gt;CHEK1</title>
<path fill="none" stroke="#33a02c" stroke-width="2.5" d="M424.15,-704.51C423.85,-679.44 423.43,-643.35 423.08,-614.19"/>
<polygon fill="#33a02c" stroke="#33a02c" stroke-width="2.5" points="426.58,-614.14 422.96,-604.19 419.58,-614.23 426.58,-614.14"/>
</g>
<!-- CREBBP -->
<g id="node14" class="node">
<title>CREBBP</title>
<ellipse fill="#bdbdbd" stroke="#848484" stroke-width="3" cx="523.5" cy="-565.15" rx="44" ry="44"/>
<text text-anchor="middle" x="523.5" y="-561.45" font-family="Times,serif" font-size="14.00">CREBBP</text>
</g>
<!-- STAT1&#45;&gt;CREBBP -->
<g id="edge14" class="edge">
<title>STAT1&#45;&gt;CREBBP</title>
<path fill="none" stroke="#e31a1c" stroke-width="2.5" d="M523.5,-699.28C523.5,-676.19 523.5,-645.67 523.5,-619.57"/>
<polygon fill="#e31a1c" stroke="#e31a1c" stroke-width="2.5" points="527,-619.44 523.5,-609.44 520,-619.44 527,-619.44"/>
</g>
<!-- HIF1A -->
<g id="node15" class="node">
<title>HIF1A</title>
<ellipse fill="#b2df8a" stroke="#70bc6b" stroke-width="3" cx="621.5" cy="-565.15" rx="35.5" ry="35.5"/>
<text text-anchor="middle" x="621.5" y="-561.45" font-family="Times,serif" font-size="14.00">HIF1A</text>
</g>
<!-- STAT1&#45;&gt;HIF1A -->
<g id="edge15" class="edge">
<title>STAT1&#45;&gt;HIF1A</title>
<path fill="none" stroke="#e31a1c" stroke-width="2.5" d="M541.48,-703.72C557.5,-675.98 581.05,-635.2 598.45,-605.06"/>
<polygon fill="#e31a1c" stroke="#e31a1c" stroke-width="2.5" points="601.67,-606.49 603.64,-596.08 595.61,-602.99 601.67,-606.49"/>
</g>
<!-- PRKACA -->
<g id="node16" class="node">
<title>PRKACA</title>
<ellipse fill="#bdbdbd" stroke="#848484" stroke-width="3" cx="721.5" cy="-565.15" rx="46" ry="46"/>
<text text-anchor="middle" x="721.5" y="-561.45" font-family="Times,serif" font-size="14.00">PRKACA</text>
</g>
<!-- PKIA&#45;&gt;PRKACA -->
<g id="edge16" class="edge">
<title>PKIA&#45;&gt;PRKACA</title>
<path fill="none" stroke="#e31a1c" stroke-width="2.5" d="M674.43,-705.29C682.46,-681.4 693.96,-647.16 703.58,-618.5"/>
<polygon fill="#e31a1c" stroke="#e31a1c" stroke-width="2.5" points="706.9,-619.61 706.77,-609.02 700.27,-617.38 706.9,-619.61"/>
</g>
<!-- CSNK2A1 -->
<g id="node17" class="node">
<title>CSNK2A1</title>
<ellipse fill="#bdbdbd" stroke="#848484" stroke-width="3" cx="49.5" cy="-380.02" rx="49.5" ry="49.5"/>
<text text-anchor="middle" x="49.5" y="-376.32" font-family="Times,serif" font-size="14.00">CSNK2A1</text>
</g>
<!-- CDK1&#45;&gt;CSNK2A1 -->
<g id="edge17" class="edge">
<title>CDK1&#45;&gt;CSNK2A1</title>
<path fill="none" stroke="#33a02c" stroke-width="2.5" d="M50.31,-530.76C50.18,-505.32 49.99,-470.02 49.82,-439.97"/>
<polygon fill="#33a02c" stroke="#33a02c" stroke-width="2.5" points="53.32,-439.57 49.77,-429.59 46.32,-439.61 53.32,-439.57"/>
</g>
<!-- ATR -->
<g id="node18" class="node">
<title>ATR</title>
<ellipse fill="#bdbdbd" stroke="#848484" stroke-width="3" cx="144.5" cy="-380.02" rx="27.5" ry="27.5"/>
<text text-anchor="middle" x="144.5" y="-376.32" font-family="Times,serif" font-size="14.00">ATR</text>
</g>
<!-- ABL1&#45;&gt;ATR -->
<g id="edge18" class="edge">
<title>ABL1&#45;&gt;ATR</title>
<path fill="none" stroke="#33a02c" stroke-width="2.5" d="M143.68,-532.48C143.85,-500.45 144.12,-451.64 144.3,-417.92"/>
<polygon fill="#33a02c" stroke="#33a02c" stroke-width="2.5" points="147.8,-417.56 144.36,-407.54 140.8,-417.52 147.8,-417.56"/>
</g>
<!-- SMARCC1 -->
<g id="node19" class="node">
<title>SMARCC1</title>
<ellipse fill="#b2df8a" stroke="#eb5e60" stroke-width="3" cx="244.5" cy="-380.02" rx="52" ry="52"/>
<text text-anchor="middle" x="244.5" y="-376.32" font-family="Times,serif" font-size="14.00">SMARCC1</text>
</g>
<!-- AKT1&#45;&gt;SMARCC1 -->
<g id="edge19" class="edge">
<title>AKT1&#45;&gt;SMARCC1</title>
<path fill="none" stroke="#33a02c" stroke-width="2.5" d="M246.15,-532.05C245.88,-507.21 245.5,-472.47 245.18,-442.46"/>
<polygon fill="#33a02c" stroke="#33a02c" stroke-width="2.5" points="248.67,-442.03 245.07,-432.07 241.67,-442.1 248.67,-442.03"/>
</g>
<!-- PHF20 -->
<g id="node20" class="node">
<title>PHF20</title>
<ellipse fill="#b2df8a" stroke="#70bc6b" stroke-width="3" cx="350.5" cy="-380.02" rx="35.5" ry="35.5"/>
<text text-anchor="middle" x="350.5" y="-376.32" font-family="Times,serif" font-size="14.00">PHF20</text>
</g>
<!-- AKT1&#45;&gt;PHF20 -->
<g id="edge20" class="edge">
<title>AKT1&#45;&gt;PHF20</title>
<path fill="none" stroke="#e31a1c" stroke-width="2.5" d="M262.75,-536.22C280.27,-505.05 308.27,-455.19 327.93,-420.22"/>
<polygon fill="#e31a1c" stroke="#e31a1c" stroke-width="2.5" points="331.13,-421.65 332.98,-411.22 325.03,-418.22 331.13,-421.65"/>
</g>
<!-- NFKB1 -->
<g id="node21" class="node">
<title>NFKB1</title>
<ellipse fill="#b2df8a" stroke="#70bc6b" stroke-width="3" cx="523.5" cy="-380.02" rx="38.5" ry="38.5"/>
<text text-anchor="middle" x="523.5" y="-376.32" font-family="Times,serif" font-size="14.00">NFKB1</text>
</g>
<!-- CHEK1&#45;&gt;NFKB1 -->
<g id="edge21" class="edge">
<title>CHEK1&#45;&gt;NFKB1</title>
<path fill="none" stroke="#e31a1c" stroke-width="2.5" d="M441.26,-530.76C457.9,-500.27 482.26,-455.62 500.15,-422.83"/>
<polygon fill="#e31a1c" stroke="#e31a1c" stroke-width="2.5" points="503.3,-424.37 505.01,-413.91 497.15,-421.02 503.3,-424.37"/>
</g>
<!-- CREBBP&#45;&gt;NFKB1 -->
<g id="edge22" class="edge">
<title>CREBBP&#45;&gt;NFKB1</title>
<path fill="none" stroke="#33a02c" stroke-width="2.5" d="M523.5,-520.81C523.5,-493.08 523.5,-457.35 523.5,-428.83"/>
<polygon fill="#33a02c" stroke="#33a02c" stroke-width="2.5" points="527,-428.67 523.5,-418.67 520,-428.67 527,-428.67"/>
</g>
<!-- PRKACA&#45;&gt;NFKB1 -->
<g id="edge23" class="edge">
<title>PRKACA&#45;&gt;NFKB1</title>
<path fill="none" stroke="#33a02c" stroke-width="2.5" d="M687.47,-533.33C651.65,-499.84 595.51,-447.35 559.11,-413.32"/>
<polygon fill="#33a02c" stroke="#33a02c" stroke-width="2.5" points="561.35,-410.62 551.66,-406.35 556.57,-415.74 561.35,-410.62"/>
</g>
<!-- FOSB -->
<g id="node22" class="node">
<title>FOSB</title>
<ellipse fill="#b2df8a" stroke="#70bc6b" stroke-width="3" cx="49.5" cy="-200.04" rx="32.5" ry="32.5"/>
<text text-anchor="middle" x="49.5" y="-196.34" font-family="Times,serif" font-size="14.00">FOSB</text>
</g>
<!-- CSNK2A1&#45;&gt;FOSB -->
<g id="edge24" class="edge">
<title>CSNK2A1&#45;&gt;FOSB</title>
<path fill="none" stroke="#33a02c" stroke-width="2.5" d="M49.5,-330.37C49.5,-302.9 49.5,-269.11 49.5,-242.83"/>
<polygon fill="#33a02c" stroke="#33a02c" stroke-width="2.5" points="53,-242.79 49.5,-232.79 46,-242.79 53,-242.79"/>
</g>
<!-- KMT2A -->
<g id="node23" class="node">
<title>KMT2A</title>
<ellipse fill="#bdbdbd" stroke="#848484" stroke-width="3" cx="144.5" cy="-200.04" rx="41.5" ry="41.5"/>
<text text-anchor="middle" x="144.5" y="-196.34" font-family="Times,serif" font-size="14.00">KMT2A</text>
</g>
<!-- ATR&#45;&gt;KMT2A -->
<g id="edge25" class="edge">
<title>ATR&#45;&gt;KMT2A</title>
<path fill="none" stroke="#33a02c" stroke-width="2.5" d="M144.5,-352.3C144.5,-325.69 144.5,-284.85 144.5,-252.16"/>
<polygon fill="#33a02c" stroke="#33a02c" stroke-width="2.5" points="148,-251.86 144.5,-241.86 141,-251.86 148,-251.86"/>
</g>
<!-- FOXC2 -->
<g id="node24" class="node">
<title>FOXC2</title>
<ellipse fill="#b2df8a" stroke="#70bc6b" stroke-width="3" cx="144.5" cy="-39.6" rx="38.5" ry="38.5"/>
<text text-anchor="middle" x="144.5" y="-35.9" font-family="Times,serif" font-size="14.00">FOXC2</text>
</g>
<!-- KMT2A&#45;&gt;FOXC2 -->
<g id="edge26" class="edge">
<title>KMT2A&#45;&gt;FOXC2</title>
<path fill="none" stroke="#33a02c" stroke-width="2.5" d="M144.5,-158.3C144.5,-136.9 144.5,-110.71 144.5,-88.38"/>
<polygon fill="#33a02c" stroke="#33a02c" stroke-width="2.5" points="148,-88.1 144.5,-78.1 141,-88.1 148,-88.1"/>
</g>
</g>
</svg>
