<?xml version="1.0" encoding="UTF-8" standalone="no"?>
<!DOCTYPE svg PUBLIC "-//W3C//DTD SVG 1.1//EN"
 "http://www.w3.org/Graphics/SVG/1.1/DTD/svg11.dtd">
<!-- Generated by graphviz version 2.43.0 (0)
 -->
<!-- Pages: 1 -->
<svg width="963pt" height="1154pt"
 viewBox="0.00 0.00 962.58 1153.50" xmlns="http://www.w3.org/2000/svg" xmlns:xlink="http://www.w3.org/1999/xlink">
<g id="graph0" class="graph" transform="scale(1 1) rotate(0) translate(4 1149.5)">
<polygon fill="white" stroke="transparent" points="-4,4 -4,-1149.5 958.58,-1149.5 958.58,4 -4,4"/>
<!-- AKT1 -->
<g id="node1" class="node">
<title>AKT1</title>
<ellipse fill="#bdbdbd" stroke="#848484" stroke-width="3" cx="431.47" cy="-893.5" rx="33" ry="33"/>
<text text-anchor="middle" x="431.47" y="-889.8" font-family="Times,serif" font-size="14.00">AKT1</text>
</g>
<!-- SMARCC1 -->
<g id="node2" class="node">
<title>SMARCC1</title>
<ellipse fill="#b2df8a" stroke="#70bc6b" stroke-width="3" cx="93.28" cy="-772.5" rx="52" ry="52"/>
<text text-anchor="middle" x="93.28" y="-768.8" font-family="Times,serif" font-size="14.00">SMARCC1</text>
</g>
<!-- AKT1&#45;&gt;SMARCC1 -->
<g id="edge1" class="edge">
<title>AKT1&#45;&gt;SMARCC1</title>
<path fill="none" stroke="#3e3e3e" stroke-width="2.5" d="M400.26,-882.33C343.85,-862.15 224.07,-819.29 151.94,-793.49"/>
<polygon fill="#3e3e3e" stroke="#3e3e3e" stroke-width="2.5" points="153.12,-790.19 142.52,-790.12 150.76,-796.78 153.12,-790.19"/>
</g>
<!-- GSK3B -->
<g id="node3" class="node">
<title>GSK3B</title>
<ellipse fill="#bdbdbd" stroke="#848484" stroke-width="3" cx="331.1" cy="-772.5" rx="38.5" ry="38.5"/>
<text text-anchor="middle" x="331.1" y="-768.8" font-family="Times,serif" font-size="14.00">GSK3B</text>
</g>
<!-- AKT1&#45;&gt;GSK3B -->
<g id="edge2" class="edge">
<title>AKT1&#45;&gt;GSK3B</title>
<path fill="none" stroke="#3e3e3e" stroke-width="2.5" d="M410.19,-867.84C396.29,-851.09 377.91,-828.93 362.37,-810.19"/>
<polygon fill="#3e3e3e" stroke="#3e3e3e" stroke-width="2.5" points="364.98,-807.85 355.9,-802.39 359.59,-812.32 364.98,-807.85"/>
</g>
<!-- PHF20 -->
<g id="node4" class="node">
<title>PHF20</title>
<ellipse fill="#b2df8a" stroke="#70bc6b" stroke-width="3" cx="532.93" cy="-772.5" rx="35.5" ry="35.5"/>
<text text-anchor="middle" x="532.93" y="-768.8" font-family="Times,serif" font-size="14.00">PHF20</text>
</g>
<!-- AKT1&#45;&gt;PHF20 -->
<g id="edge3" class="edge">
<title>AKT1&#45;&gt;PHF20</title>
<path fill="none" stroke="#3e3e3e" stroke-width="2.5" d="M452.74,-868.13C467.45,-850.59 487.21,-827.02 503.44,-807.67"/>
<polygon fill="#3e3e3e" stroke="#3e3e3e" stroke-width="2.5" points="506.18,-809.85 509.92,-799.94 500.82,-805.35 506.18,-809.85"/>
</g>
<!-- NFKB1 -->
<g id="node5" class="node">
<title>NFKB1</title>
<ellipse fill="#b2df8a" stroke="#70bc6b" stroke-width="3" cx="116.19" cy="-643.5" rx="38.5" ry="38.5"/>
<text text-anchor="middle" x="116.19" y="-639.8" font-family="Times,serif" font-size="14.00">NFKB1</text>
</g>
<!-- GSK3B&#45;&gt;NFKB1 -->
<g id="edge4" class="edge">
<title>GSK3B&#45;&gt;NFKB1</title>
<path fill="none" stroke="#3e3e3e" stroke-width="2.5" d="M297.99,-752.63C260.37,-730.04 198.89,-693.14 157.99,-668.59"/>
<polygon fill="#3e3e3e" stroke="#3e3e3e" stroke-width="2.5" points="159.71,-665.54 149.33,-663.4 156.11,-671.54 159.71,-665.54"/>
</g>
<!-- PHLPP1 -->
<g id="node6" class="node">
<title>PHLPP1</title>
<ellipse fill="#bdbdbd" stroke="#848484" stroke-width="3" cx="331.1" cy="-643.5" rx="41.5" ry="41.5"/>
<text text-anchor="middle" x="331.1" y="-639.8" font-family="Times,serif" font-size="14.00">PHLPP1</text>
</g>
<!-- GSK3B&#45;&gt;PHLPP1 -->
<g id="edge5" class="edge">
<title>GSK3B&#45;&gt;PHLPP1</title>
<path fill="none" stroke="#3e3e3e" stroke-width="2.5" d="M331.1,-733.8C331.1,-721.73 331.1,-708.23 331.1,-695.41"/>
<polygon fill="#3e3e3e" stroke="#3e3e3e" stroke-width="2.5" points="334.6,-695.32 331.1,-685.32 327.6,-695.32 334.6,-695.32"/>
</g>
<!-- SFPQ -->
<g id="node7" class="node">
<title>SFPQ</title>
<ellipse fill="#b2df8a" stroke="#70bc6b" stroke-width="3" cx="530.75" cy="-643.5" rx="32" ry="32"/>
<text text-anchor="middle" x="530.75" y="-639.8" font-family="Times,serif" font-size="14.00">SFPQ</text>
</g>
<!-- GSK3B&#45;&gt;SFPQ -->
<g id="edge6" class="edge">
<title>GSK3B&#45;&gt;SFPQ</title>
<path fill="none" stroke="#3e3e3e" stroke-width="2.5" d="M363.63,-751.49C399.73,-728.16 457.83,-690.61 495.14,-666.51"/>
<polygon fill="#3e3e3e" stroke="#3e3e3e" stroke-width="2.5" points="497.19,-669.35 503.69,-660.98 493.39,-663.47 497.19,-669.35"/>
</g>
<!-- PRKCA -->
<g id="node8" class="node">
<title>PRKCA</title>
<ellipse fill="#bdbdbd" stroke="#848484" stroke-width="3" cx="331.1" cy="-525.5" rx="40.5" ry="40.5"/>
<text text-anchor="middle" x="331.1" y="-521.8" font-family="Times,serif" font-size="14.00">PRKCA</text>
</g>
<!-- PHLPP1&#45;&gt;PRKCA -->
<g id="edge7" class="edge">
<title>PHLPP1&#45;&gt;PRKCA</title>
<path fill="none" stroke="#3e3e3e" stroke-width="2.5" d="M331.1,-601.9C331.1,-593.69 331.1,-584.99 331.1,-576.51"/>
<polygon fill="#3e3e3e" stroke="#3e3e3e" stroke-width="2.5" points="334.6,-576.33 331.1,-566.33 327.6,-576.33 334.6,-576.33"/>
</g>
<!-- NR1H4 -->
<g id="node9" class="node">
<title>NR1H4</title>
<ellipse fill="#b2df8a" stroke="#70bc6b" stroke-width="3" cx="118.37" cy="-408.5" rx="38.5" ry="38.5"/>
<text text-anchor="middle" x="118.37" y="-404.8" font-family="Times,serif" font-size="14.00">NR1H4</text>
</g>
<!-- PRKCA&#45;&gt;NR1H4 -->
<g id="edge8" class="edge">
<title>PRKCA&#45;&gt;NR1H4</title>
<path fill="none" stroke="#3e3e3e" stroke-width="2.5" d="M295.5,-505.92C258.59,-485.62 200.9,-453.89 161.45,-432.19"/>
<polygon fill="#3e3e3e" stroke="#3e3e3e" stroke-width="2.5" points="162.78,-428.93 152.33,-427.18 159.41,-435.06 162.78,-428.93"/>
</g>
<!-- MAPK1 -->
<g id="node10" class="node">
<title>MAPK1</title>
<ellipse fill="#bdbdbd" stroke="#848484" stroke-width="3" cx="331.1" cy="-408.5" rx="41" ry="41"/>
<text text-anchor="middle" x="331.1" y="-404.8" font-family="Times,serif" font-size="14.00">MAPK1</text>
</g>
<!-- PRKCA&#45;&gt;MAPK1 -->
<g id="edge9" class="edge">
<title>PRKCA&#45;&gt;MAPK1</title>
<path fill="none" stroke="#3e3e3e" stroke-width="2.5" d="M331.1,-484.91C331.1,-476.84 331.1,-468.26 331.1,-459.89"/>
<polygon fill="#3e3e3e" stroke="#3e3e3e" stroke-width="2.5" points="334.6,-459.81 331.1,-449.81 327.6,-459.81 334.6,-459.81"/>
</g>
<!-- ABL1 -->
<g id="node11" class="node">
<title>ABL1</title>
<ellipse fill="#bdbdbd" stroke="#848484" stroke-width="3" cx="606.02" cy="-408.5" rx="32.5" ry="32.5"/>
<text text-anchor="middle" x="606.02" y="-404.8" font-family="Times,serif" font-size="14.00">ABL1</text>
</g>
<!-- PRKCA&#45;&gt;ABL1 -->
<g id="edge10" class="edge">
<title>PRKCA&#45;&gt;ABL1</title>
<path fill="none" stroke="#3e3e3e" stroke-width="2.5" d="M368.47,-509.6C420.3,-487.54 513.59,-447.84 566.53,-425.31"/>
<polygon fill="#3e3e3e" stroke="#3e3e3e" stroke-width="2.5" points="568.1,-428.45 575.93,-421.31 565.35,-422 568.1,-428.45"/>
</g>
<!-- CSNK2A1 -->
<g id="node12" class="node">
<title>CSNK2A1</title>
<ellipse fill="#bdbdbd" stroke="#848484" stroke-width="3" cx="54" cy="-281.5" rx="49.5" ry="49.5"/>
<text text-anchor="middle" x="54" y="-277.8" font-family="Times,serif" font-size="14.00">CSNK2A1</text>
</g>
<!-- MAPK1&#45;&gt;CSNK2A1 -->
<g id="edge11" class="edge">
<title>MAPK1&#45;&gt;CSNK2A1</title>
<path fill="none" stroke="#3e3e3e" stroke-width="2.5" d="M293.73,-391.37C245.97,-369.48 162.94,-331.43 108.23,-306.35"/>
<polygon fill="#3e3e3e" stroke="#3e3e3e" stroke-width="2.5" points="109.58,-303.12 99.03,-302.14 106.66,-309.48 109.58,-303.12"/>
</g>
<!-- SP3 -->
<g id="node13" class="node">
<title>SP3</title>
<ellipse fill="#b2df8a" stroke="#70bc6b" stroke-width="3" cx="255.83" cy="-281.5" rx="24.5" ry="24.5"/>
<text text-anchor="middle" x="255.83" y="-277.8" font-family="Times,serif" font-size="14.00">SP3</text>
</g>
<!-- MAPK1&#45;&gt;SP3 -->
<g id="edge12" class="edge">
<title>MAPK1&#45;&gt;SP3</title>
<path fill="none" stroke="#3e3e3e" stroke-width="2.5" d="M310.14,-373.12C298.62,-353.7 284.5,-329.87 273.54,-311.38"/>
<polygon fill="#3e3e3e" stroke="#3e3e3e" stroke-width="2.5" points="276.55,-309.6 268.44,-302.78 270.53,-313.17 276.55,-309.6"/>
</g>
<!-- HIF1A -->
<g id="node14" class="node">
<title>HIF1A</title>
<ellipse fill="#b2df8a" stroke="#70bc6b" stroke-width="3" cx="427.11" cy="-281.5" rx="35.5" ry="35.5"/>
<text text-anchor="middle" x="427.11" y="-277.8" font-family="Times,serif" font-size="14.00">HIF1A</text>
</g>
<!-- MAPK1&#45;&gt;HIF1A -->
<g id="edge13" class="edge">
<title>MAPK1&#45;&gt;HIF1A</title>
<path fill="none" stroke="#3e3e3e" stroke-width="2.5" d="M356.08,-375.46C369.38,-357.87 385.76,-336.2 399.44,-318.1"/>
<polygon fill="#3e3e3e" stroke="#3e3e3e" stroke-width="2.5" points="402.28,-320.15 405.52,-310.06 396.7,-315.92 402.28,-320.15"/>
</g>
<!-- ATR -->
<g id="node15" class="node">
<title>ATR</title>
<ellipse fill="#bdbdbd" stroke="#848484" stroke-width="3" cx="606.02" cy="-281.5" rx="27.5" ry="27.5"/>
<text text-anchor="middle" x="606.02" y="-277.8" font-family="Times,serif" font-size="14.00">ATR</text>
</g>
<!-- ABL1&#45;&gt;ATR -->
<g id="edge14" class="edge">
<title>ABL1&#45;&gt;ATR</title>
<path fill="none" stroke="#3e3e3e" stroke-width="2.5" d="M606.02,-375.79C606.02,-358.59 606.02,-337.41 606.02,-319.48"/>
<polygon fill="#3e3e3e" stroke="#3e3e3e" stroke-width="2.5" points="609.52,-319.36 606.02,-309.36 602.52,-319.36 609.52,-319.36"/>
</g>
<!-- TP73 -->
<g id="node16" class="node">
<title>TP73</title>
<ellipse fill="#b2df8a" stroke="#70bc6b" stroke-width="3" cx="769.67" cy="-281.5" rx="30" ry="30"/>
<text text-anchor="middle" x="769.67" y="-277.8" font-family="Times,serif" font-size="14.00">TP73</text>
</g>
<!-- ABL1&#45;&gt;TP73 -->
<g id="edge15" class="edge">
<title>ABL1&#45;&gt;TP73</title>
<path fill="none" stroke="#3e3e3e" stroke-width="2.5" d="M631.95,-388.38C660.54,-366.19 706.56,-330.48 737.44,-306.51"/>
<polygon fill="#3e3e3e" stroke="#3e3e3e" stroke-width="2.5" points="739.97,-308.98 745.72,-300.08 735.68,-303.45 739.97,-308.98"/>
</g>
<!-- FOSB -->
<g id="node17" class="node">
<title>FOSB</title>
<ellipse fill="#b2df8a" stroke="#70bc6b" stroke-width="3" cx="54" cy="-154.5" rx="32.5" ry="32.5"/>
<text text-anchor="middle" x="54" y="-150.8" font-family="Times,serif" font-size="14.00">FOSB</text>
</g>
<!-- CSNK2A1&#45;&gt;FOSB -->
<g id="edge16" class="edge">
<title>CSNK2A1&#45;&gt;FOSB</title>
<path fill="none" stroke="#3e3e3e" stroke-width="2.5" d="M54,-231.67C54,-220.3 54,-208.31 54,-197.26"/>
<polygon fill="#3e3e3e" stroke="#3e3e3e" stroke-width="2.5" points="57.5,-197 54,-187 50.5,-197 57.5,-197"/>
</g>
<!-- KMT2A -->
<g id="node18" class="node">
<title>KMT2A</title>
<ellipse fill="#bdbdbd" stroke="#848484" stroke-width="3" cx="606.02" cy="-154.5" rx="41.5" ry="41.5"/>
<text text-anchor="middle" x="606.02" y="-150.8" font-family="Times,serif" font-size="14.00">KMT2A</text>
</g>
<!-- ATR&#45;&gt;KMT2A -->
<g id="edge17" class="edge">
<title>ATR&#45;&gt;KMT2A</title>
<path fill="none" stroke="#3e3e3e" stroke-width="2.5" d="M606.02,-253.94C606.02,-239.93 606.02,-222.43 606.02,-206.03"/>
<polygon fill="#3e3e3e" stroke="#3e3e3e" stroke-width="2.5" points="609.52,-206.01 606.02,-196.01 602.52,-206.01 609.52,-206.01"/>
</g>
<!-- FOXC2 -->
<g id="node22" class="node">
<title>FOXC2</title>
<ellipse fill="#b2df8a" stroke="#70bc6b" stroke-width="3" cx="606.02" cy="-38.5" rx="38.5" ry="38.5"/>
<text text-anchor="middle" x="606.02" y="-34.8" font-family="Times,serif" font-size="14.00">FOXC2</text>
</g>
<!-- KMT2A&#45;&gt;FOXC2 -->
<g id="edge20" class="edge">
<title>KMT2A&#45;&gt;FOXC2</title>
<path fill="none" stroke="#3e3e3e" stroke-width="2.5" d="M606.02,-112.95C606.02,-104.63 606.02,-95.82 606.02,-87.28"/>
<polygon fill="#3e3e3e" stroke="#3e3e3e" stroke-width="2.5" points="609.52,-87.05 606.02,-77.05 602.52,-87.05 609.52,-87.05"/>
</g>
<!-- CASP6 -->
<g id="node19" class="node">
<title>CASP6</title>
<ellipse fill="#bdbdbd" stroke="#848484" stroke-width="3" cx="732.57" cy="-772.5" rx="37" ry="37"/>
<text text-anchor="middle" x="732.57" y="-768.8" font-family="Times,serif" font-size="14.00">CASP6</text>
</g>
<!-- HIPK2 -->
<g id="node20" class="node">
<title>HIPK2</title>
<ellipse fill="#bdbdbd" stroke="#848484" stroke-width="3" cx="732.57" cy="-643.5" rx="35.5" ry="35.5"/>
<text text-anchor="middle" x="732.57" y="-639.8" font-family="Times,serif" font-size="14.00">HIPK2</text>
</g>
<!-- CASP6&#45;&gt;HIPK2 -->
<g id="edge18" class="edge">
<title>CASP6&#45;&gt;HIPK2</title>
<path fill="none" stroke="#3e3e3e" stroke-width="2.5" d="M732.57,-735.19C732.57,-720.92 732.57,-704.48 732.57,-689.49"/>
<polygon fill="#3e3e3e" stroke="#3e3e3e" stroke-width="2.5" points="736.07,-689.4 732.57,-679.4 729.07,-689.4 736.07,-689.4"/>
</g>
<!-- MECP2 -->
<g id="node21" class="node">
<title>MECP2</title>
<ellipse fill="#b2df8a" stroke="#70bc6b" stroke-width="3" cx="732.57" cy="-525.5" rx="39.5" ry="39.5"/>
<text text-anchor="middle" x="732.57" y="-521.8" font-family="Times,serif" font-size="14.00">MECP2</text>
</g>
<!-- HIPK2&#45;&gt;MECP2 -->
<g id="edge19" class="edge">
<title>HIPK2&#45;&gt;MECP2</title>
<path fill="none" stroke="#3e3e3e" stroke-width="2.5" d="M732.57,-607.78C732.57,-597.6 732.57,-586.32 732.57,-575.46"/>
<polygon fill="#3e3e3e" stroke="#3e3e3e" stroke-width="2.5" points="736.07,-575.22 732.57,-565.22 729.07,-575.22 736.07,-575.22"/>
</g>
<!-- TP53 -->
<g id="node23" class="node">
<title>TP53</title>
<ellipse fill="#bdbdbd" stroke="#848484" stroke-width="3" cx="732.57" cy="-893.5" rx="30" ry="30"/>
<text text-anchor="middle" x="732.57" y="-889.8" font-family="Times,serif" font-size="14.00">TP53</text>
</g>
<!-- TP53&#45;&gt;CASP6 -->
<g id="edge21" class="edge">
<title>TP53&#45;&gt;CASP6</title>
<path fill="none" stroke="#3e3e3e" stroke-width="2.5" d="M732.57,-863.28C732.57,-850.21 732.57,-834.6 732.57,-820.05"/>
<polygon fill="#3e3e3e" stroke="#3e3e3e" stroke-width="2.5" points="736.07,-819.68 732.57,-809.68 729.07,-819.68 736.07,-819.68"/>
</g>
<!-- HIC1 -->
<g id="node24" class="node">
<title>HIC1</title>
<ellipse fill="#b2df8a" stroke="#70bc6b" stroke-width="3" cx="921.31" cy="-772.5" rx="30.5" ry="30.5"/>
<text text-anchor="middle" x="921.31" y="-768.8" font-family="Times,serif" font-size="14.00">HIC1</text>
</g>
<!-- TP53&#45;&gt;HIC1 -->
<g id="edge22" class="edge">
<title>TP53&#45;&gt;HIC1</title>
<path fill="none" stroke="#3e3e3e" stroke-width="2.5" d="M758.03,-877.18C791.28,-855.86 849.64,-818.45 886.84,-794.6"/>
<polygon fill="#3e3e3e" stroke="#3e3e3e" stroke-width="2.5" points="888.82,-797.48 895.35,-789.14 885.05,-791.59 888.82,-797.48"/>
</g>
<!-- PRKDC -->
<g id="node25" class="node">
<title>PRKDC</title>
<ellipse fill="#bdbdbd" stroke="#848484" stroke-width="3" cx="530.75" cy="-1003.5" rx="40.5" ry="40.5"/>
<text text-anchor="middle" x="530.75" y="-999.8" font-family="Times,serif" font-size="14.00">PRKDC</text>
</g>
<!-- PRKDC&#45;&gt;AKT1 -->
<g id="edge23" class="edge">
<title>PRKDC&#45;&gt;AKT1</title>
<path fill="none" stroke="#3e3e3e" stroke-width="2.5" d="M503.36,-973.15C490.06,-958.42 474.09,-940.72 460.57,-925.75"/>
<polygon fill="#3e3e3e" stroke="#3e3e3e" stroke-width="2.5" points="463.06,-923.27 453.76,-918.19 457.86,-927.96 463.06,-923.27"/>
</g>
<!-- PRKDC&#45;&gt;TP53 -->
<g id="edge24" class="edge">
<title>PRKDC&#45;&gt;TP53</title>
<path fill="none" stroke="#3e3e3e" stroke-width="2.5" d="M566.37,-984.09C603.19,-964.02 660.35,-932.86 697.12,-912.83"/>
<polygon fill="#3e3e3e" stroke="#3e3e3e" stroke-width="2.5" points="698.9,-915.84 706,-907.98 695.55,-909.7 698.9,-915.84"/>
</g>
<!-- EGFR -->
<g id="node26" class="node">
<title>EGFR</title>
<ellipse fill="#a6cee3" stroke="#62a0ca" stroke-width="3" cx="530.75" cy="-1112.5" rx="33" ry="33"/>
<text text-anchor="middle" x="530.75" y="-1108.8" font-family="Times,serif" font-size="14.00">EGFR</text>
</g>
<!-- EGFR&#45;&gt;PRKDC -->
<g id="edge25" class="edge">
<title>EGFR&#45;&gt;PRKDC</title>
<path fill="none" stroke="#3e3e3e" stroke-width="2.5" d="M530.75,-1079.2C530.75,-1071.37 530.75,-1062.84 530.75,-1054.43"/>
<polygon fill="#3e3e3e" stroke="#3e3e3e" stroke-width="2.5" points="534.25,-1054.28 530.75,-1044.28 527.25,-1054.28 534.25,-1054.28"/>
</g>
</g>
</svg>
