<?xml version="1.0" encoding="UTF-8" standalone="no"?>
<!DOCTYPE svg PUBLIC "-//W3C//DTD SVG 1.1//EN"
 "http://www.w3.org/Graphics/SVG/1.1/DTD/svg11.dtd">
<!-- Generated by graphviz version 2.43.0 (0)
 -->
<!-- Pages: 1 -->
<svg width="560pt" height="671pt"
 viewBox="0.00 0.00 560.08 670.50" xmlns="http://www.w3.org/2000/svg" xmlns:xlink="http://www.w3.org/1999/xlink">
<g id="graph0" class="graph" transform="scale(1 1) rotate(0) translate(4 666.5)">
<polygon fill="white" stroke="transparent" points="-4,4 -4,-666.5 556.08,-666.5 556.08,4 -4,4"/>
<!-- EGFR -->
<g id="node1" class="node">
<title>EGFR</title>
<ellipse fill="#a6cee3" stroke="#62a0ca" stroke-width="3" cx="291.6" cy="-629.5" rx="33" ry="33"/>
<text text-anchor="middle" x="291.6" y="-625.8" font-family="Times,serif" font-size="14.00">EGFR</text>
</g>
<!-- ERBB2 -->
<g id="node2" class="node">
<title>ERBB2</title>
<ellipse fill="#bdbdbd" stroke="#848484" stroke-width="3" cx="50.69" cy="-520.5" rx="38.5" ry="38.5"/>
<text text-anchor="middle" x="50.69" y="-516.8" font-family="Times,serif" font-size="14.00">ERBB2</text>
</g>
<!-- EGFR&#45;&gt;ERBB2 -->
<g id="edge1" class="edge">
<title>EGFR&#45;&gt;ERBB2</title>
<path fill="none" stroke="#33a02c" stroke-width="2.5" d="M261.09,-615.7C219.19,-596.74 143.55,-562.52 95.3,-540.68"/>
<polygon fill="#33a02c" stroke="#33a02c" stroke-width="2.5" points="96.58,-537.42 86.03,-536.49 93.7,-543.8 96.58,-537.42"/>
</g>
<!-- PTPN1 -->
<g id="node3" class="node">
<title>PTPN1</title>
<ellipse fill="#bdbdbd" stroke="#848484" stroke-width="3" cx="146.05" cy="-520.5" rx="36.5" ry="36.5"/>
<text text-anchor="middle" x="146.05" y="-516.8" font-family="Times,serif" font-size="14.00">PTPN1</text>
</g>
<!-- EGFR&#45;&gt;PTPN1 -->
<g id="edge2" class="edge">
<title>EGFR&#45;&gt;PTPN1</title>
<path fill="none" stroke="#33a02c" stroke-width="2.5" d="M264.91,-609.51C242.12,-592.45 209.1,-567.72 183.65,-548.65"/>
<polygon fill="#33a02c" stroke="#33a02c" stroke-width="2.5" points="185.43,-545.62 175.33,-542.42 181.24,-551.22 185.43,-545.62"/>
</g>
<!-- PIK3R1 -->
<g id="node4" class="node">
<title>PIK3R1</title>
<ellipse fill="#bdbdbd" stroke="#848484" stroke-width="3" cx="241.41" cy="-520.5" rx="39.5" ry="39.5"/>
<text text-anchor="middle" x="241.41" y="-516.8" font-family="Times,serif" font-size="14.00">PIK3R1</text>
</g>
<!-- EGFR&#45;&gt;PIK3R1 -->
<g id="edge3" class="edge">
<title>EGFR&#45;&gt;PIK3R1</title>
<path fill="none" stroke="#33a02c" stroke-width="2.5" d="M277.75,-599.43C272.99,-589.09 267.55,-577.27 262.36,-565.99"/>
<polygon fill="#33a02c" stroke="#33a02c" stroke-width="2.5" points="265.43,-564.29 258.07,-556.67 259.07,-567.22 265.43,-564.29"/>
</g>
<!-- PRKDC -->
<g id="node5" class="node">
<title>PRKDC</title>
<ellipse fill="#bdbdbd" stroke="#848484" stroke-width="3" cx="341.79" cy="-520.5" rx="40.5" ry="40.5"/>
<text text-anchor="middle" x="341.79" y="-516.8" font-family="Times,serif" font-size="14.00">PRKDC</text>
</g>
<!-- EGFR&#45;&gt;PRKDC -->
<g id="edge4" class="edge">
<title>EGFR&#45;&gt;PRKDC</title>
<path fill="none" stroke="#33a02c" stroke-width="2.5" d="M305.45,-599.43C310.12,-589.29 315.44,-577.72 320.55,-566.63"/>
<polygon fill="#33a02c" stroke="#33a02c" stroke-width="2.5" points="323.77,-568.01 324.77,-557.47 317.41,-565.09 323.77,-568.01"/>
</g>
<!-- E2F1 -->
<g id="node6" class="node">
<title>E2F1</title>
<ellipse fill="#bdbdbd" stroke="#848484" stroke-width="3" cx="431.13" cy="-520.5" rx="30" ry="30"/>
<text text-anchor="middle" x="431.13" y="-516.8" font-family="Times,serif" font-size="14.00">E2F1</text>
</g>
<!-- EGFR&#45;&gt;E2F1 -->
<g id="edge5" class="edge">
<title>EGFR&#45;&gt;E2F1</title>
<path fill="none" stroke="#33a02c" stroke-width="2.5" d="M317.85,-609C340.97,-590.94 374.71,-564.58 399.35,-545.33"/>
<polygon fill="#33a02c" stroke="#33a02c" stroke-width="2.5" points="401.6,-548.01 407.33,-539.09 397.29,-542.49 401.6,-548.01"/>
</g>
<!-- STAT1 -->
<g id="node7" class="node">
<title>STAT1</title>
<ellipse fill="#bdbdbd" stroke="#848484" stroke-width="3" cx="516.45" cy="-520.5" rx="35.5" ry="35.5"/>
<text text-anchor="middle" x="516.45" y="-516.8" font-family="Times,serif" font-size="14.00">STAT1</text>
</g>
<!-- EGFR&#45;&gt;STAT1 -->
<g id="edge6" class="edge">
<title>EGFR&#45;&gt;STAT1</title>
<path fill="none" stroke="#33a02c" stroke-width="2.5" d="M321.46,-615.03C360.94,-595.89 430.7,-562.07 475.19,-540.5"/>
<polygon fill="#33a02c" stroke="#33a02c" stroke-width="2.5" points="476.81,-543.6 484.28,-536.09 473.76,-537.31 476.81,-543.6"/>
</g>
<!-- CDK1 -->
<g id="node8" class="node">
<title>CDK1</title>
<ellipse fill="#bdbdbd" stroke="#848484" stroke-width="3" cx="50.69" cy="-408.5" rx="34" ry="34"/>
<text text-anchor="middle" x="50.69" y="-404.8" font-family="Times,serif" font-size="14.00">CDK1</text>
</g>
<!-- ERBB2&#45;&gt;CDK1 -->
<g id="edge7" class="edge">
<title>ERBB2&#45;&gt;CDK1</title>
<path fill="none" stroke="#e31a1c" stroke-width="2.5" d="M50.69,-481.96C50.69,-472.57 50.69,-462.46 50.69,-452.82"/>
<polygon fill="#e31a1c" stroke="#e31a1c" stroke-width="2.5" points="54.19,-452.62 50.69,-442.62 47.19,-452.62 54.19,-452.62"/>
</g>
<!-- ABL1 -->
<g id="node9" class="node">
<title>ABL1</title>
<ellipse fill="#bdbdbd" stroke="#848484" stroke-width="3" cx="146.05" cy="-408.5" rx="32.5" ry="32.5"/>
<text text-anchor="middle" x="146.05" y="-404.8" font-family="Times,serif" font-size="14.00">ABL1</text>
</g>
<!-- PTPN1&#45;&gt;ABL1 -->
<g id="edge8" class="edge">
<title>PTPN1&#45;&gt;ABL1</title>
<path fill="none" stroke="#e31a1c" stroke-width="2.5" d="M146.05,-483.83C146.05,-473.38 146.05,-461.92 146.05,-451.15"/>
<polygon fill="#e31a1c" stroke="#e31a1c" stroke-width="2.5" points="149.55,-451.1 146.05,-441.1 142.55,-451.1 149.55,-451.1"/>
</g>
<!-- AKT1 -->
<g id="node10" class="node">
<title>AKT1</title>
<ellipse fill="#bdbdbd" stroke="#848484" stroke-width="3" cx="316.7" cy="-408.5" rx="33" ry="33"/>
<text text-anchor="middle" x="316.7" y="-404.8" font-family="Times,serif" font-size="14.00">AKT1</text>
</g>
<!-- PIK3R1&#45;&gt;AKT1 -->
<g id="edge9" class="edge">
<title>PIK3R1&#45;&gt;AKT1</title>
<path fill="none" stroke="#33a02c" stroke-width="2.5" d="M263.59,-487.5C272.72,-473.93 283.31,-458.17 292.62,-444.32"/>
<polygon fill="#33a02c" stroke="#33a02c" stroke-width="2.5" points="295.55,-446.23 298.23,-435.98 289.74,-442.33 295.55,-446.23"/>
</g>
<!-- PRKDC&#45;&gt;AKT1 -->
<g id="edge10" class="edge">
<title>PRKDC&#45;&gt;AKT1</title>
<path fill="none" stroke="#33a02c" stroke-width="2.5" d="M332.87,-480.7C330.7,-470.99 328.36,-460.57 326.16,-450.76"/>
<polygon fill="#33a02c" stroke="#33a02c" stroke-width="2.5" points="329.54,-449.79 323.93,-440.8 322.7,-451.32 329.54,-449.79"/>
</g>
<!-- HIC1 -->
<g id="node11" class="node">
<title>HIC1</title>
<ellipse fill="#b2df8a" stroke="#eb5e60" stroke-width="3" cx="431.13" cy="-408.5" rx="30.5" ry="30.5"/>
<text text-anchor="middle" x="431.13" y="-404.8" font-family="Times,serif" font-size="14.00">HIC1</text>
</g>
<!-- E2F1&#45;&gt;HIC1 -->
<g id="edge11" class="edge">
<title>E2F1&#45;&gt;HIC1</title>
<path fill="none" stroke="#33a02c" stroke-width="2.5" d="M431.13,-490.49C431.13,-477.89 431.13,-463.03 431.13,-449.45"/>
<polygon fill="#33a02c" stroke="#33a02c" stroke-width="2.5" points="434.63,-449.38 431.13,-439.38 427.63,-449.38 434.63,-449.38"/>
</g>
<!-- HIF1A -->
<g id="node12" class="node">
<title>HIF1A</title>
<ellipse fill="#b2df8a" stroke="#70bc6b" stroke-width="3" cx="516.45" cy="-408.5" rx="35.5" ry="35.5"/>
<text text-anchor="middle" x="516.45" y="-404.8" font-family="Times,serif" font-size="14.00">HIF1A</text>
</g>
<!-- STAT1&#45;&gt;HIF1A -->
<g id="edge12" class="edge">
<title>STAT1&#45;&gt;HIF1A</title>
<path fill="none" stroke="#e31a1c" stroke-width="2.5" d="M516.45,-484.75C516.45,-475.16 516.45,-464.64 516.45,-454.57"/>
<polygon fill="#e31a1c" stroke="#e31a1c" stroke-width="2.5" points="519.95,-454.29 516.45,-444.29 512.95,-454.29 519.95,-454.29"/>
</g>
<!-- CSNK2A1 -->
<g id="node13" class="node">
<title>CSNK2A1</title>
<ellipse fill="#bdbdbd" stroke="#848484" stroke-width="3" cx="49.69" cy="-284.5" rx="49.5" ry="49.5"/>
<text text-anchor="middle" x="49.69" y="-280.8" font-family="Times,serif" font-size="14.00">CSNK2A1</text>
</g>
<!-- CDK1&#45;&gt;CSNK2A1 -->
<g id="edge13" class="edge">
<title>CDK1&#45;&gt;CSNK2A1</title>
<path fill="none" stroke="#33a02c" stroke-width="2.5" d="M50.41,-374.29C50.34,-365.04 50.26,-354.75 50.17,-344.54"/>
<polygon fill="#33a02c" stroke="#33a02c" stroke-width="2.5" points="53.67,-344.36 50.09,-334.39 46.67,-344.41 53.67,-344.36"/>
</g>
<!-- ATR -->
<g id="node14" class="node">
<title>ATR</title>
<ellipse fill="#bdbdbd" stroke="#848484" stroke-width="3" cx="147.06" cy="-284.5" rx="27.5" ry="27.5"/>
<text text-anchor="middle" x="147.06" y="-280.8" font-family="Times,serif" font-size="14.00">ATR</text>
</g>
<!-- ABL1&#45;&gt;ATR -->
<g id="edge14" class="edge">
<title>ABL1&#45;&gt;ATR</title>
<path fill="none" stroke="#33a02c" stroke-width="2.5" d="M146.32,-375.92C146.45,-359.52 146.61,-339.54 146.75,-322.45"/>
<polygon fill="#33a02c" stroke="#33a02c" stroke-width="2.5" points="150.25,-322.27 146.83,-312.24 143.25,-322.21 150.25,-322.27"/>
</g>
<!-- SMARCC1 -->
<g id="node15" class="node">
<title>SMARCC1</title>
<ellipse fill="#b2df8a" stroke="#eb5e60" stroke-width="3" cx="293.61" cy="-284.5" rx="52" ry="52"/>
<text text-anchor="middle" x="293.61" y="-280.8" font-family="Times,serif" font-size="14.00">SMARCC1</text>
</g>
<!-- AKT1&#45;&gt;SMARCC1 -->
<g id="edge15" class="edge">
<title>AKT1&#45;&gt;SMARCC1</title>
<path fill="none" stroke="#33a02c" stroke-width="2.5" d="M310.63,-375.92C308.91,-366.68 306.98,-356.3 305.05,-345.94"/>
<polygon fill="#33a02c" stroke="#33a02c" stroke-width="2.5" points="308.48,-345.24 303.21,-336.05 301.6,-346.52 308.48,-345.24"/>
</g>
<!-- PHF20 -->
<g id="node16" class="node">
<title>PHF20</title>
<ellipse fill="#b2df8a" stroke="#70bc6b" stroke-width="3" cx="402.02" cy="-284.5" rx="35.5" ry="35.5"/>
<text text-anchor="middle" x="402.02" y="-280.8" font-family="Times,serif" font-size="14.00">PHF20</text>
</g>
<!-- AKT1&#45;&gt;PHF20 -->
<g id="edge16" class="edge">
<title>AKT1&#45;&gt;PHF20</title>
<path fill="none" stroke="#e31a1c" stroke-width="2.5" d="M335.42,-381.29C347.33,-363.98 362.92,-341.32 376.03,-322.27"/>
<polygon fill="#e31a1c" stroke="#e31a1c" stroke-width="2.5" points="379.06,-324.03 381.85,-313.81 373.3,-320.07 379.06,-324.03"/>
</g>
<!-- FOSB -->
<g id="node17" class="node">
<title>FOSB</title>
<ellipse fill="#b2df8a" stroke="#70bc6b" stroke-width="3" cx="49.69" cy="-154.5" rx="32.5" ry="32.5"/>
<text text-anchor="middle" x="49.69" y="-150.8" font-family="Times,serif" font-size="14.00">FOSB</text>
</g>
<!-- CSNK2A1&#45;&gt;FOSB -->
<g id="edge17" class="edge">
<title>CSNK2A1&#45;&gt;FOSB</title>
<path fill="none" stroke="#33a02c" stroke-width="2.5" d="M49.69,-234.98C49.69,-222.66 49.69,-209.55 49.69,-197.57"/>
<polygon fill="#33a02c" stroke="#33a02c" stroke-width="2.5" points="53.19,-197.38 49.69,-187.38 46.19,-197.38 53.19,-197.38"/>
</g>
<!-- KMT2A -->
<g id="node18" class="node">
<title>KMT2A</title>
<ellipse fill="#bdbdbd" stroke="#848484" stroke-width="3" cx="147.06" cy="-154.5" rx="41.5" ry="41.5"/>
<text text-anchor="middle" x="147.06" y="-150.8" font-family="Times,serif" font-size="14.00">KMT2A</text>
</g>
<!-- ATR&#45;&gt;KMT2A -->
<g id="edge18" class="edge">
<title>ATR&#45;&gt;KMT2A</title>
<path fill="none" stroke="#33a02c" stroke-width="2.5" d="M147.06,-256.93C147.06,-242.16 147.06,-223.49 147.06,-206.14"/>
<polygon fill="#33a02c" stroke="#33a02c" stroke-width="2.5" points="150.56,-206.12 147.06,-196.12 143.56,-206.12 150.56,-206.12"/>
</g>
<!-- FOXC2 -->
<g id="node19" class="node">
<title>FOXC2</title>
<ellipse fill="#b2df8a" stroke="#70bc6b" stroke-width="3" cx="147.06" cy="-38.5" rx="38.5" ry="38.5"/>
<text text-anchor="middle" x="147.06" y="-34.8" font-family="Times,serif" font-size="14.00">FOXC2</text>
</g>
<!-- KMT2A&#45;&gt;FOXC2 -->
<g id="edge19" class="edge">
<title>KMT2A&#45;&gt;FOXC2</title>
<path fill="none" stroke="#33a02c" stroke-width="2.5" d="M147.06,-112.95C147.06,-104.63 147.06,-95.82 147.06,-87.28"/>
<polygon fill="#33a02c" stroke="#33a02c" stroke-width="2.5" points="150.56,-87.05 147.06,-77.05 143.56,-87.05 150.56,-87.05"/>
</g>
</g>
</svg>
