<?xml version="1.0" encoding="UTF-8" standalone="no"?>
<!DOCTYPE svg PUBLIC "-//W3C//DTD SVG 1.1//EN"
 "http://www.w3.org/Graphics/SVG/1.1/DTD/svg11.dtd">
<!-- Generated by graphviz version 2.43.0 (0)
 -->
<!-- Pages: 1 -->
<svg width="218pt" height="260pt"
 viewBox="0.00 0.00 218.00 260.00" xmlns="http://www.w3.org/2000/svg" xmlns:xlink="http://www.w3.org/1999/xlink">
<g id="graph0" class="graph" transform="scale(1 1) rotate(0) translate(4 256)">
<polygon fill="white" stroke="transparent" points="-4,4 -4,-256 214,-256 214,4 -4,4"/>
<!-- A -->
<g id="node1" class="node">
<title>A</title>
<ellipse fill="#a6cee3" stroke="#62a0ca" stroke-width="3" cx="105" cy="-234" rx="18" ry="18"/>
<text text-anchor="middle" x="105" y="-230.3" font-family="Times,serif" font-size="14.00">A</text>
</g>
<!-- B -->
<g id="node2" class="node">
<title>B</title>
<ellipse fill="#bdbdbd" stroke="#848484" stroke-width="3" cx="105" cy="-162" rx="18" ry="18"/>
<text text-anchor="middle" x="105" y="-158.3" font-family="Times,serif" font-size="14.00">B</text>
</g>
<!-- A&#45;&gt;B -->
<g id="edge1" class="edge">
<title>A&#45;&gt;B</title>
<path fill="none" stroke="#3e3e3e" stroke-width="2.5" d="M105,-215.83C105,-208.13 105,-198.97 105,-190.42"/>
<polygon fill="#3e3e3e" stroke="#3e3e3e" stroke-width="2.5" points="108.5,-190.41 105,-180.41 101.5,-190.41 108.5,-190.41"/>
</g>
<!-- C -->
<g id="node3" class="node">
<title>C</title>
<ellipse fill="#bdbdbd" stroke="#848484" stroke-width="3" cx="105" cy="-90" rx="18" ry="18"/>
<text text-anchor="middle" x="105" y="-86.3" font-family="Times,serif" font-size="14.00">C</text>
</g>
<!-- B&#45;&gt;C -->
<g id="edge2" class="edge">
<title>B&#45;&gt;C</title>
<path fill="none" stroke="#3e3e3e" stroke-width="2.5" d="M105,-143.83C105,-136.13 105,-126.97 105,-118.42"/>
<polygon fill="#3e3e3e" stroke="#3e3e3e" stroke-width="2.5" points="108.5,-118.41 105,-108.41 101.5,-118.41 108.5,-118.41"/>
</g>
<!-- D -->
<g id="node4" class="node">
<title>D</title>
<ellipse fill="#b2df8a" stroke="#70bc6b" stroke-width="3" cx="105" cy="-18" rx="18" ry="18"/>
<text text-anchor="middle" x="105" y="-14.3" font-family="Times,serif" font-size="14.00">D</text>
</g>
<!-- C&#45;&gt;D -->
<g id="edge3" class="edge">
<title>C&#45;&gt;D</title>
<path fill="none" stroke="#3e3e3e" stroke-width="2.5" d="M105,-71.83C105,-64.13 105,-54.97 105,-46.42"/>
<polygon fill="#3e3e3e" stroke="#3e3e3e" stroke-width="2.5" points="108.5,-46.41 105,-36.41 101.5,-46.41 108.5,-46.41"/>
</g>
</g>
</svg>
