<?xml version="1.0" encoding="UTF-8" standalone="no"?>
<!DOCTYPE svg PUBLIC "-//W3C//DTD SVG 1.1//EN"
 "http://www.w3.org/Graphics/SVG/1.1/DTD/svg11.dtd">
<!-- Generated by graphviz version 2.43.0 (0)
 -->
<!-- Pages: 1 -->
<svg width="955pt" height="1144pt"
 viewBox="0.00 0.00 954.50 1143.80" xmlns="http://www.w3.org/2000/svg" xmlns:xlink="http://www.w3.org/1999/xlink">
<g id="graph0" class="graph" transform="scale(1 1) rotate(0) translate(4 1139.8)">
<polygon fill="white" stroke="transparent" points="-4,4 -4,-1139.8 950.5,-1139.8 950.5,4 -4,4"/>
<!-- EGFR -->
<g id="node1" class="node">
<title>EGFR</title>
<ellipse fill="#a6cee3" stroke="#62a0ca" stroke-width="3" cx="567" cy="-1101.34" rx="33" ry="33"/>
<text text-anchor="middle" x="567" y="-1097.64" font-family="Times,serif" font-size="14.00">EGFR</text>
</g>
<!-- MAP2K1 -->
<g id="node2" class="node">
<title>MAP2K1</title>
<ellipse fill="#bdbdbd" stroke="#848484" stroke-width="3" cx="169" cy="-902.9" rx="45.5" ry="45.5"/>
<text text-anchor="middle" x="169" y="-899.2" font-family="Times,serif" font-size="14.00">MAP2K1</text>
</g>
<!-- EGFR&#45;&gt;MAP2K1 -->
<g id="edge1" class="edge">
<title>EGFR&#45;&gt;MAP2K1</title>
<path fill="none" stroke="#3e3e3e" stroke-width="2.5" d="M537.41,-1086.59C469.69,-1052.82 302.82,-969.62 218.9,-927.78"/>
<polygon fill="#3e3e3e" stroke="#3e3e3e" stroke-width="2.5" points="220.33,-924.58 209.82,-923.25 217.21,-930.84 220.33,-924.58"/>
</g>
<!-- ERBB2 -->
<g id="node3" class="node">
<title>ERBB2</title>
<ellipse fill="#bdbdbd" stroke="#848484" stroke-width="3" cx="311" cy="-902.9" rx="38.5" ry="38.5"/>
<text text-anchor="middle" x="311" y="-899.2" font-family="Times,serif" font-size="14.00">ERBB2</text>
</g>
<!-- EGFR&#45;&gt;ERBB2 -->
<g id="edge2" class="edge">
<title>EGFR&#45;&gt;ERBB2</title>
<path fill="none" stroke="#3e3e3e" stroke-width="2.5" d="M540.57,-1080.85C495.22,-1045.7 402.39,-973.74 349.73,-932.92"/>
<polygon fill="#3e3e3e" stroke="#3e3e3e" stroke-width="2.5" points="351.68,-930 341.63,-926.64 347.39,-935.53 351.68,-930"/>
</g>
<!-- PTPN1 -->
<g id="node4" class="node">
<title>PTPN1</title>
<ellipse fill="#bdbdbd" stroke="#848484" stroke-width="3" cx="424" cy="-902.9" rx="36.5" ry="36.5"/>
<text text-anchor="middle" x="424" y="-899.2" font-family="Times,serif" font-size="14.00">PTPN1</text>
</g>
<!-- EGFR&#45;&gt;PTPN1 -->
<g id="edge3" class="edge">
<title>EGFR&#45;&gt;PTPN1</title>
<path fill="none" stroke="#3e3e3e" stroke-width="2.5" d="M547.42,-1074.16C522.6,-1039.72 479.68,-980.15 451.56,-941.14"/>
<polygon fill="#3e3e3e" stroke="#3e3e3e" stroke-width="2.5" points="454.13,-938.72 445.45,-932.66 448.46,-942.82 454.13,-938.72"/>
</g>
<!-- PIK3R1 -->
<g id="node5" class="node">
<title>PIK3R1</title>
<ellipse fill="#bdbdbd" stroke="#848484" stroke-width="3" cx="518" cy="-902.9" rx="39.5" ry="39.5"/>
<text text-anchor="middle" x="518" y="-899.2" font-family="Times,serif" font-size="14.00">PIK3R1</text>
</g>
<!-- EGFR&#45;&gt;PIK3R1 -->
<g id="edge4" class="edge">
<title>EGFR&#45;&gt;PIK3R1</title>
<path fill="none" stroke="#3e3e3e" stroke-width="2.5" d="M559.02,-1069.01C551.14,-1037.09 538.99,-987.88 529.95,-951.29"/>
<polygon fill="#3e3e3e" stroke="#3e3e3e" stroke-width="2.5" points="533.29,-950.2 527.49,-941.33 526.49,-951.88 533.29,-950.2"/>
</g>
<!-- PRKDC -->
<g id="node6" class="node">
<title>PRKDC</title>
<ellipse fill="#bdbdbd" stroke="#848484" stroke-width="3" cx="616" cy="-902.9" rx="40.5" ry="40.5"/>
<text text-anchor="middle" x="616" y="-899.2" font-family="Times,serif" font-size="14.00">PRKDC</text>
</g>
<!-- EGFR&#45;&gt;PRKDC -->
<g id="edge5" class="edge">
<title>EGFR&#45;&gt;PRKDC</title>
<path fill="none" stroke="#3e3e3e" stroke-width="2.5" d="M574.99,-1069.01C582.79,-1037.39 594.79,-988.8 603.8,-952.33"/>
<polygon fill="#3e3e3e" stroke="#3e3e3e" stroke-width="2.5" points="607.25,-952.93 606.25,-942.39 600.46,-951.26 607.25,-952.93"/>
</g>
<!-- E2F1 -->
<g id="node7" class="node">
<title>E2F1</title>
<ellipse fill="#bdbdbd" stroke="#848484" stroke-width="3" cx="704" cy="-902.9" rx="30" ry="30"/>
<text text-anchor="middle" x="704" y="-899.2" font-family="Times,serif" font-size="14.00">E2F1</text>
</g>
<!-- EGFR&#45;&gt;E2F1 -->
<g id="edge6" class="edge">
<title>EGFR&#45;&gt;E2F1</title>
<path fill="none" stroke="#3e3e3e" stroke-width="2.5" d="M585.77,-1074.16C610.57,-1038.24 654.24,-974.99 681,-936.22"/>
<polygon fill="#3e3e3e" stroke="#3e3e3e" stroke-width="2.5" points="683.96,-938.09 686.76,-927.87 678.2,-934.11 683.96,-938.09"/>
</g>
<!-- STAT1 -->
<g id="node8" class="node">
<title>STAT1</title>
<ellipse fill="#bdbdbd" stroke="#848484" stroke-width="3" cx="798" cy="-902.9" rx="35.5" ry="35.5"/>
<text text-anchor="middle" x="798" y="-899.2" font-family="Times,serif" font-size="14.00">STAT1</text>
</g>
<!-- EGFR&#45;&gt;STAT1 -->
<g id="edge7" class="edge">
<title>EGFR&#45;&gt;STAT1</title>
<path fill="none" stroke="#3e3e3e" stroke-width="2.5" d="M592.16,-1079.72C633.51,-1044.21 715.9,-973.43 762.94,-933.02"/>
<polygon fill="#3e3e3e" stroke="#3e3e3e" stroke-width="2.5" points="765.43,-935.5 770.74,-926.32 760.87,-930.19 765.43,-935.5"/>
</g>
<!-- ESR1 -->
<g id="node9" class="node">
<title>ESR1</title>
<ellipse fill="#bdbdbd" stroke="#848484" stroke-width="3" cx="895" cy="-902.9" rx="31" ry="31"/>
<text text-anchor="middle" x="895" y="-899.2" font-family="Times,serif" font-size="14.00">ESR1</text>
</g>
<!-- EGFR&#45;&gt;ESR1 -->
<g id="edge8" class="edge">
<title>EGFR&#45;&gt;ESR1</title>
<path fill="none" stroke="#3e3e3e" stroke-width="2.5" d="M595.25,-1084.25C654.91,-1048.15 793.66,-964.21 859.33,-924.48"/>
<polygon fill="#3e3e3e" stroke="#3e3e3e" stroke-width="2.5" points="861.35,-927.35 868.09,-919.18 857.72,-921.36 861.35,-927.35"/>
</g>
<!-- MAPK3 -->
<g id="node10" class="node">
<title>MAPK3</title>
<ellipse fill="#bdbdbd" stroke="#848484" stroke-width="3" cx="41" cy="-689.84" rx="41" ry="41"/>
<text text-anchor="middle" x="41" y="-686.14" font-family="Times,serif" font-size="14.00">MAPK3</text>
</g>
<!-- MAP2K1&#45;&gt;MAPK3 -->
<g id="edge9" class="edge">
<title>MAP2K1&#45;&gt;MAPK3</title>
<path fill="none" stroke="#3e3e3e" stroke-width="2.5" d="M145.53,-863.82C123.48,-827.12 90.52,-772.27 67.53,-734"/>
<polygon fill="#3e3e3e" stroke="#3e3e3e" stroke-width="2.5" points="70.35,-731.9 62.2,-725.13 64.35,-735.51 70.35,-731.9"/>
</g>
<!-- MAPK1 -->
<g id="node11" class="node">
<title>MAPK1</title>
<ellipse fill="#bdbdbd" stroke="#848484" stroke-width="3" cx="141" cy="-689.84" rx="41" ry="41"/>
<text text-anchor="middle" x="141" y="-686.14" font-family="Times,serif" font-size="14.00">MAPK1</text>
</g>
<!-- MAP2K1&#45;&gt;MAPK1 -->
<g id="edge10" class="edge">
<title>MAP2K1&#45;&gt;MAPK1</title>
<path fill="none" stroke="#3e3e3e" stroke-width="2.5" d="M163.07,-857.71C158.57,-823.47 152.38,-776.4 147.7,-740.81"/>
<polygon fill="#3e3e3e" stroke="#3e3e3e" stroke-width="2.5" points="151.14,-740.09 146.37,-730.64 144.2,-741.01 151.14,-740.09"/>
</g>
<!-- GSK3B -->
<g id="node12" class="node">
<title>GSK3B</title>
<ellipse fill="#bdbdbd" stroke="#848484" stroke-width="3" cx="324" cy="-689.84" rx="38.5" ry="38.5"/>
<text text-anchor="middle" x="324" y="-686.14" font-family="Times,serif" font-size="14.00">GSK3B</text>
</g>
<!-- MAP2K1&#45;&gt;GSK3B -->
<g id="edge11" class="edge">
<title>MAP2K1&#45;&gt;GSK3B</title>
<path fill="none" stroke="#3e3e3e" stroke-width="2.5" d="M196,-865.79C223.74,-827.66 266.77,-768.51 295.16,-729.48"/>
<polygon fill="#3e3e3e" stroke="#3e3e3e" stroke-width="2.5" points="298.29,-731.14 301.34,-720.99 292.63,-727.02 298.29,-731.14"/>
</g>
<!-- CDK1 -->
<g id="node13" class="node">
<title>CDK1</title>
<ellipse fill="#bdbdbd" stroke="#848484" stroke-width="3" cx="234" cy="-689.84" rx="34" ry="34"/>
<text text-anchor="middle" x="234" y="-686.14" font-family="Times,serif" font-size="14.00">CDK1</text>
</g>
<!-- ERBB2&#45;&gt;CDK1 -->
<g id="edge12" class="edge">
<title>ERBB2&#45;&gt;CDK1</title>
<path fill="none" stroke="#3e3e3e" stroke-width="2.5" d="M297.77,-866.27C284.21,-828.76 263.17,-770.55 249.01,-731.35"/>
<polygon fill="#3e3e3e" stroke="#3e3e3e" stroke-width="2.5" points="252.25,-730.03 245.56,-721.82 245.67,-732.41 252.25,-730.03"/>
</g>
<!-- ABL1 -->
<g id="node14" class="node">
<title>ABL1</title>
<ellipse fill="#bdbdbd" stroke="#848484" stroke-width="3" cx="424" cy="-689.84" rx="32.5" ry="32.5"/>
<text text-anchor="middle" x="424" y="-686.14" font-family="Times,serif" font-size="14.00">ABL1</text>
</g>
<!-- PTPN1&#45;&gt;ABL1 -->
<g id="edge13" class="edge">
<title>PTPN1&#45;&gt;ABL1</title>
<path fill="none" stroke="#3e3e3e" stroke-width="2.5" d="M424,-866.27C424,-829.14 424,-771.71 424,-732.54"/>
<polygon fill="#3e3e3e" stroke="#3e3e3e" stroke-width="2.5" points="427.5,-732.5 424,-722.5 420.5,-732.5 427.5,-732.5"/>
</g>
<!-- AKT1 -->
<g id="node15" class="node">
<title>AKT1</title>
<ellipse fill="#bdbdbd" stroke="#848484" stroke-width="3" cx="575" cy="-689.84" rx="33" ry="33"/>
<text text-anchor="middle" x="575" y="-686.14" font-family="Times,serif" font-size="14.00">AKT1</text>
</g>
<!-- PIK3R1&#45;&gt;AKT1 -->
<g id="edge14" class="edge">
<title>PIK3R1&#45;&gt;AKT1</title>
<path fill="none" stroke="#3e3e3e" stroke-width="2.5" d="M528.33,-864.32C538.34,-826.89 553.49,-770.26 563.79,-731.74"/>
<polygon fill="#3e3e3e" stroke="#3e3e3e" stroke-width="2.5" points="567.23,-732.44 566.43,-721.88 560.47,-730.63 567.23,-732.44"/>
</g>
<!-- PRKDC&#45;&gt;AKT1 -->
<g id="edge15" class="edge">
<title>PRKDC&#45;&gt;AKT1</title>
<path fill="none" stroke="#3e3e3e" stroke-width="2.5" d="M608.29,-862.82C601.15,-825.69 590.55,-770.62 583.24,-732.64"/>
<polygon fill="#3e3e3e" stroke="#3e3e3e" stroke-width="2.5" points="586.6,-731.57 581.27,-722.41 579.73,-732.89 586.6,-731.57"/>
</g>
<!-- HIC1 -->
<g id="node16" class="node">
<title>HIC1</title>
<ellipse fill="#b2df8a" stroke="#70bc6b" stroke-width="3" cx="657" cy="-689.84" rx="30.5" ry="30.5"/>
<text text-anchor="middle" x="657" y="-686.14" font-family="Times,serif" font-size="14.00">HIC1</text>
</g>
<!-- E2F1&#45;&gt;HIC1 -->
<g id="edge16" class="edge">
<title>E2F1&#45;&gt;HIC1</title>
<path fill="none" stroke="#3e3e3e" stroke-width="2.5" d="M697.47,-873.27C689.22,-835.88 675,-771.42 665.8,-729.72"/>
<polygon fill="#3e3e3e" stroke="#3e3e3e" stroke-width="2.5" points="669.21,-728.91 663.64,-719.9 662.37,-730.42 669.21,-728.91"/>
</g>
<!-- TP73 -->
<g id="node17" class="node">
<title>TP73</title>
<ellipse fill="#b2df8a" stroke="#70bc6b" stroke-width="3" cx="735" cy="-689.84" rx="30" ry="30"/>
<text text-anchor="middle" x="735" y="-686.14" font-family="Times,serif" font-size="14.00">TP73</text>
</g>
<!-- E2F1&#45;&gt;TP73 -->
<g id="edge17" class="edge">
<title>E2F1&#45;&gt;TP73</title>
<path fill="none" stroke="#3e3e3e" stroke-width="2.5" d="M708.38,-872.82C713.83,-835.39 723.15,-771.34 729.19,-729.8"/>
<polygon fill="#3e3e3e" stroke="#3e3e3e" stroke-width="2.5" points="732.67,-730.16 730.65,-719.76 725.75,-729.15 732.67,-730.16"/>
</g>
<!-- HIF1A -->
<g id="node18" class="node">
<title>HIF1A</title>
<ellipse fill="#b2df8a" stroke="#70bc6b" stroke-width="3" cx="819" cy="-689.84" rx="35.5" ry="35.5"/>
<text text-anchor="middle" x="819" y="-686.14" font-family="Times,serif" font-size="14.00">HIF1A</text>
</g>
<!-- STAT1&#45;&gt;HIF1A -->
<g id="edge18" class="edge">
<title>STAT1&#45;&gt;HIF1A</title>
<path fill="none" stroke="#3e3e3e" stroke-width="2.5" d="M801.52,-867.24C805.09,-831.03 810.63,-774.82 814.51,-735.4"/>
<polygon fill="#3e3e3e" stroke="#3e3e3e" stroke-width="2.5" points="818.01,-735.56 815.51,-725.26 811.05,-734.87 818.01,-735.56"/>
</g>
<!-- RXRA -->
<g id="node19" class="node">
<title>RXRA</title>
<ellipse fill="#bdbdbd" stroke="#848484" stroke-width="3" cx="908" cy="-689.84" rx="35" ry="35"/>
<text text-anchor="middle" x="908" y="-686.14" font-family="Times,serif" font-size="14.00">RXRA</text>
</g>
<!-- ESR1&#45;&gt;RXRA -->
<g id="edge19" class="edge">
<title>ESR1&#45;&gt;RXRA</title>
<path fill="none" stroke="#3e3e3e" stroke-width="2.5" d="M896.89,-871.92C899.09,-835.96 902.73,-776.33 905.24,-735.16"/>
<polygon fill="#3e3e3e" stroke="#3e3e3e" stroke-width="2.5" points="908.74,-735.31 905.85,-725.12 901.75,-734.88 908.74,-735.31"/>
</g>
<!-- SP3 -->
<g id="node20" class="node">
<title>SP3</title>
<ellipse fill="#b2df8a" stroke="#70bc6b" stroke-width="3" cx="45" cy="-466.33" rx="24.5" ry="24.5"/>
<text text-anchor="middle" x="45" y="-462.63" font-family="Times,serif" font-size="14.00">SP3</text>
</g>
<!-- MAPK3&#45;&gt;SP3 -->
<g id="edge20" class="edge">
<title>MAPK3&#45;&gt;SP3</title>
<path fill="none" stroke="#3e3e3e" stroke-width="2.5" d="M41.73,-648.84C42.49,-606.5 43.66,-541.14 44.38,-501.2"/>
<polygon fill="#3e3e3e" stroke="#3e3e3e" stroke-width="2.5" points="47.88,-501.2 44.56,-491.14 40.88,-501.08 47.88,-501.2"/>
</g>
<!-- MAPK1&#45;&gt;SP3 -->
<g id="edge21" class="edge">
<title>MAPK1&#45;&gt;SP3</title>
<path fill="none" stroke="#3e3e3e" stroke-width="2.5" d="M124.72,-651.92C106.19,-608.78 76.23,-539.05 58.8,-498.47"/>
<polygon fill="#3e3e3e" stroke="#3e3e3e" stroke-width="2.5" points="61.92,-496.86 54.76,-489.05 55.49,-499.62 61.92,-496.86"/>
</g>
<!-- CSNK2A1 -->
<g id="node21" class="node">
<title>CSNK2A1</title>
<ellipse fill="#bdbdbd" stroke="#848484" stroke-width="3" cx="139" cy="-466.33" rx="49.5" ry="49.5"/>
<text text-anchor="middle" x="139" y="-462.63" font-family="Times,serif" font-size="14.00">CSNK2A1</text>
</g>
<!-- MAPK1&#45;&gt;CSNK2A1 -->
<g id="edge22" class="edge">
<title>MAPK1&#45;&gt;CSNK2A1</title>
<path fill="none" stroke="#3e3e3e" stroke-width="2.5" d="M140.63,-648.58C140.33,-614.19 139.88,-564.75 139.54,-526.04"/>
<polygon fill="#3e3e3e" stroke="#3e3e3e" stroke-width="2.5" points="143.04,-525.9 139.45,-515.94 136.04,-525.97 143.04,-525.9"/>
</g>
<!-- SFPQ -->
<g id="node22" class="node">
<title>SFPQ</title>
<ellipse fill="#b2df8a" stroke="#70bc6b" stroke-width="3" cx="333" cy="-466.33" rx="32" ry="32"/>
<text text-anchor="middle" x="333" y="-462.63" font-family="Times,serif" font-size="14.00">SFPQ</text>
</g>
<!-- GSK3B&#45;&gt;SFPQ -->
<g id="edge23" class="edge">
<title>GSK3B&#45;&gt;SFPQ</title>
<path fill="none" stroke="#3e3e3e" stroke-width="2.5" d="M325.56,-651.16C327.16,-611.39 329.65,-549.64 331.3,-508.61"/>
<polygon fill="#3e3e3e" stroke="#3e3e3e" stroke-width="2.5" points="334.81,-508.52 331.71,-498.39 327.81,-508.24 334.81,-508.52"/>
</g>
<!-- NFKB1 -->
<g id="node23" class="node">
<title>NFKB1</title>
<ellipse fill="#b2df8a" stroke="#70bc6b" stroke-width="3" cx="245" cy="-466.33" rx="38.5" ry="38.5"/>
<text text-anchor="middle" x="245" y="-462.63" font-family="Times,serif" font-size="14.00">NFKB1</text>
</g>
<!-- GSK3B&#45;&gt;NFKB1 -->
<g id="edge24" class="edge">
<title>GSK3B&#45;&gt;NFKB1</title>
<path fill="none" stroke="#3e3e3e" stroke-width="2.5" d="M311.14,-653.43C297.54,-614.95 276.05,-554.17 261.28,-512.39"/>
<polygon fill="#3e3e3e" stroke="#3e3e3e" stroke-width="2.5" points="264.5,-510.99 257.87,-502.72 257.9,-513.32 264.5,-510.99"/>
</g>
<!-- CDK1&#45;&gt;CSNK2A1 -->
<g id="edge25" class="edge">
<title>CDK1&#45;&gt;CSNK2A1</title>
<path fill="none" stroke="#3e3e3e" stroke-width="2.5" d="M220.59,-658.29C205.49,-622.75 180.66,-564.34 162.36,-521.27"/>
<polygon fill="#3e3e3e" stroke="#3e3e3e" stroke-width="2.5" points="165.57,-519.89 158.44,-512.06 159.13,-522.63 165.57,-519.89"/>
</g>
<!-- ATR -->
<g id="node24" class="node">
<title>ATR</title>
<ellipse fill="#bdbdbd" stroke="#848484" stroke-width="3" cx="500" cy="-466.33" rx="27.5" ry="27.5"/>
<text text-anchor="middle" x="500" y="-462.63" font-family="Times,serif" font-size="14.00">ATR</text>
</g>
<!-- ABL1&#45;&gt;ATR -->
<g id="edge26" class="edge">
<title>ABL1&#45;&gt;ATR</title>
<path fill="none" stroke="#3e3e3e" stroke-width="2.5" d="M434.57,-658.76C448.53,-617.7 473.08,-545.52 487.81,-502.19"/>
<polygon fill="#3e3e3e" stroke="#3e3e3e" stroke-width="2.5" points="491.16,-503.22 491.06,-492.62 484.53,-500.96 491.16,-503.22"/>
</g>
<!-- HIPK2 -->
<g id="node25" class="node">
<title>HIPK2</title>
<ellipse fill="#bdbdbd" stroke="#848484" stroke-width="3" cx="419" cy="-466.33" rx="35.5" ry="35.5"/>
<text text-anchor="middle" x="419" y="-462.63" font-family="Times,serif" font-size="14.00">HIPK2</text>
</g>
<!-- ABL1&#45;&gt;HIPK2 -->
<g id="edge27" class="edge">
<title>ABL1&#45;&gt;HIPK2</title>
<path fill="none" stroke="#3e3e3e" stroke-width="2.5" d="M423.28,-657.34C422.42,-619.09 420.99,-555.31 420.03,-512.08"/>
<polygon fill="#3e3e3e" stroke="#3e3e3e" stroke-width="2.5" points="423.52,-511.75 419.8,-501.83 416.52,-511.9 423.52,-511.75"/>
</g>
<!-- SMARCC1 -->
<g id="node26" class="node">
<title>SMARCC1</title>
<ellipse fill="#b2df8a" stroke="#70bc6b" stroke-width="3" cx="687" cy="-466.33" rx="52" ry="52"/>
<text text-anchor="middle" x="687" y="-462.63" font-family="Times,serif" font-size="14.00">SMARCC1</text>
</g>
<!-- AKT1&#45;&gt;SMARCC1 -->
<g id="edge28" class="edge">
<title>AKT1&#45;&gt;SMARCC1</title>
<path fill="none" stroke="#3e3e3e" stroke-width="2.5" d="M589.88,-660.16C607.49,-625.02 637.19,-565.74 659.12,-521.97"/>
<polygon fill="#3e3e3e" stroke="#3e3e3e" stroke-width="2.5" points="662.33,-523.39 663.68,-512.88 656.07,-520.25 662.33,-523.39"/>
</g>
<!-- PHF20 -->
<g id="node27" class="node">
<title>PHF20</title>
<ellipse fill="#b2df8a" stroke="#70bc6b" stroke-width="3" cx="581" cy="-466.33" rx="35.5" ry="35.5"/>
<text text-anchor="middle" x="581" y="-462.63" font-family="Times,serif" font-size="14.00">PHF20</text>
</g>
<!-- AKT1&#45;&gt;PHF20 -->
<g id="edge29" class="edge">
<title>AKT1&#45;&gt;PHF20</title>
<path fill="none" stroke="#3e3e3e" stroke-width="2.5" d="M575.9,-656.38C576.93,-618.01 578.63,-554.91 579.78,-512.04"/>
<polygon fill="#3e3e3e" stroke="#3e3e3e" stroke-width="2.5" points="583.28,-511.96 580.05,-501.87 576.28,-511.77 583.28,-511.96"/>
</g>
<!-- NR1H4 -->
<g id="node28" class="node">
<title>NR1H4</title>
<ellipse fill="#b2df8a" stroke="#70bc6b" stroke-width="3" cx="908" cy="-466.33" rx="38.5" ry="38.5"/>
<text text-anchor="middle" x="908" y="-462.63" font-family="Times,serif" font-size="14.00">NR1H4</text>
</g>
<!-- RXRA&#45;&gt;NR1H4 -->
<g id="edge30" class="edge">
<title>RXRA&#45;&gt;NR1H4</title>
<path fill="none" stroke="#3e3e3e" stroke-width="2.5" d="M908,-654.42C908,-616.78 908,-557.01 908,-514.97"/>
<polygon fill="#3e3e3e" stroke="#3e3e3e" stroke-width="2.5" points="911.5,-514.96 908,-504.96 904.5,-514.96 911.5,-514.96"/>
</g>
<!-- FOSB -->
<g id="node29" class="node">
<title>FOSB</title>
<ellipse fill="#b2df8a" stroke="#70bc6b" stroke-width="3" cx="139" cy="-240.74" rx="32.5" ry="32.5"/>
<text text-anchor="middle" x="139" y="-237.04" font-family="Times,serif" font-size="14.00">FOSB</text>
</g>
<!-- CSNK2A1&#45;&gt;FOSB -->
<g id="edge31" class="edge">
<title>CSNK2A1&#45;&gt;FOSB</title>
<path fill="none" stroke="#3e3e3e" stroke-width="2.5" d="M139,-416.83C139,-376.99 139,-321.59 139,-283.62"/>
<polygon fill="#3e3e3e" stroke="#3e3e3e" stroke-width="2.5" points="142.5,-283.41 139,-273.41 135.5,-283.41 142.5,-283.41"/>
</g>
<!-- KMT2A -->
<g id="node30" class="node">
<title>KMT2A</title>
<ellipse fill="#bdbdbd" stroke="#848484" stroke-width="3" cx="509" cy="-240.74" rx="41.5" ry="41.5"/>
<text text-anchor="middle" x="509" y="-237.04" font-family="Times,serif" font-size="14.00">KMT2A</text>
</g>
<!-- ATR&#45;&gt;KMT2A -->
<g id="edge32" class="edge">
<title>ATR&#45;&gt;KMT2A</title>
<path fill="none" stroke="#3e3e3e" stroke-width="2.5" d="M501.11,-438.67C502.55,-402.43 505.12,-338.16 506.93,-292.7"/>
<polygon fill="#3e3e3e" stroke="#3e3e3e" stroke-width="2.5" points="510.44,-292.58 507.34,-282.44 503.44,-292.3 510.44,-292.58"/>
</g>
<!-- MECP2 -->
<g id="node31" class="node">
<title>MECP2</title>
<ellipse fill="#b2df8a" stroke="#70bc6b" stroke-width="3" cx="410" cy="-240.74" rx="39.5" ry="39.5"/>
<text text-anchor="middle" x="410" y="-237.04" font-family="Times,serif" font-size="14.00">MECP2</text>
</g>
<!-- HIPK2&#45;&gt;MECP2 -->
<g id="edge33" class="edge">
<title>HIPK2&#45;&gt;MECP2</title>
<path fill="none" stroke="#3e3e3e" stroke-width="2.5" d="M417.58,-430.59C416.07,-392.82 413.68,-332.99 411.99,-290.6"/>
<polygon fill="#3e3e3e" stroke="#3e3e3e" stroke-width="2.5" points="415.49,-290.35 411.59,-280.5 408.49,-290.63 415.49,-290.35"/>
</g>
<!-- FOXC2 -->
<g id="node32" class="node">
<title>FOXC2</title>
<ellipse fill="#b2df8a" stroke="#70bc6b" stroke-width="3" cx="509" cy="-40.21" rx="38.5" ry="38.5"/>
<text text-anchor="middle" x="509" y="-36.51" font-family="Times,serif" font-size="14.00">FOXC2</text>
</g>
<!-- KMT2A&#45;&gt;FOXC2 -->
<g id="edge34" class="edge">
<title>KMT2A&#45;&gt;FOXC2</title>
<path fill="none" stroke="#3e3e3e" stroke-width="2.5" d="M509,-199.19C509,-167.17 509,-122.81 509,-89.09"/>
<polygon fill="#3e3e3e" stroke="#3e3e3e" stroke-width="2.5" points="512.5,-88.99 509,-78.99 505.5,-88.99 512.5,-88.99"/>
</g>
</g>
</svg>
