<?xml version="1.0" encoding="UTF-8" standalone="no"?>
<!DOCTYPE svg PUBLIC "-//W3C//DTD SVG 1.1//EN"
 "http://www.w3.org/Graphics/SVG/1.1/DTD/svg11.dtd">
<!-- Generated by graphviz version 2.43.0 (0)
 -->
<!-- Pages: 1 -->
<svg width="1192pt" height="1429pt"
 viewBox="0.00 0.00 1192.45 1429.34" xmlns="http://www.w3.org/2000/svg" xmlns:xlink="http://www.w3.org/1999/xlink">
<g id="graph0" class="graph" transform="scale(1 1) rotate(0) translate(4 1425.34)">
<polygon fill="white" stroke="transparent" points="-4,4 -4,-1425.34 1188.45,-1425.34 1188.45,4 -4,4"/>
<!-- EGFR -->
<g id="node1" class="node">
<title>EGFR</title>
<ellipse fill="#a6cee3" stroke="#62a0ca" stroke-width="3" cx="641" cy="-1386.51" rx="33" ry="33"/>
<text text-anchor="middle" x="641" y="-1382.81" font-family="Times,serif" font-size="14.00">EGFR</text>
</g>
<!-- MAP2K1 -->
<g id="node2" class="node">
<title>MAP2K1</title>
<ellipse fill="#bdbdbd" stroke="#848484" stroke-width="3" cx="190" cy="-1138.45" rx="45.5" ry="45.5"/>
<text text-anchor="middle" x="190" y="-1134.75" font-family="Times,serif" font-size="14.00">MAP2K1</text>
</g>
<!-- EGFR&#45;&gt;MAP2K1 -->
<g id="edge1" class="edge">
<title>EGFR&#45;&gt;MAP2K1</title>
<path fill="none" stroke="#33a02c" stroke-width="2.5" d="M611.76,-1370.43C536.1,-1328.81 333.3,-1217.26 239.2,-1165.51"/>
<polygon fill="#33a02c" stroke="#33a02c" stroke-width="2.5" points="240.62,-1162.3 230.18,-1160.54 237.25,-1168.43 240.62,-1162.3"/>
</g>
<!-- PTPN1 -->
<g id="node3" class="node">
<title>PTPN1</title>
<ellipse fill="#bdbdbd" stroke="#848484" stroke-width="3" cx="399" cy="-1138.45" rx="36.5" ry="36.5"/>
<text text-anchor="middle" x="399" y="-1134.75" font-family="Times,serif" font-size="14.00">PTPN1</text>
</g>
<!-- EGFR&#45;&gt;PTPN1 -->
<g id="edge2" class="edge">
<title>EGFR&#45;&gt;PTPN1</title>
<path fill="none" stroke="#33a02c" stroke-width="2.5" d="M617.8,-1362.73C574.5,-1318.34 481.3,-1222.81 431.67,-1171.93"/>
<polygon fill="#33a02c" stroke="#33a02c" stroke-width="2.5" points="434.16,-1169.47 424.67,-1164.76 429.15,-1174.36 434.16,-1169.47"/>
</g>
<!-- PRKDC -->
<g id="node4" class="node">
<title>PRKDC</title>
<ellipse fill="#bdbdbd" stroke="#848484" stroke-width="3" cx="499" cy="-1138.45" rx="40.5" ry="40.5"/>
<text text-anchor="middle" x="499" y="-1134.75" font-family="Times,serif" font-size="14.00">PRKDC</text>
</g>
<!-- EGFR&#45;&gt;PRKDC -->
<g id="edge3" class="edge">
<title>EGFR&#45;&gt;PRKDC</title>
<path fill="none" stroke="#33a02c" stroke-width="2.5" d="M624.44,-1357.57C599.8,-1314.53 553.3,-1233.3 524.36,-1182.75"/>
<polygon fill="#33a02c" stroke="#33a02c" stroke-width="2.5" points="527.36,-1180.93 519.35,-1173.99 521.28,-1184.41 527.36,-1180.93"/>
</g>
<!-- PIK3R1 -->
<g id="node5" class="node">
<title>PIK3R1</title>
<ellipse fill="#bdbdbd" stroke="#848484" stroke-width="3" cx="597" cy="-1138.45" rx="39.5" ry="39.5"/>
<text text-anchor="middle" x="597" y="-1134.75" font-family="Times,serif" font-size="14.00">PIK3R1</text>
</g>
<!-- EGFR&#45;&gt;PIK3R1 -->
<g id="edge4" class="edge">
<title>EGFR&#45;&gt;PIK3R1</title>
<path fill="none" stroke="#33a02c" stroke-width="2.5" d="M635.21,-1353.83C627.69,-1311.45 614.51,-1237.16 605.77,-1187.87"/>
<polygon fill="#33a02c" stroke="#33a02c" stroke-width="2.5" points="609.17,-1186.99 603.98,-1177.75 602.28,-1188.21 609.17,-1186.99"/>
</g>
<!-- E2F1 -->
<g id="node6" class="node">
<title>E2F1</title>
<ellipse fill="#bdbdbd" stroke="#848484" stroke-width="3" cx="685" cy="-1138.45" rx="30" ry="30"/>
<text text-anchor="middle" x="685" y="-1134.75" font-family="Times,serif" font-size="14.00">E2F1</text>
</g>
<!-- EGFR&#45;&gt;E2F1 -->
<g id="edge5" class="edge">
<title>EGFR&#45;&gt;E2F1</title>
<path fill="none" stroke="#33a02c" stroke-width="2.5" d="M646.8,-1353.83C654.84,-1308.5 669.36,-1226.67 677.99,-1177.97"/>
<polygon fill="#33a02c" stroke="#33a02c" stroke-width="2.5" points="681.44,-1178.56 679.74,-1168.11 674.55,-1177.34 681.44,-1178.56"/>
</g>
<!-- STAT1 -->
<g id="node7" class="node">
<title>STAT1</title>
<ellipse fill="#bdbdbd" stroke="#848484" stroke-width="3" cx="849" cy="-1138.45" rx="35.5" ry="35.5"/>
<text text-anchor="middle" x="849" y="-1134.75" font-family="Times,serif" font-size="14.00">STAT1</text>
</g>
<!-- EGFR&#45;&gt;STAT1 -->
<g id="edge6" class="edge">
<title>EGFR&#45;&gt;STAT1</title>
<path fill="none" stroke="#33a02c" stroke-width="2.5" d="M662.48,-1360.9C699.92,-1316.25 777.18,-1224.1 819.58,-1173.54"/>
<polygon fill="#33a02c" stroke="#33a02c" stroke-width="2.5" points="822.33,-1175.71 826.07,-1165.8 816.96,-1171.22 822.33,-1175.71"/>
</g>
<!-- PKIA -->
<g id="node8" class="node">
<title>PKIA</title>
<ellipse fill="#bdbdbd" stroke="#848484" stroke-width="3" cx="990" cy="-1138.45" rx="31" ry="31"/>
<text text-anchor="middle" x="990" y="-1134.75" font-family="Times,serif" font-size="14.00">PKIA</text>
</g>
<!-- EGFR&#45;&gt;PKIA -->
<g id="edge7" class="edge">
<title>EGFR&#45;&gt;PKIA</title>
<path fill="none" stroke="#33a02c" stroke-width="2.5" d="M668.1,-1367.25C731.07,-1322.49 887.16,-1211.55 956.22,-1162.46"/>
<polygon fill="#33a02c" stroke="#33a02c" stroke-width="2.5" points="958.46,-1165.16 964.59,-1156.52 954.41,-1159.46 958.46,-1165.16"/>
</g>
<!-- ESR1 -->
<g id="node9" class="node">
<title>ESR1</title>
<ellipse fill="#bdbdbd" stroke="#848484" stroke-width="3" cx="1107.95" cy="-1138.45" rx="31" ry="31"/>
<text text-anchor="middle" x="1107.95" y="-1134.75" font-family="Times,serif" font-size="14.00">ESR1</text>
</g>
<!-- EGFR&#45;&gt;ESR1 -->
<g id="edge8" class="edge">
<title>EGFR&#45;&gt;ESR1</title>
<path fill="none" stroke="#33a02c" stroke-width="2.5" d="M670.21,-1370.99C751.78,-1327.66 981.89,-1205.42 1071.55,-1157.79"/>
<polygon fill="#33a02c" stroke="#33a02c" stroke-width="2.5" points="1073.34,-1160.8 1080.53,-1153.02 1070.05,-1154.62 1073.34,-1160.8"/>
</g>
<!-- MAPK3 -->
<g id="node10" class="node">
<title>MAPK3</title>
<ellipse fill="#bdbdbd" stroke="#848484" stroke-width="3" cx="41" cy="-861.88" rx="41" ry="41"/>
<text text-anchor="middle" x="41" y="-858.18" font-family="Times,serif" font-size="14.00">MAPK3</text>
</g>
<!-- MAP2K1&#45;&gt;MAPK3 -->
<g id="edge9" class="edge">
<title>MAP2K1&#45;&gt;MAPK3</title>
<path fill="none" stroke="#33a02c" stroke-width="2.5" d="M168.34,-1098.23C140.95,-1047.39 93.92,-960.11 65.33,-907.03"/>
<polygon fill="#33a02c" stroke="#33a02c" stroke-width="2.5" points="68.38,-905.32 60.55,-898.18 62.22,-908.64 68.38,-905.32"/>
</g>
<!-- MAPK1 -->
<g id="node11" class="node">
<title>MAPK1</title>
<ellipse fill="#bdbdbd" stroke="#848484" stroke-width="3" cx="141" cy="-861.88" rx="41" ry="41"/>
<text text-anchor="middle" x="141" y="-858.18" font-family="Times,serif" font-size="14.00">MAPK1</text>
</g>
<!-- MAP2K1&#45;&gt;MAPK1 -->
<g id="edge10" class="edge">
<title>MAP2K1&#45;&gt;MAPK1</title>
<path fill="none" stroke="#33a02c" stroke-width="2.5" d="M182.02,-1093.4C173.23,-1043.75 159.11,-964.08 149.95,-912.37"/>
<polygon fill="#33a02c" stroke="#33a02c" stroke-width="2.5" points="153.38,-911.65 148.18,-902.41 146.48,-912.87 153.38,-911.65"/>
</g>
<!-- GSK3B -->
<g id="node12" class="node">
<title>GSK3B</title>
<ellipse fill="#bdbdbd" stroke="#848484" stroke-width="3" cx="238" cy="-861.88" rx="38.5" ry="38.5"/>
<text text-anchor="middle" x="238" y="-858.18" font-family="Times,serif" font-size="14.00">GSK3B</text>
</g>
<!-- MAP2K1&#45;&gt;GSK3B -->
<g id="edge11" class="edge">
<title>MAP2K1&#45;&gt;GSK3B</title>
<path fill="none" stroke="#33a02c" stroke-width="2.5" d="M197.82,-1093.4C206.56,-1043.03 220.67,-961.78 229.63,-910.14"/>
<polygon fill="#33a02c" stroke="#33a02c" stroke-width="2.5" points="233.09,-910.68 231.35,-900.23 226.19,-909.48 233.09,-910.68"/>
</g>
<!-- ABL1 -->
<g id="node13" class="node">
<title>ABL1</title>
<ellipse fill="#bdbdbd" stroke="#848484" stroke-width="3" cx="396" cy="-861.88" rx="32.5" ry="32.5"/>
<text text-anchor="middle" x="396" y="-858.18" font-family="Times,serif" font-size="14.00">ABL1</text>
</g>
<!-- PTPN1&#45;&gt;ABL1 -->
<g id="edge12" class="edge">
<title>PTPN1&#45;&gt;ABL1</title>
<path fill="none" stroke="#e31a1c" stroke-width="2.5" d="M398.61,-1101.72C398.05,-1050.75 397.05,-958.76 396.47,-904.73"/>
<polygon fill="#e31a1c" stroke="#e31a1c" stroke-width="2.5" points="399.97,-904.41 396.36,-894.45 392.97,-904.49 399.97,-904.41"/>
</g>
<!-- AKT1 -->
<g id="node14" class="node">
<title>AKT1</title>
<ellipse fill="#bdbdbd" stroke="#848484" stroke-width="3" cx="500" cy="-861.88" rx="33" ry="33"/>
<text text-anchor="middle" x="500" y="-858.18" font-family="Times,serif" font-size="14.00">AKT1</text>
</g>
<!-- PRKDC&#45;&gt;AKT1 -->
<g id="edge13" class="edge">
<title>PRKDC&#45;&gt;AKT1</title>
<path fill="none" stroke="#33a02c" stroke-width="2.5" d="M499.15,-1097.94C499.34,-1046.46 499.66,-957.96 499.85,-905.18"/>
<polygon fill="#33a02c" stroke="#33a02c" stroke-width="2.5" points="503.35,-905.14 499.88,-895.13 496.35,-905.11 503.35,-905.14"/>
</g>
<!-- PIK3R1&#45;&gt;AKT1 -->
<g id="edge14" class="edge">
<title>PIK3R1&#45;&gt;AKT1</title>
<path fill="none" stroke="#33a02c" stroke-width="2.5" d="M583.92,-1101.15C565.76,-1049.38 533.04,-956.08 514.27,-902.56"/>
<polygon fill="#33a02c" stroke="#33a02c" stroke-width="2.5" points="517.55,-901.33 510.94,-893.05 510.94,-903.65 517.55,-901.33"/>
</g>
<!-- HIC1 -->
<g id="node15" class="node">
<title>HIC1</title>
<ellipse fill="#b2df8a" stroke="#eb5e60" stroke-width="3" cx="582" cy="-861.88" rx="30.5" ry="30.5"/>
<text text-anchor="middle" x="582" y="-858.18" font-family="Times,serif" font-size="14.00">HIC1</text>
</g>
<!-- E2F1&#45;&gt;HIC1 -->
<g id="edge15" class="edge">
<title>E2F1&#45;&gt;HIC1</title>
<path fill="none" stroke="#33a02c" stroke-width="2.5" d="M674.47,-1110.15C655.89,-1060.28 617.32,-956.7 596.34,-900.38"/>
<polygon fill="#33a02c" stroke="#33a02c" stroke-width="2.5" points="599.53,-898.91 592.76,-890.76 592.97,-901.36 599.53,-898.91"/>
</g>
<!-- CHEK1 -->
<g id="node16" class="node">
<title>CHEK1</title>
<ellipse fill="#bdbdbd" stroke="#848484" stroke-width="3" cx="670" cy="-861.88" rx="39" ry="39"/>
<text text-anchor="middle" x="670" y="-858.18" font-family="Times,serif" font-size="14.00">CHEK1</text>
</g>
<!-- E2F1&#45;&gt;CHEK1 -->
<g id="edge16" class="edge">
<title>E2F1&#45;&gt;CHEK1</title>
<path fill="none" stroke="#33a02c" stroke-width="2.5" d="M683.37,-1108.32C680.8,-1061.01 675.8,-968.78 672.7,-911.55"/>
<polygon fill="#33a02c" stroke="#33a02c" stroke-width="2.5" points="676.18,-911.08 672.14,-901.29 669.19,-911.46 676.18,-911.08"/>
</g>
<!-- TP73 -->
<g id="node17" class="node">
<title>TP73</title>
<ellipse fill="#b2df8a" stroke="#eb5e60" stroke-width="3" cx="757" cy="-861.88" rx="30" ry="30"/>
<text text-anchor="middle" x="757" y="-858.18" font-family="Times,serif" font-size="14.00">TP73</text>
</g>
<!-- E2F1&#45;&gt;TP73 -->
<g id="edge17" class="edge">
<title>E2F1&#45;&gt;TP73</title>
<path fill="none" stroke="#33a02c" stroke-width="2.5" d="M692.57,-1109.37C705.59,-1059.37 732.23,-957.06 746.84,-900.91"/>
<polygon fill="#33a02c" stroke="#33a02c" stroke-width="2.5" points="750.3,-901.54 749.43,-890.98 743.52,-899.78 750.3,-901.54"/>
</g>
<!-- CREBBP -->
<g id="node18" class="node">
<title>CREBBP</title>
<ellipse fill="#bdbdbd" stroke="#848484" stroke-width="3" cx="849" cy="-861.88" rx="44" ry="44"/>
<text text-anchor="middle" x="849" y="-858.18" font-family="Times,serif" font-size="14.00">CREBBP</text>
</g>
<!-- STAT1&#45;&gt;CREBBP -->
<g id="edge18" class="edge">
<title>STAT1&#45;&gt;CREBBP</title>
<path fill="none" stroke="#e31a1c" stroke-width="2.5" d="M849,-1102.86C849,-1055.57 849,-971.59 849,-916.32"/>
<polygon fill="#e31a1c" stroke="#e31a1c" stroke-width="2.5" points="852.5,-916.01 849,-906.01 845.5,-916.01 852.5,-916.01"/>
</g>
<!-- HIF1A -->
<g id="node19" class="node">
<title>HIF1A</title>
<ellipse fill="#b2df8a" stroke="#70bc6b" stroke-width="3" cx="947" cy="-861.88" rx="35.5" ry="35.5"/>
<text text-anchor="middle" x="947" y="-858.18" font-family="Times,serif" font-size="14.00">HIF1A</text>
</g>
<!-- STAT1&#45;&gt;HIF1A -->
<g id="edge19" class="edge">
<title>STAT1&#45;&gt;HIF1A</title>
<path fill="none" stroke="#e31a1c" stroke-width="2.5" d="M860.92,-1104.81C878.68,-1054.7 912.08,-960.44 931.65,-905.22"/>
<polygon fill="#e31a1c" stroke="#e31a1c" stroke-width="2.5" points="934.97,-906.31 935.02,-895.72 928.38,-903.98 934.97,-906.31"/>
</g>
<!-- PRKACA -->
<g id="node20" class="node">
<title>PRKACA</title>
<ellipse fill="#bdbdbd" stroke="#848484" stroke-width="3" cx="1046.95" cy="-861.88" rx="46" ry="46"/>
<text text-anchor="middle" x="1046.95" y="-858.18" font-family="Times,serif" font-size="14.00">PRKACA</text>
</g>
<!-- PKIA&#45;&gt;PRKACA -->
<g id="edge20" class="edge">
<title>PKIA&#45;&gt;PRKACA</title>
<path fill="none" stroke="#e31a1c" stroke-width="2.5" d="M996.26,-1108.06C1005.69,-1062.26 1023.7,-974.81 1035.52,-917.42"/>
<polygon fill="#e31a1c" stroke="#e31a1c" stroke-width="2.5" points="1038.99,-917.93 1037.58,-907.43 1032.13,-916.52 1038.99,-917.93"/>
</g>
<!-- RXRA -->
<g id="node21" class="node">
<title>RXRA</title>
<ellipse fill="#bdbdbd" stroke="#848484" stroke-width="3" cx="1145.95" cy="-861.88" rx="35" ry="35"/>
<text text-anchor="middle" x="1145.95" y="-858.18" font-family="Times,serif" font-size="14.00">RXRA</text>
</g>
<!-- ESR1&#45;&gt;RXRA -->
<g id="edge21" class="edge">
<title>ESR1&#45;&gt;RXRA</title>
<path fill="none" stroke="#33a02c" stroke-width="2.5" d="M1112.2,-1107.53C1118.91,-1058.7 1131.99,-963.48 1139.75,-907.01"/>
<polygon fill="#33a02c" stroke="#33a02c" stroke-width="2.5" points="1143.24,-907.32 1141.14,-896.94 1136.31,-906.37 1143.24,-907.32"/>
</g>
<!-- SP3 -->
<g id="node22" class="node">
<title>SP3</title>
<ellipse fill="#b2df8a" stroke="#eb5e60" stroke-width="3" cx="44" cy="-571.6" rx="24.5" ry="24.5"/>
<text text-anchor="middle" x="44" y="-567.9" font-family="Times,serif" font-size="14.00">SP3</text>
</g>
<!-- MAPK3&#45;&gt;SP3 -->
<g id="edge22" class="edge">
<title>MAPK3&#45;&gt;SP3</title>
<path fill="none" stroke="#33a02c" stroke-width="2.5" d="M41.43,-820.6C42.02,-763.08 43.09,-659.85 43.64,-606.16"/>
<polygon fill="#33a02c" stroke="#33a02c" stroke-width="2.5" points="47.14,-606.15 43.75,-596.11 40.14,-606.07 47.14,-606.15"/>
</g>
<!-- MAPK1&#45;&gt;SP3 -->
<g id="edge23" class="edge">
<title>MAPK1&#45;&gt;SP3</title>
<path fill="none" stroke="#33a02c" stroke-width="2.5" d="M127.92,-822.74C108.68,-765.16 73.09,-658.67 55.07,-604.74"/>
<polygon fill="#33a02c" stroke="#33a02c" stroke-width="2.5" points="58.31,-603.37 51.82,-594.99 51.67,-605.59 58.31,-603.37"/>
</g>
<!-- CSNK2A1 -->
<g id="node23" class="node">
<title>CSNK2A1</title>
<ellipse fill="#bdbdbd" stroke="#848484" stroke-width="3" cx="139" cy="-571.6" rx="49.5" ry="49.5"/>
<text text-anchor="middle" x="139" y="-567.9" font-family="Times,serif" font-size="14.00">CSNK2A1</text>
</g>
<!-- MAPK1&#45;&gt;CSNK2A1 -->
<g id="edge24" class="edge">
<title>MAPK1&#45;&gt;CSNK2A1</title>
<path fill="none" stroke="#33a02c" stroke-width="2.5" d="M140.72,-820.6C140.38,-771.16 139.81,-687.97 139.42,-631.47"/>
<polygon fill="#33a02c" stroke="#33a02c" stroke-width="2.5" points="142.91,-631.22 139.35,-621.25 135.92,-631.27 142.91,-631.22"/>
</g>
<!-- SFPQ -->
<g id="node24" class="node">
<title>SFPQ</title>
<ellipse fill="#b2df8a" stroke="#70bc6b" stroke-width="3" cx="238" cy="-571.6" rx="32" ry="32"/>
<text text-anchor="middle" x="238" y="-567.9" font-family="Times,serif" font-size="14.00">SFPQ</text>
</g>
<!-- GSK3B&#45;&gt;SFPQ -->
<g id="edge25" class="edge">
<title>GSK3B&#45;&gt;SFPQ</title>
<path fill="none" stroke="#e31a1c" stroke-width="2.5" d="M238,-823.34C238,-769 238,-670.26 238,-613.94"/>
<polygon fill="#e31a1c" stroke="#e31a1c" stroke-width="2.5" points="241.5,-613.6 238,-603.6 234.5,-613.6 241.5,-613.6"/>
</g>
<!-- ATR -->
<g id="node25" class="node">
<title>ATR</title>
<ellipse fill="#bdbdbd" stroke="#848484" stroke-width="3" cx="315" cy="-571.6" rx="27.5" ry="27.5"/>
<text text-anchor="middle" x="315" y="-567.9" font-family="Times,serif" font-size="14.00">ATR</text>
</g>
<!-- ABL1&#45;&gt;ATR -->
<g id="edge26" class="edge">
<title>ABL1&#45;&gt;ATR</title>
<path fill="none" stroke="#33a02c" stroke-width="2.5" d="M387.26,-830.54C372.13,-776.33 341.16,-665.35 325.13,-607.88"/>
<polygon fill="#33a02c" stroke="#33a02c" stroke-width="2.5" points="328.47,-606.82 322.41,-598.13 321.72,-608.71 328.47,-606.82"/>
</g>
<!-- HIPK2 -->
<g id="node26" class="node">
<title>HIPK2</title>
<ellipse fill="#bdbdbd" stroke="#848484" stroke-width="3" cx="396" cy="-571.6" rx="35.5" ry="35.5"/>
<text text-anchor="middle" x="396" y="-567.9" font-family="Times,serif" font-size="14.00">HIPK2</text>
</g>
<!-- ABL1&#45;&gt;HIPK2 -->
<g id="edge27" class="edge">
<title>ABL1&#45;&gt;HIPK2</title>
<path fill="none" stroke="#33a02c" stroke-width="2.5" d="M396,-829.15C396,-777.4 396,-676.51 396,-617.53"/>
<polygon fill="#33a02c" stroke="#33a02c" stroke-width="2.5" points="399.5,-617.38 396,-607.38 392.5,-617.38 399.5,-617.38"/>
</g>
<!-- SMARCC1 -->
<g id="node27" class="node">
<title>SMARCC1</title>
<ellipse fill="#b2df8a" stroke="#eb5e60" stroke-width="3" cx="502" cy="-571.6" rx="52" ry="52"/>
<text text-anchor="middle" x="502" y="-567.9" font-family="Times,serif" font-size="14.00">SMARCC1</text>
</g>
<!-- AKT1&#45;&gt;SMARCC1 -->
<g id="edge28" class="edge">
<title>AKT1&#45;&gt;SMARCC1</title>
<path fill="none" stroke="#33a02c" stroke-width="2.5" d="M500.23,-828.87C500.56,-781.53 501.16,-693.5 501.58,-633.74"/>
<polygon fill="#33a02c" stroke="#33a02c" stroke-width="2.5" points="505.08,-633.69 501.65,-623.67 498.08,-633.64 505.08,-633.69"/>
</g>
<!-- PHF20 -->
<g id="node28" class="node">
<title>PHF20</title>
<ellipse fill="#b2df8a" stroke="#70bc6b" stroke-width="3" cx="608" cy="-571.6" rx="35.5" ry="35.5"/>
<text text-anchor="middle" x="608" y="-567.9" font-family="Times,serif" font-size="14.00">PHF20</text>
</g>
<!-- AKT1&#45;&gt;PHF20 -->
<g id="edge29" class="edge">
<title>AKT1&#45;&gt;PHF20</title>
<path fill="none" stroke="#e31a1c" stroke-width="2.5" d="M511.56,-830.82C530.94,-778.73 570.03,-673.67 592.03,-614.54"/>
<polygon fill="#e31a1c" stroke="#e31a1c" stroke-width="2.5" points="595.33,-615.7 595.54,-605.11 588.77,-613.26 595.33,-615.7"/>
</g>
<!-- NFKB1 -->
<g id="node29" class="node">
<title>NFKB1</title>
<ellipse fill="#b2df8a" stroke="#70bc6b" stroke-width="3" cx="849" cy="-571.6" rx="38.5" ry="38.5"/>
<text text-anchor="middle" x="849" y="-567.9" font-family="Times,serif" font-size="14.00">NFKB1</text>
</g>
<!-- CHEK1&#45;&gt;NFKB1 -->
<g id="edge30" class="edge">
<title>CHEK1&#45;&gt;NFKB1</title>
<path fill="none" stroke="#e31a1c" stroke-width="2.5" d="M690.54,-828.59C723.38,-775.32 787.66,-671.08 823.43,-613.07"/>
<polygon fill="#e31a1c" stroke="#e31a1c" stroke-width="2.5" points="826.44,-614.86 828.71,-604.51 820.48,-611.19 826.44,-614.86"/>
</g>
<!-- CREBBP&#45;&gt;NFKB1 -->
<g id="edge31" class="edge">
<title>CREBBP&#45;&gt;NFKB1</title>
<path fill="none" stroke="#33a02c" stroke-width="2.5" d="M849,-817.8C849,-764.75 849,-675.96 849,-620.75"/>
<polygon fill="#33a02c" stroke="#33a02c" stroke-width="2.5" points="852.5,-620.51 849,-610.51 845.5,-620.51 852.5,-620.51"/>
</g>
<!-- PRKACA&#45;&gt;NFKB1 -->
<g id="edge32" class="edge">
<title>PRKACA&#45;&gt;NFKB1</title>
<path fill="none" stroke="#33a02c" stroke-width="2.5" d="M1020.87,-823.64C983.43,-768.72 914.74,-668 876.52,-611.94"/>
<polygon fill="#33a02c" stroke="#33a02c" stroke-width="2.5" points="879.4,-609.97 870.88,-603.68 873.62,-613.91 879.4,-609.97"/>
</g>
<!-- NR1H4 -->
<g id="node30" class="node">
<title>NR1H4</title>
<ellipse fill="#b2df8a" stroke="#eb5e60" stroke-width="3" cx="1145.95" cy="-571.6" rx="38.5" ry="38.5"/>
<text text-anchor="middle" x="1145.95" y="-567.9" font-family="Times,serif" font-size="14.00">NR1H4</text>
</g>
<!-- RXRA&#45;&gt;NR1H4 -->
<g id="edge33" class="edge">
<title>RXRA&#45;&gt;NR1H4</title>
<path fill="none" stroke="#33a02c" stroke-width="2.5" d="M1145.95,-826.87C1145.95,-775.37 1145.95,-679.01 1145.95,-620.54"/>
<polygon fill="#33a02c" stroke="#33a02c" stroke-width="2.5" points="1149.45,-620.44 1145.95,-610.44 1142.45,-620.44 1149.45,-620.44"/>
</g>
<!-- FOSB -->
<g id="node31" class="node">
<title>FOSB</title>
<ellipse fill="#b2df8a" stroke="#eb5e60" stroke-width="3" cx="139" cy="-290.81" rx="32.5" ry="32.5"/>
<text text-anchor="middle" x="139" y="-287.11" font-family="Times,serif" font-size="14.00">FOSB</text>
</g>
<!-- CSNK2A1&#45;&gt;FOSB -->
<g id="edge34" class="edge">
<title>CSNK2A1&#45;&gt;FOSB</title>
<path fill="none" stroke="#33a02c" stroke-width="2.5" d="M139,-522.05C139,-468.69 139,-384.66 139,-333.94"/>
<polygon fill="#33a02c" stroke="#33a02c" stroke-width="2.5" points="142.5,-333.64 139,-323.64 135.5,-333.65 142.5,-333.64"/>
</g>
<!-- KMT2A -->
<g id="node32" class="node">
<title>KMT2A</title>
<ellipse fill="#bdbdbd" stroke="#848484" stroke-width="3" cx="306" cy="-290.81" rx="41.5" ry="41.5"/>
<text text-anchor="middle" x="306" y="-287.11" font-family="Times,serif" font-size="14.00">KMT2A</text>
</g>
<!-- ATR&#45;&gt;KMT2A -->
<g id="edge35" class="edge">
<title>ATR&#45;&gt;KMT2A</title>
<path fill="none" stroke="#33a02c" stroke-width="2.5" d="M314.12,-543.91C312.62,-497.31 309.58,-402.51 307.68,-343.08"/>
<polygon fill="#33a02c" stroke="#33a02c" stroke-width="2.5" points="311.17,-342.66 307.35,-332.78 304.17,-342.88 311.17,-342.66"/>
</g>
<!-- MECP2 -->
<g id="node33" class="node">
<title>MECP2</title>
<ellipse fill="#b2df8a" stroke="#70bc6b" stroke-width="3" cx="405" cy="-290.81" rx="39.5" ry="39.5"/>
<text text-anchor="middle" x="405" y="-287.11" font-family="Times,serif" font-size="14.00">MECP2</text>
</g>
<!-- HIPK2&#45;&gt;MECP2 -->
<g id="edge36" class="edge">
<title>HIPK2&#45;&gt;MECP2</title>
<path fill="none" stroke="#33a02c" stroke-width="2.5" d="M397.14,-536.04C398.73,-486.58 401.61,-396.8 403.41,-340.68"/>
<polygon fill="#33a02c" stroke="#33a02c" stroke-width="2.5" points="406.91,-340.71 403.73,-330.61 399.91,-340.49 406.91,-340.71"/>
</g>
<!-- FOXC2 -->
<g id="node34" class="node">
<title>FOXC2</title>
<ellipse fill="#b2df8a" stroke="#70bc6b" stroke-width="3" cx="306" cy="-40.64" rx="38.5" ry="38.5"/>
<text text-anchor="middle" x="306" y="-36.94" font-family="Times,serif" font-size="14.00">FOXC2</text>
</g>
<!-- KMT2A&#45;&gt;FOXC2 -->
<g id="edge37" class="edge">
<title>KMT2A&#45;&gt;FOXC2</title>
<path fill="none" stroke="#33a02c" stroke-width="2.5" d="M306,-249.22C306,-205.3 306,-136.11 306,-89.59"/>
<polygon fill="#33a02c" stroke="#33a02c" stroke-width="2.5" points="309.5,-89.45 306,-79.45 302.5,-89.45 309.5,-89.45"/>
</g>
</g>
</svg>
