<?xml version="1.0" encoding="UTF-8" standalone="no"?>
<!DOCTYPE svg PUBLIC "-//W3C//DTD SVG 1.1//EN"
 "http://www.w3.org/Graphics/SVG/1.1/DTD/svg11.dtd">
<!-- Generated by graphviz version 2.43.0 (0)
 -->
<!-- Pages: 1 -->
<svg width="1313pt" height="1575pt"
 viewBox="0.00 0.00 1313.45 1574.54" xmlns="http://www.w3.org/2000/svg" xmlns:xlink="http://www.w3.org/1999/xlink">
<g id="graph0" class="graph" transform="scale(1 1) rotate(0) translate(4 1570.54)">
<polygon fill="white" stroke="transparent" points="-4,4 -4,-1570.54 1309.45,-1570.54 1309.45,4 -4,4"/>
<!-- EGFR -->
<g id="node1" class="node">
<title>EGFR</title>
<ellipse fill="#a6cee3" stroke="#62a0ca" stroke-width="3" cx="815" cy="-1531.53" rx="33" ry="33"/>
<text text-anchor="middle" x="815" y="-1527.83" font-family="Times,serif" font-size="14.00">EGFR</text>
</g>
<!-- MAP2K1 -->
<g id="node2" class="node">
<title>MAP2K1</title>
<ellipse fill="#bdbdbd" stroke="#848484" stroke-width="3" cx="233" cy="-1256.74" rx="45.5" ry="45.5"/>
<text text-anchor="middle" x="233" y="-1253.04" font-family="Times,serif" font-size="14.00">MAP2K1</text>
</g>
<!-- EGFR&#45;&gt;MAP2K1 -->
<g id="edge1" class="edge">
<title>EGFR&#45;&gt;MAP2K1</title>
<path fill="none" stroke="#3e3e3e" stroke-width="2.5" d="M784.94,-1517.34C690.89,-1472.93 401.54,-1336.31 283.71,-1280.68"/>
<polygon fill="#3e3e3e" stroke="#3e3e3e" stroke-width="2.5" points="285.06,-1277.45 274.53,-1276.34 282.08,-1283.78 285.06,-1277.45"/>
</g>
<!-- ERBB2 -->
<g id="node3" class="node">
<title>ERBB2</title>
<ellipse fill="#bdbdbd" stroke="#848484" stroke-width="3" cx="424" cy="-1256.74" rx="38.5" ry="38.5"/>
<text text-anchor="middle" x="424" y="-1253.04" font-family="Times,serif" font-size="14.00">ERBB2</text>
</g>
<!-- EGFR&#45;&gt;ERBB2 -->
<g id="edge2" class="edge">
<title>EGFR&#45;&gt;ERBB2</title>
<path fill="none" stroke="#3e3e3e" stroke-width="2.5" d="M787.82,-1512.43C720.06,-1464.81 543.42,-1340.66 463.86,-1284.75"/>
<polygon fill="#3e3e3e" stroke="#3e3e3e" stroke-width="2.5" points="465.76,-1281.8 455.56,-1278.92 461.73,-1287.53 465.76,-1281.8"/>
</g>
<!-- PTPN1 -->
<g id="node4" class="node">
<title>PTPN1</title>
<ellipse fill="#bdbdbd" stroke="#848484" stroke-width="3" cx="901" cy="-1256.74" rx="36.5" ry="36.5"/>
<text text-anchor="middle" x="901" y="-1253.04" font-family="Times,serif" font-size="14.00">PTPN1</text>
</g>
<!-- EGFR&#45;&gt;PTPN1 -->
<g id="edge3" class="edge">
<title>EGFR&#45;&gt;PTPN1</title>
<path fill="none" stroke="#3e3e3e" stroke-width="2.5" d="M824.87,-1500.01C840.14,-1451.2 869.57,-1357.17 887.03,-1301.39"/>
<polygon fill="#3e3e3e" stroke="#3e3e3e" stroke-width="2.5" points="890.39,-1302.36 890.04,-1291.77 883.71,-1300.27 890.39,-1302.36"/>
</g>
<!-- PRKDC -->
<g id="node5" class="node">
<title>PRKDC</title>
<ellipse fill="#bdbdbd" stroke="#848484" stroke-width="3" cx="1092.95" cy="-1256.74" rx="40.5" ry="40.5"/>
<text text-anchor="middle" x="1092.95" y="-1253.04" font-family="Times,serif" font-size="14.00">PRKDC</text>
</g>
<!-- EGFR&#45;&gt;PRKDC -->
<g id="edge4" class="edge">
<title>EGFR&#45;&gt;PRKDC</title>
<path fill="none" stroke="#3e3e3e" stroke-width="2.5" d="M838.7,-1508.1C887.32,-1460.03 998.65,-1349.97 1056.51,-1292.76"/>
<polygon fill="#3e3e3e" stroke="#3e3e3e" stroke-width="2.5" points="1059.32,-1294.91 1063.97,-1285.39 1054.4,-1289.93 1059.32,-1294.91"/>
</g>
<!-- PIK3R1 -->
<g id="node6" class="node">
<title>PIK3R1</title>
<ellipse fill="#bdbdbd" stroke="#848484" stroke-width="3" cx="995" cy="-1256.74" rx="39.5" ry="39.5"/>
<text text-anchor="middle" x="995" y="-1253.04" font-family="Times,serif" font-size="14.00">PIK3R1</text>
</g>
<!-- EGFR&#45;&gt;PIK3R1 -->
<g id="edge5" class="edge">
<title>EGFR&#45;&gt;PIK3R1</title>
<path fill="none" stroke="#3e3e3e" stroke-width="2.5" d="M833.09,-1503.93C864.8,-1455.51 930.61,-1355.04 967.83,-1298.23"/>
<polygon fill="#3e3e3e" stroke="#3e3e3e" stroke-width="2.5" points="970.77,-1300.12 973.32,-1289.84 964.92,-1296.28 970.77,-1300.12"/>
</g>
<!-- E2F1 -->
<g id="node7" class="node">
<title>E2F1</title>
<ellipse fill="#bdbdbd" stroke="#848484" stroke-width="3" cx="546" cy="-1256.74" rx="30" ry="30"/>
<text text-anchor="middle" x="546" y="-1253.04" font-family="Times,serif" font-size="14.00">E2F1</text>
</g>
<!-- EGFR&#45;&gt;E2F1 -->
<g id="edge6" class="edge">
<title>EGFR&#45;&gt;E2F1</title>
<path fill="none" stroke="#3e3e3e" stroke-width="2.5" d="M791.6,-1507.63C742.28,-1457.24 627.81,-1340.31 574.4,-1285.75"/>
<polygon fill="#3e3e3e" stroke="#3e3e3e" stroke-width="2.5" points="576.78,-1283.17 567.28,-1278.48 571.78,-1288.07 576.78,-1283.17"/>
</g>
<!-- STAT1 -->
<g id="node8" class="node">
<title>STAT1</title>
<ellipse fill="#bdbdbd" stroke="#848484" stroke-width="3" cx="730" cy="-1256.74" rx="35.5" ry="35.5"/>
<text text-anchor="middle" x="730" y="-1253.04" font-family="Times,serif" font-size="14.00">STAT1</text>
</g>
<!-- EGFR&#45;&gt;STAT1 -->
<g id="edge7" class="edge">
<title>EGFR&#45;&gt;STAT1</title>
<path fill="none" stroke="#3e3e3e" stroke-width="2.5" d="M805.17,-1499.74C789.96,-1450.56 760.69,-1355.93 743.5,-1300.38"/>
<polygon fill="#3e3e3e" stroke="#3e3e3e" stroke-width="2.5" points="746.84,-1299.34 740.55,-1290.82 740.16,-1301.4 746.84,-1299.34"/>
</g>
<!-- PKIA -->
<g id="node9" class="node">
<title>PKIA</title>
<ellipse fill="#bdbdbd" stroke="#848484" stroke-width="3" cx="815" cy="-1256.74" rx="31" ry="31"/>
<text text-anchor="middle" x="815" y="-1253.04" font-family="Times,serif" font-size="14.00">PKIA</text>
</g>
<!-- EGFR&#45;&gt;PKIA -->
<g id="edge8" class="edge">
<title>EGFR&#45;&gt;PKIA</title>
<path fill="none" stroke="#3e3e3e" stroke-width="2.5" d="M815,-1498.39C815,-1448.1 815,-1352.6 815,-1297.93"/>
<polygon fill="#3e3e3e" stroke="#3e3e3e" stroke-width="2.5" points="818.5,-1297.88 815,-1287.88 811.5,-1297.88 818.5,-1297.88"/>
</g>
<!-- ESR1 -->
<g id="node10" class="node">
<title>ESR1</title>
<ellipse fill="#bdbdbd" stroke="#848484" stroke-width="3" cx="1205.95" cy="-1256.74" rx="31" ry="31"/>
<text text-anchor="middle" x="1205.95" y="-1253.04" font-family="Times,serif" font-size="14.00">ESR1</text>
</g>
<!-- EGFR&#45;&gt;ESR1 -->
<g id="edge9" class="edge">
<title>EGFR&#45;&gt;ESR1</title>
<path fill="none" stroke="#3e3e3e" stroke-width="2.5" d="M842.18,-1512.43C911.71,-1463.56 1095.91,-1334.08 1172.17,-1280.49"/>
<polygon fill="#3e3e3e" stroke="#3e3e3e" stroke-width="2.5" points="1174.32,-1283.25 1180.49,-1274.64 1170.29,-1277.52 1174.32,-1283.25"/>
</g>
<!-- MAPK3 -->
<g id="node11" class="node">
<title>MAPK3</title>
<ellipse fill="#bdbdbd" stroke="#848484" stroke-width="3" cx="41" cy="-951.17" rx="41" ry="41"/>
<text text-anchor="middle" x="41" y="-947.47" font-family="Times,serif" font-size="14.00">MAPK3</text>
</g>
<!-- MAP2K1&#45;&gt;MAPK3 -->
<g id="edge10" class="edge">
<title>MAP2K1&#45;&gt;MAPK3</title>
<path fill="none" stroke="#3e3e3e" stroke-width="2.5" d="M208.69,-1218.04C172.89,-1161.06 106.18,-1054.91 68.59,-995.09"/>
<polygon fill="#3e3e3e" stroke="#3e3e3e" stroke-width="2.5" points="71.33,-992.86 63.04,-986.26 65.4,-996.58 71.33,-992.86"/>
</g>
<!-- MAPK1 -->
<g id="node12" class="node">
<title>MAPK1</title>
<ellipse fill="#bdbdbd" stroke="#848484" stroke-width="3" cx="141" cy="-951.17" rx="41" ry="41"/>
<text text-anchor="middle" x="141" y="-947.47" font-family="Times,serif" font-size="14.00">MAPK1</text>
</g>
<!-- MAP2K1&#45;&gt;MAPK1 -->
<g id="edge11" class="edge">
<title>MAP2K1&#45;&gt;MAPK1</title>
<path fill="none" stroke="#3e3e3e" stroke-width="2.5" d="M219.82,-1212.96C202.87,-1156.64 173.5,-1059.1 155.8,-1000.31"/>
<polygon fill="#3e3e3e" stroke="#3e3e3e" stroke-width="2.5" points="159.08,-999.07 152.85,-990.51 152.38,-1001.09 159.08,-999.07"/>
</g>
<!-- GSK3B -->
<g id="node13" class="node">
<title>GSK3B</title>
<ellipse fill="#bdbdbd" stroke="#848484" stroke-width="3" cx="324" cy="-951.17" rx="38.5" ry="38.5"/>
<text text-anchor="middle" x="324" y="-947.47" font-family="Times,serif" font-size="14.00">GSK3B</text>
</g>
<!-- MAP2K1&#45;&gt;GSK3B -->
<g id="edge12" class="edge">
<title>MAP2K1&#45;&gt;GSK3B</title>
<path fill="none" stroke="#3e3e3e" stroke-width="2.5" d="M246.04,-1212.96C263.05,-1155.86 292.67,-1056.39 310.09,-997.89"/>
<polygon fill="#3e3e3e" stroke="#3e3e3e" stroke-width="2.5" points="313.49,-998.74 312.99,-988.16 306.78,-996.74 313.49,-998.74"/>
</g>
<!-- CDK1 -->
<g id="node14" class="node">
<title>CDK1</title>
<ellipse fill="#bdbdbd" stroke="#848484" stroke-width="3" cx="234" cy="-951.17" rx="34" ry="34"/>
<text text-anchor="middle" x="234" y="-947.47" font-family="Times,serif" font-size="14.00">CDK1</text>
</g>
<!-- ERBB2&#45;&gt;CDK1 -->
<g id="edge13" class="edge">
<title>ERBB2&#45;&gt;CDK1</title>
<path fill="none" stroke="#3e3e3e" stroke-width="2.5" d="M403.67,-1224.04C368.18,-1166.95 295.12,-1049.46 257.51,-988.98"/>
<polygon fill="#3e3e3e" stroke="#3e3e3e" stroke-width="2.5" points="260.48,-987.12 252.23,-980.48 254.54,-990.82 260.48,-987.12"/>
</g>
<!-- ABL1 -->
<g id="node15" class="node">
<title>ABL1</title>
<ellipse fill="#bdbdbd" stroke="#848484" stroke-width="3" cx="972" cy="-951.17" rx="32.5" ry="32.5"/>
<text text-anchor="middle" x="972" y="-947.47" font-family="Times,serif" font-size="14.00">ABL1</text>
</g>
<!-- PTPN1&#45;&gt;ABL1 -->
<g id="edge14" class="edge">
<title>PTPN1&#45;&gt;ABL1</title>
<path fill="none" stroke="#3e3e3e" stroke-width="2.5" d="M909.29,-1221.09C922.5,-1164.24 948.27,-1053.31 962.32,-992.87"/>
<polygon fill="#3e3e3e" stroke="#3e3e3e" stroke-width="2.5" points="965.78,-993.44 964.63,-982.91 958.96,-991.86 965.78,-993.44"/>
</g>
<!-- AKT1 -->
<g id="node16" class="node">
<title>AKT1</title>
<ellipse fill="#bdbdbd" stroke="#848484" stroke-width="3" cx="1074.95" cy="-951.17" rx="33" ry="33"/>
<text text-anchor="middle" x="1074.95" y="-947.47" font-family="Times,serif" font-size="14.00">AKT1</text>
</g>
<!-- PRKDC&#45;&gt;AKT1 -->
<g id="edge15" class="edge">
<title>PRKDC&#45;&gt;AKT1</title>
<path fill="none" stroke="#3e3e3e" stroke-width="2.5" d="M1090.56,-1216.16C1087.17,-1158.58 1080.99,-1053.6 1077.51,-994.53"/>
<polygon fill="#3e3e3e" stroke="#3e3e3e" stroke-width="2.5" points="1080.99,-994.19 1076.91,-984.41 1074.01,-994.6 1080.99,-994.19"/>
</g>
<!-- PIK3R1&#45;&gt;AKT1 -->
<g id="edge16" class="edge">
<title>PIK3R1&#45;&gt;AKT1</title>
<path fill="none" stroke="#3e3e3e" stroke-width="2.5" d="M1005.05,-1218.35C1020.11,-1160.77 1048.45,-1052.47 1064.02,-992.96"/>
<polygon fill="#3e3e3e" stroke="#3e3e3e" stroke-width="2.5" points="1067.44,-993.71 1066.59,-983.15 1060.67,-991.93 1067.44,-993.71"/>
</g>
<!-- HIC1 -->
<g id="node17" class="node">
<title>HIC1</title>
<ellipse fill="#b2df8a" stroke="#70bc6b" stroke-width="3" cx="507" cy="-951.17" rx="30.5" ry="30.5"/>
<text text-anchor="middle" x="507" y="-947.47" font-family="Times,serif" font-size="14.00">HIC1</text>
</g>
<!-- E2F1&#45;&gt;HIC1 -->
<g id="edge17" class="edge">
<title>E2F1&#45;&gt;HIC1</title>
<path fill="none" stroke="#3e3e3e" stroke-width="2.5" d="M542.19,-1226.88C535.16,-1171.8 520.15,-1054.15 512.19,-991.84"/>
<polygon fill="#3e3e3e" stroke="#3e3e3e" stroke-width="2.5" points="515.63,-991.08 510.89,-981.6 508.68,-991.96 515.63,-991.08"/>
</g>
<!-- CHEK1 -->
<g id="node18" class="node">
<title>CHEK1</title>
<ellipse fill="#bdbdbd" stroke="#848484" stroke-width="3" cx="419" cy="-951.17" rx="39" ry="39"/>
<text text-anchor="middle" x="419" y="-947.47" font-family="Times,serif" font-size="14.00">CHEK1</text>
</g>
<!-- E2F1&#45;&gt;CHEK1 -->
<g id="edge18" class="edge">
<title>E2F1&#45;&gt;CHEK1</title>
<path fill="none" stroke="#3e3e3e" stroke-width="2.5" d="M534.4,-1228.81C512.44,-1175.98 464.64,-1060.96 437.96,-996.78"/>
<polygon fill="#3e3e3e" stroke="#3e3e3e" stroke-width="2.5" points="441.1,-995.21 434.03,-987.32 434.63,-997.89 441.1,-995.21"/>
</g>
<!-- TP73 -->
<g id="node19" class="node">
<title>TP73</title>
<ellipse fill="#b2df8a" stroke="#70bc6b" stroke-width="3" cx="585" cy="-951.17" rx="30" ry="30"/>
<text text-anchor="middle" x="585" y="-947.47" font-family="Times,serif" font-size="14.00">TP73</text>
</g>
<!-- E2F1&#45;&gt;TP73 -->
<g id="edge19" class="edge">
<title>E2F1&#45;&gt;TP73</title>
<path fill="none" stroke="#3e3e3e" stroke-width="2.5" d="M549.81,-1226.88C556.86,-1171.66 571.94,-1053.54 579.88,-991.36"/>
<polygon fill="#3e3e3e" stroke="#3e3e3e" stroke-width="2.5" points="583.38,-991.51 581.18,-981.15 576.44,-990.63 583.38,-991.51"/>
</g>
<!-- CREBBP -->
<g id="node20" class="node">
<title>CREBBP</title>
<ellipse fill="#bdbdbd" stroke="#848484" stroke-width="3" cx="767" cy="-951.17" rx="44" ry="44"/>
<text text-anchor="middle" x="767" y="-947.47" font-family="Times,serif" font-size="14.00">CREBBP</text>
</g>
<!-- STAT1&#45;&gt;CREBBP -->
<g id="edge20" class="edge">
<title>STAT1&#45;&gt;CREBBP</title>
<path fill="none" stroke="#3e3e3e" stroke-width="2.5" d="M734.28,-1221.39C740.72,-1168.26 752.93,-1067.43 760.48,-1005.09"/>
<polygon fill="#3e3e3e" stroke="#3e3e3e" stroke-width="2.5" points="763.96,-1005.4 761.69,-995.05 757.01,-1004.56 763.96,-1005.4"/>
</g>
<!-- HIF1A -->
<g id="node21" class="node">
<title>HIF1A</title>
<ellipse fill="#b2df8a" stroke="#70bc6b" stroke-width="3" cx="669" cy="-951.17" rx="35.5" ry="35.5"/>
<text text-anchor="middle" x="669" y="-947.47" font-family="Times,serif" font-size="14.00">HIF1A</text>
</g>
<!-- STAT1&#45;&gt;HIF1A -->
<g id="edge21" class="edge">
<title>STAT1&#45;&gt;HIF1A</title>
<path fill="none" stroke="#3e3e3e" stroke-width="2.5" d="M723.01,-1221.69C711.91,-1166.11 690.29,-1057.82 678.04,-996.45"/>
<polygon fill="#3e3e3e" stroke="#3e3e3e" stroke-width="2.5" points="681.4,-995.41 676.01,-986.29 674.54,-996.78 681.4,-995.41"/>
</g>
<!-- PRKACA -->
<g id="node22" class="node">
<title>PRKACA</title>
<ellipse fill="#bdbdbd" stroke="#848484" stroke-width="3" cx="875" cy="-951.17" rx="46" ry="46"/>
<text text-anchor="middle" x="875" y="-947.47" font-family="Times,serif" font-size="14.00">PRKACA</text>
</g>
<!-- PKIA&#45;&gt;PRKACA -->
<g id="edge22" class="edge">
<title>PKIA&#45;&gt;PRKACA</title>
<path fill="none" stroke="#3e3e3e" stroke-width="2.5" d="M821.03,-1226.04C831.12,-1174.68 851.54,-1070.66 864.17,-1006.34"/>
<polygon fill="#3e3e3e" stroke="#3e3e3e" stroke-width="2.5" points="867.64,-1006.86 866.13,-996.37 860.77,-1005.51 867.64,-1006.86"/>
</g>
<!-- RXRA -->
<g id="node23" class="node">
<title>RXRA</title>
<ellipse fill="#bdbdbd" stroke="#848484" stroke-width="3" cx="1236.95" cy="-951.17" rx="35" ry="35"/>
<text text-anchor="middle" x="1236.95" y="-947.47" font-family="Times,serif" font-size="14.00">RXRA</text>
</g>
<!-- ESR1&#45;&gt;RXRA -->
<g id="edge23" class="edge">
<title>ESR1&#45;&gt;RXRA</title>
<path fill="none" stroke="#3e3e3e" stroke-width="2.5" d="M1209.1,-1225.76C1214.59,-1171.57 1225.98,-1059.39 1232.36,-996.48"/>
<polygon fill="#3e3e3e" stroke="#3e3e3e" stroke-width="2.5" points="1235.85,-996.75 1233.38,-986.45 1228.88,-996.04 1235.85,-996.75"/>
</g>
<!-- SP3 -->
<g id="node24" class="node">
<title>SP3</title>
<ellipse fill="#b2df8a" stroke="#70bc6b" stroke-width="3" cx="64" cy="-628.63" rx="24.5" ry="24.5"/>
<text text-anchor="middle" x="64" y="-624.93" font-family="Times,serif" font-size="14.00">SP3</text>
</g>
<!-- MAPK3&#45;&gt;SP3 -->
<g id="edge24" class="edge">
<title>MAPK3&#45;&gt;SP3</title>
<path fill="none" stroke="#3e3e3e" stroke-width="2.5" d="M43.94,-910C48.51,-845.91 57.24,-723.46 61.51,-663.48"/>
<polygon fill="#3e3e3e" stroke="#3e3e3e" stroke-width="2.5" points="65.01,-663.61 62.24,-653.38 58.03,-663.11 65.01,-663.61"/>
</g>
<!-- MAPK1&#45;&gt;SP3 -->
<g id="edge25" class="edge">
<title>MAPK1&#45;&gt;SP3</title>
<path fill="none" stroke="#3e3e3e" stroke-width="2.5" d="M131.41,-910.98C116.12,-846.93 86.5,-722.87 72.16,-662.83"/>
<polygon fill="#3e3e3e" stroke="#3e3e3e" stroke-width="2.5" points="75.48,-661.64 69.75,-652.73 68.67,-663.27 75.48,-661.64"/>
</g>
<!-- CSNK2A1 -->
<g id="node25" class="node">
<title>CSNK2A1</title>
<ellipse fill="#bdbdbd" stroke="#848484" stroke-width="3" cx="202" cy="-628.63" rx="49.5" ry="49.5"/>
<text text-anchor="middle" x="202" y="-624.93" font-family="Times,serif" font-size="14.00">CSNK2A1</text>
</g>
<!-- MAPK1&#45;&gt;CSNK2A1 -->
<g id="edge26" class="edge">
<title>MAPK1&#45;&gt;CSNK2A1</title>
<path fill="none" stroke="#3e3e3e" stroke-width="2.5" d="M148.67,-910.65C159.31,-854.36 178.65,-752.14 190.88,-687.46"/>
<polygon fill="#3e3e3e" stroke="#3e3e3e" stroke-width="2.5" points="194.36,-687.89 192.78,-677.41 187.48,-686.58 194.36,-687.89"/>
</g>
<!-- SFPQ -->
<g id="node26" class="node">
<title>SFPQ</title>
<ellipse fill="#b2df8a" stroke="#70bc6b" stroke-width="3" cx="324" cy="-628.63" rx="32" ry="32"/>
<text text-anchor="middle" x="324" y="-624.93" font-family="Times,serif" font-size="14.00">SFPQ</text>
</g>
<!-- GSK3B&#45;&gt;SFPQ -->
<g id="edge27" class="edge">
<title>GSK3B&#45;&gt;SFPQ</title>
<path fill="none" stroke="#3e3e3e" stroke-width="2.5" d="M324,-912.59C324,-851.76 324,-734.04 324,-670.97"/>
<polygon fill="#3e3e3e" stroke="#3e3e3e" stroke-width="2.5" points="327.5,-670.96 324,-660.96 320.5,-670.96 327.5,-670.96"/>
</g>
<!-- NFKB1 -->
<g id="node27" class="node">
<title>NFKB1</title>
<ellipse fill="#b2df8a" stroke="#70bc6b" stroke-width="3" cx="593" cy="-628.63" rx="38.5" ry="38.5"/>
<text text-anchor="middle" x="593" y="-624.93" font-family="Times,serif" font-size="14.00">NFKB1</text>
</g>
<!-- GSK3B&#45;&gt;NFKB1 -->
<g id="edge28" class="edge">
<title>GSK3B&#45;&gt;NFKB1</title>
<path fill="none" stroke="#3e3e3e" stroke-width="2.5" d="M348.83,-921.41C397.97,-862.48 507.56,-731.08 561.62,-666.27"/>
<polygon fill="#3e3e3e" stroke="#3e3e3e" stroke-width="2.5" points="564.52,-668.25 568.24,-658.33 559.15,-663.77 564.52,-668.25"/>
</g>
<!-- CDK1&#45;&gt;CSNK2A1 -->
<g id="edge29" class="edge">
<title>CDK1&#45;&gt;CSNK2A1</title>
<path fill="none" stroke="#3e3e3e" stroke-width="2.5" d="M230.64,-917.27C225.24,-862.88 214.59,-755.45 207.9,-688.1"/>
<polygon fill="#3e3e3e" stroke="#3e3e3e" stroke-width="2.5" points="211.38,-687.66 206.91,-678.05 204.41,-688.35 211.38,-687.66"/>
</g>
<!-- ATR -->
<g id="node28" class="node">
<title>ATR</title>
<ellipse fill="#bdbdbd" stroke="#848484" stroke-width="3" cx="972" cy="-628.63" rx="27.5" ry="27.5"/>
<text text-anchor="middle" x="972" y="-624.93" font-family="Times,serif" font-size="14.00">ATR</text>
</g>
<!-- ABL1&#45;&gt;ATR -->
<g id="edge30" class="edge">
<title>ABL1&#45;&gt;ATR</title>
<path fill="none" stroke="#3e3e3e" stroke-width="2.5" d="M972,-918.47C972,-858.24 972,-730.13 972,-666.34"/>
<polygon fill="#3e3e3e" stroke="#3e3e3e" stroke-width="2.5" points="975.5,-666.31 972,-656.31 968.5,-666.31 975.5,-666.31"/>
</g>
<!-- HIPK2 -->
<g id="node29" class="node">
<title>HIPK2</title>
<ellipse fill="#bdbdbd" stroke="#848484" stroke-width="3" cx="882" cy="-628.63" rx="35.5" ry="35.5"/>
<text text-anchor="middle" x="882" y="-624.93" font-family="Times,serif" font-size="14.00">HIPK2</text>
</g>
<!-- ABL1&#45;&gt;HIPK2 -->
<g id="edge31" class="edge">
<title>ABL1&#45;&gt;HIPK2</title>
<path fill="none" stroke="#3e3e3e" stroke-width="2.5" d="M963.21,-919.66C947.1,-861.91 912.8,-739.01 894.36,-672.9"/>
<polygon fill="#3e3e3e" stroke="#3e3e3e" stroke-width="2.5" points="897.7,-671.88 891.65,-663.19 890.96,-673.76 897.7,-671.88"/>
</g>
<!-- SMARCC1 -->
<g id="node30" class="node">
<title>SMARCC1</title>
<ellipse fill="#b2df8a" stroke="#70bc6b" stroke-width="3" cx="1158.95" cy="-628.63" rx="52" ry="52"/>
<text text-anchor="middle" x="1158.95" y="-624.93" font-family="Times,serif" font-size="14.00">SMARCC1</text>
</g>
<!-- AKT1&#45;&gt;SMARCC1 -->
<g id="edge32" class="edge">
<title>AKT1&#45;&gt;SMARCC1</title>
<path fill="none" stroke="#3e3e3e" stroke-width="2.5" d="M1083.32,-919.07C1097.28,-865.46 1125.55,-756.89 1143.3,-688.74"/>
<polygon fill="#3e3e3e" stroke="#3e3e3e" stroke-width="2.5" points="1146.71,-689.55 1145.84,-678.99 1139.93,-687.79 1146.71,-689.55"/>
</g>
<!-- PHF20 -->
<g id="node31" class="node">
<title>PHF20</title>
<ellipse fill="#b2df8a" stroke="#70bc6b" stroke-width="3" cx="1052.95" cy="-628.63" rx="35.5" ry="35.5"/>
<text text-anchor="middle" x="1052.95" y="-624.93" font-family="Times,serif" font-size="14.00">PHF20</text>
</g>
<!-- AKT1&#45;&gt;PHF20 -->
<g id="edge33" class="edge">
<title>AKT1&#45;&gt;PHF20</title>
<path fill="none" stroke="#3e3e3e" stroke-width="2.5" d="M1072.7,-918.17C1068.75,-860.26 1060.57,-740.24 1056.07,-674.37"/>
<polygon fill="#3e3e3e" stroke="#3e3e3e" stroke-width="2.5" points="1059.56,-674.02 1055.39,-664.28 1052.57,-674.49 1059.56,-674.02"/>
</g>
<!-- CHEK1&#45;&gt;NFKB1 -->
<g id="edge34" class="edge">
<title>CHEK1&#45;&gt;NFKB1</title>
<path fill="none" stroke="#3e3e3e" stroke-width="2.5" d="M437.63,-916.66C469.55,-857.49 534.64,-736.82 569.59,-672.04"/>
<polygon fill="#3e3e3e" stroke="#3e3e3e" stroke-width="2.5" points="572.85,-673.37 574.52,-662.9 566.69,-670.04 572.85,-673.37"/>
</g>
<!-- CREBBP&#45;&gt;NFKB1 -->
<g id="edge35" class="edge">
<title>CREBBP&#45;&gt;NFKB1</title>
<path fill="none" stroke="#3e3e3e" stroke-width="2.5" d="M746.02,-912.27C713.28,-851.58 650.29,-734.82 616.23,-671.69"/>
<polygon fill="#3e3e3e" stroke="#3e3e3e" stroke-width="2.5" points="619.25,-669.91 611.42,-662.77 613.09,-673.24 619.25,-669.91"/>
</g>
<!-- PRKACA&#45;&gt;NFKB1 -->
<g id="edge36" class="edge">
<title>PRKACA&#45;&gt;NFKB1</title>
<path fill="none" stroke="#3e3e3e" stroke-width="2.5" d="M844.56,-916.35C790.88,-854.96 679.93,-728.05 625.1,-665.34"/>
<polygon fill="#3e3e3e" stroke="#3e3e3e" stroke-width="2.5" points="627.6,-662.89 618.38,-657.66 622.33,-667.49 627.6,-662.89"/>
</g>
<!-- NR1H4 -->
<g id="node32" class="node">
<title>NR1H4</title>
<ellipse fill="#b2df8a" stroke="#70bc6b" stroke-width="3" cx="1266.95" cy="-628.63" rx="38.5" ry="38.5"/>
<text text-anchor="middle" x="1266.95" y="-624.93" font-family="Times,serif" font-size="14.00">NR1H4</text>
</g>
<!-- RXRA&#45;&gt;NR1H4 -->
<g id="edge37" class="edge">
<title>RXRA&#45;&gt;NR1H4</title>
<path fill="none" stroke="#3e3e3e" stroke-width="2.5" d="M1240.22,-916.04C1245.6,-858.23 1256.32,-742.94 1262.43,-677.31"/>
<polygon fill="#3e3e3e" stroke="#3e3e3e" stroke-width="2.5" points="1265.92,-677.5 1263.37,-667.22 1258.95,-676.85 1265.92,-677.5"/>
</g>
<!-- FOSB -->
<g id="node33" class="node">
<title>FOSB</title>
<ellipse fill="#b2df8a" stroke="#70bc6b" stroke-width="3" cx="202" cy="-318.83" rx="32.5" ry="32.5"/>
<text text-anchor="middle" x="202" y="-315.13" font-family="Times,serif" font-size="14.00">FOSB</text>
</g>
<!-- CSNK2A1&#45;&gt;FOSB -->
<g id="edge38" class="edge">
<title>CSNK2A1&#45;&gt;FOSB</title>
<path fill="none" stroke="#3e3e3e" stroke-width="2.5" d="M202,-578.86C202,-518.63 202,-418.27 202,-361.46"/>
<polygon fill="#3e3e3e" stroke="#3e3e3e" stroke-width="2.5" points="205.5,-361.37 202,-351.37 198.5,-361.37 205.5,-361.37"/>
</g>
<!-- KMT2A -->
<g id="node34" class="node">
<title>KMT2A</title>
<ellipse fill="#bdbdbd" stroke="#848484" stroke-width="3" cx="976" cy="-318.83" rx="41.5" ry="41.5"/>
<text text-anchor="middle" x="976" y="-315.13" font-family="Times,serif" font-size="14.00">KMT2A</text>
</g>
<!-- ATR&#45;&gt;KMT2A -->
<g id="edge39" class="edge">
<title>ATR&#45;&gt;KMT2A</title>
<path fill="none" stroke="#3e3e3e" stroke-width="2.5" d="M972.36,-600.87C973.03,-549.06 974.48,-436.92 975.33,-370.71"/>
<polygon fill="#3e3e3e" stroke="#3e3e3e" stroke-width="2.5" points="978.84,-370.54 975.47,-360.5 971.84,-370.45 978.84,-370.54"/>
</g>
<!-- MECP2 -->
<g id="node35" class="node">
<title>MECP2</title>
<ellipse fill="#b2df8a" stroke="#70bc6b" stroke-width="3" cx="877" cy="-318.83" rx="39.5" ry="39.5"/>
<text text-anchor="middle" x="877" y="-315.13" font-family="Times,serif" font-size="14.00">MECP2</text>
</g>
<!-- HIPK2&#45;&gt;MECP2 -->
<g id="edge40" class="edge">
<title>HIPK2&#45;&gt;MECP2</title>
<path fill="none" stroke="#3e3e3e" stroke-width="2.5" d="M881.43,-593.09C880.54,-537.84 878.82,-431.17 877.8,-368.39"/>
<polygon fill="#3e3e3e" stroke="#3e3e3e" stroke-width="2.5" points="881.3,-368.27 877.64,-358.32 874.3,-368.38 881.3,-368.27"/>
</g>
<!-- FOXC2 -->
<g id="node36" class="node">
<title>FOXC2</title>
<ellipse fill="#b2df8a" stroke="#70bc6b" stroke-width="3" cx="976" cy="-40.85" rx="38.5" ry="38.5"/>
<text text-anchor="middle" x="976" y="-37.15" font-family="Times,serif" font-size="14.00">FOXC2</text>
</g>
<!-- KMT2A&#45;&gt;FOXC2 -->
<g id="edge41" class="edge">
<title>KMT2A&#45;&gt;FOXC2</title>
<path fill="none" stroke="#3e3e3e" stroke-width="2.5" d="M976,-277.21C976,-227.09 976,-143.01 976,-89.81"/>
<polygon fill="#3e3e3e" stroke="#3e3e3e" stroke-width="2.5" points="979.5,-89.61 976,-79.61 972.5,-89.61 979.5,-89.61"/>
</g>
</g>
</svg>
