<?xml version="1.0" encoding="UTF-8" standalone="no"?>
<!DOCTYPE svg PUBLIC "-//W3C//DTD SVG 1.1//EN"
 "http://www.w3.org/Graphics/SVG/1.1/DTD/svg11.dtd">
<!-- Generated by graphviz version 2.43.0 (0)
 -->
<!-- Pages: 1 -->
<svg width="857pt" height="1026pt"
 viewBox="0.00 0.00 856.50 1026.21" xmlns="http://www.w3.org/2000/svg" xmlns:xlink="http://www.w3.org/1999/xlink">
<g id="graph0" class="graph" transform="scale(1 1) rotate(0) translate(4 1022.21)">
<polygon fill="white" stroke="transparent" points="-4,4 -4,-1022.21 852.5,-1022.21 852.5,4 -4,4"/>
<!-- EGFR -->
<g id="node1" class="node">
<title>EGFR</title>
<ellipse fill="#a6cee3" stroke="#62a0ca" stroke-width="3" cx="474" cy="-983.11" rx="33" ry="33"/>
<text text-anchor="middle" x="474" y="-979.41" font-family="Times,serif" font-size="14.00">EGFR</text>
</g>
<!-- PRKDC -->
<g id="node2" class="node">
<title>PRKDC</title>
<ellipse fill="#bdbdbd" stroke="#848484" stroke-width="3" cx="250" cy="-768.31" rx="40.5" ry="40.5"/>
<text text-anchor="middle" x="250.01" y="-764.61" font-family="Times,serif" font-size="14.00">PRKDC</text>
</g>
<!-- EGFR&#45;&gt;PRKDC -->
<g id="edge1" class="edge">
<title>EGFR&#45;&gt;PRKDC</title>
<path fill="none" stroke="#33a02c" stroke-width="2.5" d="M450.03,-960.13C410.9,-922.6 333.05,-847.94 286.86,-803.65"/>
<polygon fill="#33a02c" stroke="#33a02c" stroke-width="2.5" points="289.09,-800.94 279.45,-796.54 284.24,-805.99 289.09,-800.94"/>
</g>
<!-- PIK3R1 -->
<g id="node3" class="node">
<title>PIK3R1</title>
<ellipse fill="#bdbdbd" stroke="#848484" stroke-width="3" cx="152.01" cy="-768.31" rx="39.5" ry="39.5"/>
<text text-anchor="middle" x="152.01" y="-764.61" font-family="Times,serif" font-size="14.00">PIK3R1</text>
</g>
<!-- EGFR&#45;&gt;PIK3R1 -->
<g id="edge2" class="edge">
<title>EGFR&#45;&gt;PIK3R1</title>
<path fill="none" stroke="#33a02c" stroke-width="2.5" d="M446.55,-964.8C390.08,-927.13 260.59,-840.74 193.7,-796.12"/>
<polygon fill="#33a02c" stroke="#33a02c" stroke-width="2.5" points="195.34,-793.01 185.08,-790.37 191.46,-798.83 195.34,-793.01"/>
</g>
<!-- E2F1 -->
<g id="node4" class="node">
<title>E2F1</title>
<ellipse fill="#bdbdbd" stroke="#848484" stroke-width="3" cx="338.01" cy="-768.31" rx="30" ry="30"/>
<text text-anchor="middle" x="338.01" y="-764.61" font-family="Times,serif" font-size="14.00">E2F1</text>
</g>
<!-- EGFR&#45;&gt;E2F1 -->
<g id="edge3" class="edge">
<title>EGFR&#45;&gt;E2F1</title>
<path fill="none" stroke="#33a02c" stroke-width="2.5" d="M456.23,-955.03C431.35,-915.75 386.23,-844.48 359.5,-802.26"/>
<polygon fill="#33a02c" stroke="#33a02c" stroke-width="2.5" points="362.4,-800.3 354.09,-793.72 356.49,-804.04 362.4,-800.3"/>
</g>
<!-- STAT1 -->
<g id="node5" class="node">
<title>STAT1</title>
<ellipse fill="#bdbdbd" stroke="#848484" stroke-width="3" cx="580" cy="-539.68" rx="35.5" ry="35.5"/>
<text text-anchor="middle" x="580" y="-535.98" font-family="Times,serif" font-size="14.00">STAT1</text>
</g>
<!-- EGFR&#45;&gt;STAT1 -->
<g id="edge4" class="edge">
<title>EGFR&#45;&gt;STAT1</title>
<path fill="none" stroke="#33a02c" stroke-width="2.5" d="M481.71,-950.87C500.38,-872.76 548.06,-673.32 569.4,-584.05"/>
<polygon fill="#33a02c" stroke="#33a02c" stroke-width="2.5" points="572.82,-584.77 571.75,-574.23 566.02,-583.14 572.82,-584.77"/>
</g>
<!-- PKIA -->
<g id="node6" class="node">
<title>PKIA</title>
<ellipse fill="#bdbdbd" stroke="#848484" stroke-width="3" cx="644" cy="-768.31" rx="31" ry="31"/>
<text text-anchor="middle" x="644" y="-764.61" font-family="Times,serif" font-size="14.00">PKIA</text>
</g>
<!-- EGFR&#45;&gt;PKIA -->
<g id="edge5" class="edge">
<title>EGFR&#45;&gt;PKIA</title>
<path fill="none" stroke="#33a02c" stroke-width="2.5" d="M494.51,-957.2C525.62,-917.89 584.7,-843.25 618.52,-800.5"/>
<polygon fill="#33a02c" stroke="#33a02c" stroke-width="2.5" points="621.27,-802.67 624.74,-792.65 615.79,-798.32 621.27,-802.67"/>
</g>
<!-- JAK1 -->
<g id="node7" class="node">
<title>JAK1</title>
<ellipse fill="#bdbdbd" stroke="#848484" stroke-width="3" cx="564" cy="-768.31" rx="31" ry="31"/>
<text text-anchor="middle" x="564" y="-764.61" font-family="Times,serif" font-size="14.00">JAK1</text>
</g>
<!-- EGFR&#45;&gt;JAK1 -->
<g id="edge6" class="edge">
<title>EGFR&#45;&gt;JAK1</title>
<path fill="none" stroke="#33a02c" stroke-width="2.5" d="M486.9,-952.34C503.04,-913.81 530.69,-847.83 548.12,-806.22"/>
<polygon fill="#33a02c" stroke="#33a02c" stroke-width="2.5" points="551.36,-807.54 552,-796.97 544.9,-804.84 551.36,-807.54"/>
</g>
<!-- PCNA -->
<g id="node8" class="node">
<title>PCNA</title>
<ellipse fill="#bdbdbd" stroke="#848484" stroke-width="3" cx="443" cy="-768.31" rx="34.5" ry="34.5"/>
<text text-anchor="middle" x="443" y="-764.61" font-family="Times,serif" font-size="14.00">PCNA</text>
</g>
<!-- EGFR&#45;&gt;PCNA -->
<g id="edge7" class="edge">
<title>EGFR&#45;&gt;PCNA</title>
<path fill="none" stroke="#33a02c" stroke-width="2.5" d="M469.23,-950.02C463.91,-913.13 455.27,-853.31 449.38,-812.46"/>
<polygon fill="#33a02c" stroke="#33a02c" stroke-width="2.5" points="452.83,-811.9 447.94,-802.5 445.9,-812.9 452.83,-811.9"/>
</g>
<!-- PTPN1 -->
<g id="node9" class="node">
<title>PTPN1</title>
<ellipse fill="#bdbdbd" stroke="#848484" stroke-width="3" cx="730" cy="-768.31" rx="36.5" ry="36.5"/>
<text text-anchor="middle" x="730" y="-764.61" font-family="Times,serif" font-size="14.00">PTPN1</text>
</g>
<!-- EGFR&#45;&gt;PTPN1 -->
<g id="edge8" class="edge">
<title>EGFR&#45;&gt;PTPN1</title>
<path fill="none" stroke="#33a02c" stroke-width="2.5" d="M499.49,-961.73C545.32,-923.27 641.76,-842.35 694.2,-798.35"/>
<polygon fill="#33a02c" stroke="#33a02c" stroke-width="2.5" points="696.51,-800.98 701.92,-791.87 692.01,-795.62 696.51,-800.98"/>
</g>
<!-- AKT1 -->
<g id="node10" class="node">
<title>AKT1</title>
<ellipse fill="#bdbdbd" stroke="#848484" stroke-width="3" cx="156" cy="-539.68" rx="33" ry="33"/>
<text text-anchor="middle" x="156" y="-535.98" font-family="Times,serif" font-size="14.00">AKT1</text>
</g>
<!-- PRKDC&#45;&gt;AKT1 -->
<g id="edge9" class="edge">
<title>PRKDC&#45;&gt;AKT1</title>
<path fill="none" stroke="#33a02c" stroke-width="2.5" d="M234.59,-730.81C217.48,-689.2 189.99,-622.33 172.47,-579.73"/>
<polygon fill="#33a02c" stroke="#33a02c" stroke-width="2.5" points="175.61,-578.15 168.57,-570.23 169.13,-580.81 175.61,-578.15"/>
</g>
<!-- TP53 -->
<g id="node11" class="node">
<title>TP53</title>
<ellipse fill="#bdbdbd" stroke="#848484" stroke-width="3" cx="239" cy="-539.68" rx="30" ry="30"/>
<text text-anchor="middle" x="239.01" y="-535.98" font-family="Times,serif" font-size="14.00">TP53</text>
</g>
<!-- PRKDC&#45;&gt;TP53 -->
<g id="edge10" class="edge">
<title>PRKDC&#45;&gt;TP53</title>
<path fill="none" stroke="#33a02c" stroke-width="2.5" d="M248.05,-727.7C246.04,-685.94 242.93,-621.31 240.93,-579.75"/>
<polygon fill="#33a02c" stroke="#33a02c" stroke-width="2.5" points="244.43,-579.53 240.45,-569.71 237.43,-579.86 244.43,-579.53"/>
</g>
<!-- MDM2 -->
<g id="node12" class="node">
<title>MDM2</title>
<ellipse fill="#bdbdbd" stroke="#848484" stroke-width="3" cx="401.01" cy="-539.68" rx="38.5" ry="38.5"/>
<text text-anchor="middle" x="401.01" y="-535.98" font-family="Times,serif" font-size="14.00">MDM2</text>
</g>
<!-- PRKDC&#45;&gt;MDM2 -->
<g id="edge11" class="edge">
<title>PRKDC&#45;&gt;MDM2</title>
<path fill="none" stroke="#33a02c" stroke-width="2.5" d="M272.61,-734.08C299.76,-692.97 345.25,-624.09 374.16,-580.32"/>
<polygon fill="#33a02c" stroke="#33a02c" stroke-width="2.5" points="377.12,-582.19 379.71,-571.92 371.28,-578.33 377.12,-582.19"/>
</g>
<!-- PIK3R1&#45;&gt;AKT1 -->
<g id="edge12" class="edge">
<title>PIK3R1&#45;&gt;AKT1</title>
<path fill="none" stroke="#33a02c" stroke-width="2.5" d="M152.7,-728.74C153.41,-688.09 154.51,-624.99 155.25,-583.01"/>
<polygon fill="#33a02c" stroke="#33a02c" stroke-width="2.5" points="158.75,-582.88 155.43,-572.82 151.75,-582.76 158.75,-582.88"/>
</g>
<!-- E2F1&#45;&gt;TP53 -->
<g id="edge13" class="edge">
<title>E2F1&#45;&gt;TP53</title>
<path fill="none" stroke="#33a02c" stroke-width="2.5" d="M326.06,-740.73C308.3,-699.7 274.88,-622.52 255.01,-576.64"/>
<polygon fill="#33a02c" stroke="#33a02c" stroke-width="2.5" points="258.17,-575.14 250.99,-567.35 251.75,-577.92 258.17,-575.14"/>
</g>
<!-- HIC1 -->
<g id="node13" class="node">
<title>HIC1</title>
<ellipse fill="#b2df8a" stroke="#eb5e60" stroke-width="3" cx="249" cy="-288.71" rx="30.5" ry="30.5"/>
<text text-anchor="middle" x="249.01" y="-285.01" font-family="Times,serif" font-size="14.00">HIC1</text>
</g>
<!-- E2F1&#45;&gt;HIC1 -->
<g id="edge14" class="edge">
<title>E2F1&#45;&gt;HIC1</title>
<path fill="none" stroke="#33a02c" stroke-width="2.5" d="M332.5,-738.67C317.16,-655.99 273.88,-422.76 256.43,-328.74"/>
<polygon fill="#33a02c" stroke="#33a02c" stroke-width="2.5" points="259.85,-327.96 254.58,-318.77 252.97,-329.24 259.85,-327.96"/>
</g>
<!-- CHEK1 -->
<g id="node14" class="node">
<title>CHEK1</title>
<ellipse fill="#bdbdbd" stroke="#848484" stroke-width="3" cx="341" cy="-288.71" rx="39" ry="39"/>
<text text-anchor="middle" x="341" y="-285.01" font-family="Times,serif" font-size="14.00">CHEK1</text>
</g>
<!-- E2F1&#45;&gt;CHEK1 -->
<g id="edge15" class="edge">
<title>E2F1&#45;&gt;CHEK1</title>
<path fill="none" stroke="#33a02c" stroke-width="2.5" d="M338.19,-738.31C338.7,-657.89 340.08,-436.94 340.7,-337.89"/>
<polygon fill="#33a02c" stroke="#33a02c" stroke-width="2.5" points="344.2,-337.86 340.76,-327.84 337.2,-337.82 344.2,-337.86"/>
</g>
<!-- HIF1A -->
<g id="node15" class="node">
<title>HIF1A</title>
<ellipse fill="#b2df8a" stroke="#70bc6b" stroke-width="3" cx="436" cy="-288.71" rx="35.5" ry="35.5"/>
<text text-anchor="middle" x="436" y="-285.01" font-family="Times,serif" font-size="14.00">HIF1A</text>
</g>
<!-- STAT1&#45;&gt;HIF1A -->
<g id="edge16" class="edge">
<title>STAT1&#45;&gt;HIF1A</title>
<path fill="none" stroke="#e31a1c" stroke-width="2.5" d="M562.2,-508.65C536.13,-463.22 487.57,-378.57 458.88,-328.58"/>
<polygon fill="#e31a1c" stroke="#e31a1c" stroke-width="2.5" points="461.78,-326.6 453.77,-319.67 455.71,-330.08 461.78,-326.6"/>
</g>
<!-- CREBBP -->
<g id="node16" class="node">
<title>CREBBP</title>
<ellipse fill="#bdbdbd" stroke="#848484" stroke-width="3" cx="535" cy="-288.71" rx="44" ry="44"/>
<text text-anchor="middle" x="535" y="-285.01" font-family="Times,serif" font-size="14.00">CREBBP</text>
</g>
<!-- STAT1&#45;&gt;CREBBP -->
<g id="edge17" class="edge">
<title>STAT1&#45;&gt;CREBBP</title>
<path fill="none" stroke="#e31a1c" stroke-width="2.5" d="M573.7,-504.52C566.14,-462.33 553.37,-391.16 544.59,-342.15"/>
<polygon fill="#e31a1c" stroke="#e31a1c" stroke-width="2.5" points="547.99,-341.28 542.78,-332.05 541.1,-342.51 547.99,-341.28"/>
</g>
<!-- PRKACA -->
<g id="node17" class="node">
<title>PRKACA</title>
<ellipse fill="#bdbdbd" stroke="#848484" stroke-width="3" cx="643" cy="-288.71" rx="46" ry="46"/>
<text text-anchor="middle" x="643" y="-285.01" font-family="Times,serif" font-size="14.00">PRKACA</text>
</g>
<!-- PKIA&#45;&gt;PRKACA -->
<g id="edge18" class="edge">
<title>PKIA&#45;&gt;PRKACA</title>
<path fill="none" stroke="#e31a1c" stroke-width="2.5" d="M643.94,-737.21C643.77,-657.84 643.33,-446.88 643.12,-345.14"/>
<polygon fill="#e31a1c" stroke="#e31a1c" stroke-width="2.5" points="646.62,-345.05 643.1,-335.06 639.62,-345.06 646.62,-345.05"/>
</g>
<!-- JAK1&#45;&gt;STAT1 -->
<g id="edge19" class="edge">
<title>JAK1&#45;&gt;STAT1</title>
<path fill="none" stroke="#33a02c" stroke-width="2.5" d="M566.2,-737C568.94,-697.74 573.67,-630.15 576.82,-585.18"/>
<polygon fill="#33a02c" stroke="#33a02c" stroke-width="2.5" points="580.32,-585.33 577.53,-575.11 573.34,-584.84 580.32,-585.33"/>
</g>
<!-- EP300 -->
<g id="node18" class="node">
<title>EP300</title>
<ellipse fill="#bdbdbd" stroke="#848484" stroke-width="3" cx="492" cy="-539.68" rx="34.5" ry="34.5"/>
<text text-anchor="middle" x="492" y="-535.98" font-family="Times,serif" font-size="14.00">EP300</text>
</g>
<!-- PCNA&#45;&gt;EP300 -->
<g id="edge20" class="edge">
<title>PCNA&#45;&gt;EP300</title>
<path fill="none" stroke="#e31a1c" stroke-width="2.5" d="M450.24,-734.57C458.83,-694.47 473.19,-627.45 482.63,-583.4"/>
<polygon fill="#e31a1c" stroke="#e31a1c" stroke-width="2.5" points="486.07,-584.06 484.75,-573.55 479.23,-582.59 486.07,-584.06"/>
</g>
<!-- ABL1 -->
<g id="node19" class="node">
<title>ABL1</title>
<ellipse fill="#bdbdbd" stroke="#848484" stroke-width="3" cx="717" cy="-539.68" rx="32.5" ry="32.5"/>
<text text-anchor="middle" x="717" y="-535.98" font-family="Times,serif" font-size="14.00">ABL1</text>
</g>
<!-- PTPN1&#45;&gt;ABL1 -->
<g id="edge21" class="edge">
<title>PTPN1&#45;&gt;ABL1</title>
<path fill="none" stroke="#e31a1c" stroke-width="2.5" d="M727.93,-731.83C725.62,-691.18 721.89,-625.53 719.44,-582.48"/>
<polygon fill="#e31a1c" stroke="#e31a1c" stroke-width="2.5" points="722.92,-582.11 718.86,-572.32 715.93,-582.51 722.92,-582.11"/>
</g>
<!-- PRKCD -->
<g id="node20" class="node">
<title>PRKCD</title>
<ellipse fill="#bdbdbd" stroke="#848484" stroke-width="3" cx="808" cy="-539.68" rx="40.5" ry="40.5"/>
<text text-anchor="middle" x="808" y="-535.98" font-family="Times,serif" font-size="14.00">PRKCD</text>
</g>
<!-- PTPN1&#45;&gt;PRKCD -->
<g id="edge22" class="edge">
<title>PTPN1&#45;&gt;PRKCD</title>
<path fill="none" stroke="#e31a1c" stroke-width="2.5" d="M741.85,-733.58C755.12,-694.68 776.73,-631.35 791.62,-587.72"/>
<polygon fill="#e31a1c" stroke="#e31a1c" stroke-width="2.5" points="794.96,-588.77 794.87,-578.17 788.33,-586.51 794.96,-588.77"/>
</g>
<!-- SMARCC1 -->
<g id="node21" class="node">
<title>SMARCC1</title>
<ellipse fill="#b2df8a" stroke="#eb5e60" stroke-width="3" cx="52" cy="-288.71" rx="52" ry="52"/>
<text text-anchor="middle" x="52" y="-285.01" font-family="Times,serif" font-size="14.00">SMARCC1</text>
</g>
<!-- AKT1&#45;&gt;SMARCC1 -->
<g id="edge23" class="edge">
<title>AKT1&#45;&gt;SMARCC1</title>
<path fill="none" stroke="#33a02c" stroke-width="2.5" d="M143.25,-508.9C126.54,-468.57 96.89,-397.03 75.93,-346.46"/>
<polygon fill="#33a02c" stroke="#33a02c" stroke-width="2.5" points="79.05,-344.85 71.99,-336.95 72.59,-347.53 79.05,-344.85"/>
</g>
<!-- PHF20 -->
<g id="node22" class="node">
<title>PHF20</title>
<ellipse fill="#b2df8a" stroke="#70bc6b" stroke-width="3" cx="158.01" cy="-288.71" rx="35.5" ry="35.5"/>
<text text-anchor="middle" x="158.01" y="-285.01" font-family="Times,serif" font-size="14.00">PHF20</text>
</g>
<!-- AKT1&#45;&gt;PHF20 -->
<g id="edge24" class="edge">
<title>AKT1&#45;&gt;PHF20</title>
<path fill="none" stroke="#e31a1c" stroke-width="2.5" d="M156.27,-506.61C156.62,-462.5 157.24,-384.19 157.64,-334.44"/>
<polygon fill="#e31a1c" stroke="#e31a1c" stroke-width="2.5" points="161.14,-334.31 157.72,-324.28 154.14,-334.26 161.14,-334.31"/>
</g>
<!-- TP53&#45;&gt;HIC1 -->
<g id="edge25" class="edge">
<title>TP53&#45;&gt;HIC1</title>
<path fill="none" stroke="#33a02c" stroke-width="2.5" d="M240.21,-509.4C242,-464.49 245.36,-380.11 247.37,-329.7"/>
<polygon fill="#33a02c" stroke="#33a02c" stroke-width="2.5" points="250.88,-329.62 247.78,-319.49 243.88,-329.34 250.88,-329.62"/>
</g>
<!-- TP53&#45;&gt;HIF1A -->
<g id="edge26" class="edge">
<title>TP53&#45;&gt;HIF1A</title>
<path fill="none" stroke="#e31a1c" stroke-width="2.5" d="M257.54,-516.07C292.09,-472.05 366.53,-377.22 407.51,-325.01"/>
<polygon fill="#e31a1c" stroke="#e31a1c" stroke-width="2.5" points="410.37,-327.04 413.79,-317.01 404.86,-322.72 410.37,-327.04"/>
</g>
<!-- MDM2&#45;&gt;HIF1A -->
<g id="edge27" class="edge">
<title>MDM2&#45;&gt;HIF1A</title>
<path fill="none" stroke="#e31a1c" stroke-width="2.5" d="M406.36,-501.29C412.62,-456.39 422.98,-382.13 429.64,-334.33"/>
<polygon fill="#e31a1c" stroke="#e31a1c" stroke-width="2.5" points="433.13,-334.64 431.05,-324.26 426.2,-333.68 433.13,-334.64"/>
</g>
<!-- TP73 -->
<g id="node23" class="node">
<title>TP73</title>
<ellipse fill="#b2df8a" stroke="#70bc6b" stroke-width="3" cx="737" cy="-288.71" rx="30" ry="30"/>
<text text-anchor="middle" x="737" y="-285.01" font-family="Times,serif" font-size="14.00">TP73</text>
</g>
<!-- MDM2&#45;&gt;TP73 -->
<g id="edge28" class="edge">
<title>MDM2&#45;&gt;TP73</title>
<path fill="none" stroke="#e31a1c" stroke-width="2.5" d="M432.01,-516.52C495.45,-469.13 639.51,-361.53 704.33,-313.12"/>
<polygon fill="#e31a1c" stroke="#e31a1c" stroke-width="2.5" points="706.65,-315.75 712.57,-306.96 702.46,-310.14 706.65,-315.75"/>
</g>
<!-- NFKB1 -->
<g id="node24" class="node">
<title>NFKB1</title>
<ellipse fill="#b2df8a" stroke="#70bc6b" stroke-width="3" cx="535" cy="-40.94" rx="38.5" ry="38.5"/>
<text text-anchor="middle" x="535" y="-37.24" font-family="Times,serif" font-size="14.00">NFKB1</text>
</g>
<!-- CHEK1&#45;&gt;NFKB1 -->
<g id="edge29" class="edge">
<title>CHEK1&#45;&gt;NFKB1</title>
<path fill="none" stroke="#e31a1c" stroke-width="2.5" d="M365.18,-257.83C400.52,-212.71 466.23,-128.77 504.73,-79.6"/>
<polygon fill="#e31a1c" stroke="#e31a1c" stroke-width="2.5" points="507.72,-81.46 511.13,-71.43 502.21,-77.15 507.72,-81.46"/>
</g>
<!-- CREBBP&#45;&gt;NFKB1 -->
<g id="edge30" class="edge">
<title>CREBBP&#45;&gt;NFKB1</title>
<path fill="none" stroke="#33a02c" stroke-width="2.5" d="M535,-244.7C535,-201.22 535,-134.87 535,-89.78"/>
<polygon fill="#33a02c" stroke="#33a02c" stroke-width="2.5" points="538.51,-89.66 535,-79.66 531.51,-89.66 538.51,-89.66"/>
</g>
<!-- PRKACA&#45;&gt;NFKB1 -->
<g id="edge31" class="edge">
<title>PRKACA&#45;&gt;NFKB1</title>
<path fill="none" stroke="#33a02c" stroke-width="2.5" d="M624.56,-246.4C605.04,-201.63 574.37,-131.26 554.47,-85.61"/>
<polygon fill="#33a02c" stroke="#33a02c" stroke-width="2.5" points="557.6,-84.03 550.4,-76.26 551.19,-86.82 557.6,-84.03"/>
</g>
<!-- EP300&#45;&gt;HIF1A -->
<g id="edge32" class="edge">
<title>EP300&#45;&gt;HIF1A</title>
<path fill="none" stroke="#33a02c" stroke-width="2.5" d="M484.45,-505.83C474.51,-461.27 457,-382.81 445.98,-333.41"/>
<polygon fill="#33a02c" stroke="#33a02c" stroke-width="2.5" points="449.39,-332.63 443.8,-323.63 442.56,-334.16 449.39,-332.63"/>
</g>
<!-- ABL1&#45;&gt;TP73 -->
<g id="edge33" class="edge">
<title>ABL1&#45;&gt;TP73</title>
<path fill="none" stroke="#33a02c" stroke-width="2.5" d="M719.6,-507.12C723.24,-461.44 729.86,-378.35 733.8,-328.88"/>
<polygon fill="#33a02c" stroke="#33a02c" stroke-width="2.5" points="737.3,-329.1 734.6,-318.86 730.32,-328.55 737.3,-329.1"/>
</g>
<!-- PRKCD&#45;&gt;TP73 -->
<g id="edge34" class="edge">
<title>PRKCD&#45;&gt;TP73</title>
<path fill="none" stroke="#33a02c" stroke-width="2.5" d="M796.91,-500.46C783.58,-453.33 761.34,-374.72 748.03,-327.69"/>
<polygon fill="#33a02c" stroke="#33a02c" stroke-width="2.5" points="751.34,-326.54 745.25,-317.87 744.61,-328.45 751.34,-326.54"/>
</g>
</g>
</svg>
