<?xml version="1.0" encoding="UTF-8" standalone="no"?>
<!DOCTYPE svg PUBLIC "-//W3C//DTD SVG 1.1//EN"
 "http://www.w3.org/Graphics/SVG/1.1/DTD/svg11.dtd">
<!-- Generated by graphviz version 2.43.0 (0)
 -->
<!-- Pages: 1 -->
<svg width="1538pt" height="1845pt"
 viewBox="0.00 0.00 1538.45 1844.54" xmlns="http://www.w3.org/2000/svg" xmlns:xlink="http://www.w3.org/1999/xlink">
<g id="graph0" class="graph" transform="scale(1 1) rotate(0) translate(4 1840.54)">
<polygon fill="white" stroke="transparent" points="-4,4 -4,-1840.54 1534.45,-1840.54 1534.45,4 -4,4"/>
<!-- EGFR -->
<g id="node1" class="node">
<title>EGFR</title>
<ellipse fill="#a6cee3" stroke="#62a0ca" stroke-width="3" cx="818" cy="-1800.39" rx="33" ry="33"/>
<text text-anchor="middle" x="818" y="-1796.69" font-family="Times,serif" font-size="14.00">EGFR</text>
</g>
<!-- MAP2K1 -->
<g id="node2" class="node">
<title>MAP2K1</title>
<ellipse fill="#bdbdbd" stroke="#848484" stroke-width="3" cx="190" cy="-972.22" rx="45.5" ry="45.5"/>
<text text-anchor="middle" x="190" y="-968.52" font-family="Times,serif" font-size="14.00">MAP2K1</text>
</g>
<!-- EGFR&#45;&gt;MAP2K1 -->
<g id="edge1" class="edge">
<title>EGFR&#45;&gt;MAP2K1</title>
<path fill="none" stroke="#3e3e3e" stroke-width="2.5" d="M797.82,-1773.78C707.26,-1654.35 337.89,-1167.24 223.76,-1016.74"/>
<polygon fill="#3e3e3e" stroke="#3e3e3e" stroke-width="2.5" points="226.4,-1014.42 217.56,-1008.57 220.82,-1018.65 226.4,-1014.42"/>
</g>
<!-- PRKDC -->
<g id="node3" class="node">
<title>PRKDC</title>
<ellipse fill="#bdbdbd" stroke="#848484" stroke-width="3" cx="1261.95" cy="-1408.22" rx="40.5" ry="40.5"/>
<text text-anchor="middle" x="1261.95" y="-1404.52" font-family="Times,serif" font-size="14.00">PRKDC</text>
</g>
<!-- EGFR&#45;&gt;PRKDC -->
<g id="edge2" class="edge">
<title>EGFR&#45;&gt;PRKDC</title>
<path fill="none" stroke="#3e3e3e" stroke-width="2.5" d="M842.82,-1778.47C916.65,-1713.25 1135.23,-1520.17 1223.92,-1441.82"/>
<polygon fill="#3e3e3e" stroke="#3e3e3e" stroke-width="2.5" points="1226.41,-1444.29 1231.59,-1435.05 1221.77,-1439.04 1226.41,-1444.29"/>
</g>
<!-- PIK3R1 -->
<g id="node4" class="node">
<title>PIK3R1</title>
<ellipse fill="#bdbdbd" stroke="#848484" stroke-width="3" cx="1377.95" cy="-1408.22" rx="39.5" ry="39.5"/>
<text text-anchor="middle" x="1377.95" y="-1404.52" font-family="Times,serif" font-size="14.00">PIK3R1</text>
</g>
<!-- EGFR&#45;&gt;PIK3R1 -->
<g id="edge3" class="edge">
<title>EGFR&#45;&gt;PIK3R1</title>
<path fill="none" stroke="#3e3e3e" stroke-width="2.5" d="M845.39,-1781.21C936.36,-1717.5 1228.79,-1512.69 1337.1,-1436.83"/>
<polygon fill="#3e3e3e" stroke="#3e3e3e" stroke-width="2.5" points="1339.31,-1439.56 1345.49,-1430.96 1335.29,-1433.83 1339.31,-1439.56"/>
</g>
<!-- E2F1 -->
<g id="node5" class="node">
<title>E2F1</title>
<ellipse fill="#bdbdbd" stroke="#848484" stroke-width="3" cx="818" cy="-1408.22" rx="30" ry="30"/>
<text text-anchor="middle" x="818" y="-1404.52" font-family="Times,serif" font-size="14.00">E2F1</text>
</g>
<!-- EGFR&#45;&gt;E2F1 -->
<g id="edge4" class="edge">
<title>EGFR&#45;&gt;E2F1</title>
<path fill="none" stroke="#3e3e3e" stroke-width="2.5" d="M818,-1767.3C818,-1695.69 818,-1526.59 818,-1448.74"/>
<polygon fill="#3e3e3e" stroke="#3e3e3e" stroke-width="2.5" points="821.5,-1448.38 818,-1438.38 814.5,-1448.38 821.5,-1448.38"/>
</g>
<!-- STAT1 -->
<g id="node6" class="node">
<title>STAT1</title>
<ellipse fill="#bdbdbd" stroke="#848484" stroke-width="3" cx="550" cy="-972.22" rx="35.5" ry="35.5"/>
<text text-anchor="middle" x="550" y="-968.52" font-family="Times,serif" font-size="14.00">STAT1</text>
</g>
<!-- EGFR&#45;&gt;STAT1 -->
<g id="edge5" class="edge">
<title>EGFR&#45;&gt;STAT1</title>
<path fill="none" stroke="#3e3e3e" stroke-width="2.5" d="M807.83,-1768.94C766.61,-1641.57 612.02,-1163.87 564.2,-1016.08"/>
<polygon fill="#3e3e3e" stroke="#3e3e3e" stroke-width="2.5" points="567.48,-1014.86 561.07,-1006.42 560.82,-1017.01 567.48,-1014.86"/>
</g>
<!-- PKIA -->
<g id="node7" class="node">
<title>PKIA</title>
<ellipse fill="#bdbdbd" stroke="#848484" stroke-width="3" cx="727" cy="-1408.22" rx="31" ry="31"/>
<text text-anchor="middle" x="727" y="-1404.52" font-family="Times,serif" font-size="14.00">PKIA</text>
</g>
<!-- EGFR&#45;&gt;PKIA -->
<g id="edge6" class="edge">
<title>EGFR&#45;&gt;PKIA</title>
<path fill="none" stroke="#3e3e3e" stroke-width="2.5" d="M810.48,-1767.97C793.93,-1696.66 754.43,-1526.4 736.34,-1448.44"/>
<polygon fill="#3e3e3e" stroke="#3e3e3e" stroke-width="2.5" points="739.7,-1447.46 734.03,-1438.51 732.88,-1449.04 739.7,-1447.46"/>
</g>
<!-- JAK1 -->
<g id="node8" class="node">
<title>JAK1</title>
<ellipse fill="#bdbdbd" stroke="#848484" stroke-width="3" cx="556" cy="-1408.22" rx="31" ry="31"/>
<text text-anchor="middle" x="556" y="-1404.52" font-family="Times,serif" font-size="14.00">JAK1</text>
</g>
<!-- EGFR&#45;&gt;JAK1 -->
<g id="edge7" class="edge">
<title>EGFR&#45;&gt;JAK1</title>
<path fill="none" stroke="#3e3e3e" stroke-width="2.5" d="M799.58,-1772.82C752.92,-1702.98 630.19,-1519.26 578.97,-1442.59"/>
<polygon fill="#3e3e3e" stroke="#3e3e3e" stroke-width="2.5" points="581.84,-1440.59 573.37,-1434.22 576.02,-1444.48 581.84,-1440.59"/>
</g>
<!-- PCNA -->
<g id="node9" class="node">
<title>PCNA</title>
<ellipse fill="#bdbdbd" stroke="#848484" stroke-width="3" cx="436" cy="-1408.22" rx="34.5" ry="34.5"/>
<text text-anchor="middle" x="436" y="-1404.52" font-family="Times,serif" font-size="14.00">PCNA</text>
</g>
<!-- EGFR&#45;&gt;PCNA -->
<g id="edge8" class="edge">
<title>EGFR&#45;&gt;PCNA</title>
<path fill="none" stroke="#3e3e3e" stroke-width="2.5" d="M794.97,-1776.75C729.55,-1709.58 542.53,-1517.58 467.61,-1440.66"/>
<polygon fill="#3e3e3e" stroke="#3e3e3e" stroke-width="2.5" points="469.78,-1437.88 460.29,-1433.16 464.76,-1442.76 469.78,-1437.88"/>
</g>
<!-- PTPN1 -->
<g id="node10" class="node">
<title>PTPN1</title>
<ellipse fill="#bdbdbd" stroke="#848484" stroke-width="3" cx="1130.95" cy="-1408.22" rx="36.5" ry="36.5"/>
<text text-anchor="middle" x="1130.95" y="-1404.52" font-family="Times,serif" font-size="14.00">PTPN1</text>
</g>
<!-- EGFR&#45;&gt;PTPN1 -->
<g id="edge9" class="edge">
<title>EGFR&#45;&gt;PTPN1</title>
<path fill="none" stroke="#3e3e3e" stroke-width="2.5" d="M838.78,-1774.36C892.98,-1706.44 1038.81,-1523.68 1101.57,-1445.04"/>
<polygon fill="#3e3e3e" stroke="#3e3e3e" stroke-width="2.5" points="1104.59,-1446.86 1108.09,-1436.86 1099.12,-1442.5 1104.59,-1446.86"/>
</g>
<!-- ERBB2 -->
<g id="node11" class="node">
<title>ERBB2</title>
<ellipse fill="#bdbdbd" stroke="#848484" stroke-width="3" cx="971" cy="-1408.22" rx="38.5" ry="38.5"/>
<text text-anchor="middle" x="971" y="-1404.52" font-family="Times,serif" font-size="14.00">ERBB2</text>
</g>
<!-- EGFR&#45;&gt;ERBB2 -->
<g id="edge10" class="edge">
<title>EGFR&#45;&gt;ERBB2</title>
<path fill="none" stroke="#3e3e3e" stroke-width="2.5" d="M830.01,-1769.62C856.85,-1700.82 921.82,-1534.28 953.31,-1453.57"/>
<polygon fill="#3e3e3e" stroke="#3e3e3e" stroke-width="2.5" points="956.61,-1454.75 956.98,-1444.16 950.09,-1452.21 956.61,-1454.75"/>
</g>
<!-- ESR1 -->
<g id="node12" class="node">
<title>ESR1</title>
<ellipse fill="#bdbdbd" stroke="#848484" stroke-width="3" cx="1475.95" cy="-1408.22" rx="31" ry="31"/>
<text text-anchor="middle" x="1475.95" y="-1404.52" font-family="Times,serif" font-size="14.00">ESR1</text>
</g>
<!-- EGFR&#45;&gt;ESR1 -->
<g id="edge11" class="edge">
<title>EGFR&#45;&gt;ESR1</title>
<path fill="none" stroke="#3e3e3e" stroke-width="2.5" d="M846.7,-1783.29C952.9,-1719.99 1323.52,-1499.08 1440.38,-1429.43"/>
<polygon fill="#3e3e3e" stroke="#3e3e3e" stroke-width="2.5" points="1442.5,-1432.23 1449.3,-1424.11 1438.92,-1426.22 1442.5,-1432.23"/>
</g>
<!-- MAPK3 -->
<g id="node13" class="node">
<title>MAPK3</title>
<ellipse fill="#bdbdbd" stroke="#848484" stroke-width="3" cx="141" cy="-494.6" rx="41" ry="41"/>
<text text-anchor="middle" x="141" y="-490.9" font-family="Times,serif" font-size="14.00">MAPK3</text>
</g>
<!-- MAP2K1&#45;&gt;MAPK3 -->
<g id="edge12" class="edge">
<title>MAP2K1&#45;&gt;MAPK3</title>
<path fill="none" stroke="#3e3e3e" stroke-width="2.5" d="M185.35,-926.86C176.19,-837.53 155.86,-639.4 146.24,-545.66"/>
<polygon fill="#3e3e3e" stroke="#3e3e3e" stroke-width="2.5" points="149.71,-545.15 145.21,-535.56 142.75,-545.87 149.71,-545.15"/>
</g>
<!-- MAPK1 -->
<g id="node14" class="node">
<title>MAPK1</title>
<ellipse fill="#bdbdbd" stroke="#848484" stroke-width="3" cx="41" cy="-494.6" rx="41" ry="41"/>
<text text-anchor="middle" x="41" y="-490.9" font-family="Times,serif" font-size="14.00">MAPK1</text>
</g>
<!-- MAP2K1&#45;&gt;MAPK1 -->
<g id="edge13" class="edge">
<title>MAP2K1&#45;&gt;MAPK1</title>
<path fill="none" stroke="#3e3e3e" stroke-width="2.5" d="M176.39,-928.57C148.59,-839.47 85.49,-637.22 56.32,-543.71"/>
<polygon fill="#3e3e3e" stroke="#3e3e3e" stroke-width="2.5" points="59.59,-542.43 53.27,-533.93 52.91,-544.52 59.59,-542.43"/>
</g>
<!-- GSK3B -->
<g id="node15" class="node">
<title>GSK3B</title>
<ellipse fill="#bdbdbd" stroke="#848484" stroke-width="3" cx="238" cy="-494.6" rx="38.5" ry="38.5"/>
<text text-anchor="middle" x="238" y="-490.9" font-family="Times,serif" font-size="14.00">GSK3B</text>
</g>
<!-- MAP2K1&#45;&gt;GSK3B -->
<g id="edge14" class="edge">
<title>MAP2K1&#45;&gt;GSK3B</title>
<path fill="none" stroke="#3e3e3e" stroke-width="2.5" d="M194.56,-926.86C203.62,-836.73 223.81,-635.81 233.13,-543.14"/>
<polygon fill="#3e3e3e" stroke="#3e3e3e" stroke-width="2.5" points="236.64,-543.22 234.15,-532.92 229.67,-542.52 236.64,-543.22"/>
</g>
<!-- AKT1 -->
<g id="node16" class="node">
<title>AKT1</title>
<ellipse fill="#bdbdbd" stroke="#848484" stroke-width="3" cx="1399.95" cy="-972.22" rx="33" ry="33"/>
<text text-anchor="middle" x="1399.95" y="-968.52" font-family="Times,serif" font-size="14.00">AKT1</text>
</g>
<!-- PRKDC&#45;&gt;AKT1 -->
<g id="edge15" class="edge">
<title>PRKDC&#45;&gt;AKT1</title>
<path fill="none" stroke="#3e3e3e" stroke-width="2.5" d="M1274.2,-1369.53C1300.09,-1287.72 1360.2,-1097.82 1386.84,-1013.65"/>
<polygon fill="#3e3e3e" stroke="#3e3e3e" stroke-width="2.5" points="1390.24,-1014.52 1389.92,-1003.93 1383.56,-1012.41 1390.24,-1014.52"/>
</g>
<!-- TP53 -->
<g id="node17" class="node">
<title>TP53</title>
<ellipse fill="#bdbdbd" stroke="#848484" stroke-width="3" cx="731" cy="-972.22" rx="30" ry="30"/>
<text text-anchor="middle" x="731" y="-968.52" font-family="Times,serif" font-size="14.00">TP53</text>
</g>
<!-- PRKDC&#45;&gt;TP53 -->
<g id="edge16" class="edge">
<title>PRKDC&#45;&gt;TP53</title>
<path fill="none" stroke="#3e3e3e" stroke-width="2.5" d="M1230.33,-1382.25C1135.85,-1304.66 856.38,-1075.18 762.31,-997.93"/>
<polygon fill="#3e3e3e" stroke="#3e3e3e" stroke-width="2.5" points="764.26,-995 754.31,-991.36 759.82,-1000.41 764.26,-995"/>
</g>
<!-- MDM2 -->
<g id="node18" class="node">
<title>MDM2</title>
<ellipse fill="#bdbdbd" stroke="#848484" stroke-width="3" cx="1310.95" cy="-972.22" rx="38.5" ry="38.5"/>
<text text-anchor="middle" x="1310.95" y="-968.52" font-family="Times,serif" font-size="14.00">MDM2</text>
</g>
<!-- PRKDC&#45;&gt;MDM2 -->
<g id="edge17" class="edge">
<title>PRKDC&#45;&gt;MDM2</title>
<path fill="none" stroke="#3e3e3e" stroke-width="2.5" d="M1266.52,-1367.59C1275.57,-1287.05 1295.76,-1107.43 1305.49,-1020.8"/>
<polygon fill="#3e3e3e" stroke="#3e3e3e" stroke-width="2.5" points="1308.99,-1021.04 1306.63,-1010.71 1302.03,-1020.26 1308.99,-1021.04"/>
</g>
<!-- PIK3R1&#45;&gt;AKT1 -->
<g id="edge18" class="edge">
<title>PIK3R1&#45;&gt;AKT1</title>
<path fill="none" stroke="#3e3e3e" stroke-width="2.5" d="M1379.95,-1368.76C1384.07,-1287.06 1393.51,-1099.97 1397.78,-1015.28"/>
<polygon fill="#3e3e3e" stroke="#3e3e3e" stroke-width="2.5" points="1401.28,-1015.4 1398.29,-1005.23 1394.29,-1015.04 1401.28,-1015.4"/>
</g>
<!-- E2F1&#45;&gt;TP53 -->
<g id="edge19" class="edge">
<title>E2F1&#45;&gt;TP53</title>
<path fill="none" stroke="#3e3e3e" stroke-width="2.5" d="M812.09,-1378.59C796.84,-1302.16 756.15,-1098.26 738.91,-1011.83"/>
<polygon fill="#3e3e3e" stroke="#3e3e3e" stroke-width="2.5" points="742.31,-1011.01 736.92,-1001.89 735.45,-1012.38 742.31,-1011.01"/>
</g>
<!-- HIC1 -->
<g id="node19" class="node">
<title>HIC1</title>
<ellipse fill="#b2df8a" stroke="#70bc6b" stroke-width="3" cx="753" cy="-494.6" rx="30.5" ry="30.5"/>
<text text-anchor="middle" x="753" y="-490.9" font-family="Times,serif" font-size="14.00">HIC1</text>
</g>
<!-- E2F1&#45;&gt;HIC1 -->
<g id="edge20" class="edge">
<title>E2F1&#45;&gt;HIC1</title>
<path fill="none" stroke="#3e3e3e" stroke-width="2.5" d="M815.86,-1378.08C806.22,-1242.64 766.92,-690.16 755.89,-535.19"/>
<polygon fill="#3e3e3e" stroke="#3e3e3e" stroke-width="2.5" points="759.38,-534.87 755.18,-525.15 752.4,-535.37 759.38,-534.87"/>
</g>
<!-- CHEK1 -->
<g id="node20" class="node">
<title>CHEK1</title>
<ellipse fill="#bdbdbd" stroke="#848484" stroke-width="3" cx="818" cy="-972.22" rx="39" ry="39"/>
<text text-anchor="middle" x="818" y="-968.52" font-family="Times,serif" font-size="14.00">CHEK1</text>
</g>
<!-- E2F1&#45;&gt;CHEK1 -->
<g id="edge21" class="edge">
<title>E2F1&#45;&gt;CHEK1</title>
<path fill="none" stroke="#3e3e3e" stroke-width="2.5" d="M818,-1377.91C818,-1303.71 818,-1112.44 818,-1021.57"/>
<polygon fill="#3e3e3e" stroke="#3e3e3e" stroke-width="2.5" points="821.5,-1021.52 818,-1011.52 814.5,-1021.52 821.5,-1021.52"/>
</g>
<!-- CASP3 -->
<g id="node21" class="node">
<title>CASP3</title>
<ellipse fill="#bdbdbd" stroke="#848484" stroke-width="3" cx="912" cy="-972.22" rx="37" ry="37"/>
<text text-anchor="middle" x="912" y="-968.52" font-family="Times,serif" font-size="14.00">CASP3</text>
</g>
<!-- E2F1&#45;&gt;CASP3 -->
<g id="edge22" class="edge">
<title>E2F1&#45;&gt;CASP3</title>
<path fill="none" stroke="#3e3e3e" stroke-width="2.5" d="M824.39,-1378.59C840.47,-1304.04 882.69,-1108.19 902.05,-1018.4"/>
<polygon fill="#3e3e3e" stroke="#3e3e3e" stroke-width="2.5" points="905.5,-1019.02 904.18,-1008.5 898.65,-1017.54 905.5,-1019.02"/>
</g>
<!-- TP73 -->
<g id="node22" class="node">
<title>TP73</title>
<ellipse fill="#b2df8a" stroke="#70bc6b" stroke-width="3" cx="1007.95" cy="-494.6" rx="30" ry="30"/>
<text text-anchor="middle" x="1007.95" y="-490.9" font-family="Times,serif" font-size="14.00">TP73</text>
</g>
<!-- E2F1&#45;&gt;TP73 -->
<g id="edge23" class="edge">
<title>E2F1&#45;&gt;TP73</title>
<path fill="none" stroke="#3e3e3e" stroke-width="2.5" d="M824.16,-1378.6C852.19,-1243.78 967.73,-688.09 999.71,-534.24"/>
<polygon fill="#3e3e3e" stroke="#3e3e3e" stroke-width="2.5" points="1003.17,-534.79 1001.78,-524.28 996.32,-533.36 1003.17,-534.79"/>
</g>
<!-- HIF1A -->
<g id="node23" class="node">
<title>HIF1A</title>
<ellipse fill="#b2df8a" stroke="#70bc6b" stroke-width="3" cx="391" cy="-42.18" rx="35.5" ry="35.5"/>
<text text-anchor="middle" x="391" y="-38.48" font-family="Times,serif" font-size="14.00">HIF1A</text>
</g>
<!-- STAT1&#45;&gt;HIF1A -->
<g id="edge24" class="edge">
<title>STAT1&#45;&gt;HIF1A</title>
<path fill="none" stroke="#3e3e3e" stroke-width="2.5" d="M544.01,-937.18C519.44,-793.47 426.4,-249.2 398.78,-87.65"/>
<polygon fill="#3e3e3e" stroke="#3e3e3e" stroke-width="2.5" points="402.19,-86.84 397.06,-77.57 395.29,-88.02 402.19,-86.84"/>
</g>
<!-- CREBBP -->
<g id="node24" class="node">
<title>CREBBP</title>
<ellipse fill="#bdbdbd" stroke="#848484" stroke-width="3" cx="550" cy="-494.6" rx="44" ry="44"/>
<text text-anchor="middle" x="550" y="-490.9" font-family="Times,serif" font-size="14.00">CREBBP</text>
</g>
<!-- STAT1&#45;&gt;CREBBP -->
<g id="edge25" class="edge">
<title>STAT1&#45;&gt;CREBBP</title>
<path fill="none" stroke="#3e3e3e" stroke-width="2.5" d="M550,-936.71C550,-853.92 550,-647.65 550,-548.93"/>
<polygon fill="#3e3e3e" stroke="#3e3e3e" stroke-width="2.5" points="553.5,-548.86 550,-538.86 546.5,-548.86 553.5,-548.86"/>
</g>
<!-- ARNT -->
<g id="node25" class="node">
<title>ARNT</title>
<ellipse fill="#bdbdbd" stroke="#848484" stroke-width="3" cx="453" cy="-494.6" rx="34.5" ry="34.5"/>
<text text-anchor="middle" x="453" y="-490.9" font-family="Times,serif" font-size="14.00">ARNT</text>
</g>
<!-- STAT1&#45;&gt;ARNT -->
<g id="edge26" class="edge">
<title>STAT1&#45;&gt;ARNT</title>
<path fill="none" stroke="#3e3e3e" stroke-width="2.5" d="M542.87,-937.1C525.5,-851.55 481.01,-632.51 461.92,-538.52"/>
<polygon fill="#3e3e3e" stroke="#3e3e3e" stroke-width="2.5" points="465.31,-537.59 459.89,-528.49 458.45,-538.99 465.31,-537.59"/>
</g>
<!-- PRKACA -->
<g id="node26" class="node">
<title>PRKACA</title>
<ellipse fill="#bdbdbd" stroke="#848484" stroke-width="3" cx="658" cy="-494.6" rx="46" ry="46"/>
<text text-anchor="middle" x="658" y="-490.9" font-family="Times,serif" font-size="14.00">PRKACA</text>
</g>
<!-- PKIA&#45;&gt;PRKACA -->
<g id="edge27" class="edge">
<title>PKIA&#45;&gt;PRKACA</title>
<path fill="none" stroke="#3e3e3e" stroke-width="2.5" d="M724.67,-1377.3C714.66,-1244.8 675.32,-723.91 662.25,-550.84"/>
<polygon fill="#3e3e3e" stroke="#3e3e3e" stroke-width="2.5" points="665.73,-550.39 661.48,-540.68 658.75,-550.91 665.73,-550.39"/>
</g>
<!-- JAK1&#45;&gt;STAT1 -->
<g id="edge28" class="edge">
<title>JAK1&#45;&gt;STAT1</title>
<path fill="none" stroke="#3e3e3e" stroke-width="2.5" d="M555.58,-1377.21C554.54,-1301.52 551.86,-1106.98 550.63,-1017.95"/>
<polygon fill="#3e3e3e" stroke="#3e3e3e" stroke-width="2.5" points="554.13,-1017.83 550.49,-1007.88 547.13,-1017.93 554.13,-1017.83"/>
</g>
<!-- EP300 -->
<g id="node27" class="node">
<title>EP300</title>
<ellipse fill="#bdbdbd" stroke="#848484" stroke-width="3" cx="329" cy="-494.6" rx="34.5" ry="34.5"/>
<text text-anchor="middle" x="329" y="-490.9" font-family="Times,serif" font-size="14.00">EP300</text>
</g>
<!-- PCNA&#45;&gt;EP300 -->
<g id="edge29" class="edge">
<title>PCNA&#45;&gt;EP300</title>
<path fill="none" stroke="#3e3e3e" stroke-width="2.5" d="M431.97,-1373.8C415.44,-1232.6 352.81,-697.84 334.23,-539.21"/>
<polygon fill="#3e3e3e" stroke="#3e3e3e" stroke-width="2.5" points="337.66,-538.41 333.02,-528.88 330.71,-539.22 337.66,-538.41"/>
</g>
<!-- ABL1 -->
<g id="node28" class="node">
<title>ABL1</title>
<ellipse fill="#bdbdbd" stroke="#848484" stroke-width="3" cx="1221.95" cy="-972.22" rx="32.5" ry="32.5"/>
<text text-anchor="middle" x="1221.95" y="-968.52" font-family="Times,serif" font-size="14.00">ABL1</text>
</g>
<!-- PTPN1&#45;&gt;ABL1 -->
<g id="edge30" class="edge">
<title>PTPN1&#45;&gt;ABL1</title>
<path fill="none" stroke="#3e3e3e" stroke-width="2.5" d="M1138.48,-1372.17C1155.21,-1291.98 1195.44,-1099.24 1213.24,-1013.99"/>
<polygon fill="#3e3e3e" stroke="#3e3e3e" stroke-width="2.5" points="1216.68,-1014.64 1215.29,-1004.14 1209.82,-1013.21 1216.68,-1014.64"/>
</g>
<!-- PRKCD -->
<g id="node29" class="node">
<title>PRKCD</title>
<ellipse fill="#bdbdbd" stroke="#848484" stroke-width="3" cx="1130.95" cy="-972.22" rx="40.5" ry="40.5"/>
<text text-anchor="middle" x="1130.95" y="-968.52" font-family="Times,serif" font-size="14.00">PRKCD</text>
</g>
<!-- PTPN1&#45;&gt;PRKCD -->
<g id="edge31" class="edge">
<title>PTPN1&#45;&gt;PRKCD</title>
<path fill="none" stroke="#3e3e3e" stroke-width="2.5" d="M1130.95,-1371.42C1130.95,-1293.52 1130.95,-1111.8 1130.95,-1022.96"/>
<polygon fill="#3e3e3e" stroke="#3e3e3e" stroke-width="2.5" points="1134.45,-1022.85 1130.95,-1012.85 1127.45,-1022.85 1134.45,-1022.85"/>
</g>
<!-- CDK1 -->
<g id="node30" class="node">
<title>CDK1</title>
<ellipse fill="#bdbdbd" stroke="#848484" stroke-width="3" cx="1038.95" cy="-972.22" rx="34" ry="34"/>
<text text-anchor="middle" x="1038.95" y="-968.52" font-family="Times,serif" font-size="14.00">CDK1</text>
</g>
<!-- ERBB2&#45;&gt;CDK1 -->
<g id="edge32" class="edge">
<title>ERBB2&#45;&gt;CDK1</title>
<path fill="none" stroke="#3e3e3e" stroke-width="2.5" d="M976.97,-1369.91C989.58,-1289.04 1018.83,-1101.34 1032.14,-1015.94"/>
<polygon fill="#3e3e3e" stroke="#3e3e3e" stroke-width="2.5" points="1035.6,-1016.46 1033.68,-1006.04 1028.68,-1015.39 1035.6,-1016.46"/>
</g>
<!-- RXRA -->
<g id="node31" class="node">
<title>RXRA</title>
<ellipse fill="#bdbdbd" stroke="#848484" stroke-width="3" cx="1488.95" cy="-972.22" rx="35" ry="35"/>
<text text-anchor="middle" x="1488.95" y="-968.52" font-family="Times,serif" font-size="14.00">RXRA</text>
</g>
<!-- ESR1&#45;&gt;RXRA -->
<g id="edge33" class="edge">
<title>ESR1&#45;&gt;RXRA</title>
<path fill="none" stroke="#3e3e3e" stroke-width="2.5" d="M1476.88,-1377.21C1479.14,-1301.33 1484.96,-1106.02 1487.61,-1017.29"/>
<polygon fill="#3e3e3e" stroke="#3e3e3e" stroke-width="2.5" points="1491.11,-1017.36 1487.91,-1007.26 1484.11,-1017.15 1491.11,-1017.36"/>
</g>
<!-- MAPK3&#45;&gt;HIF1A -->
<g id="edge34" class="edge">
<title>MAPK3&#45;&gt;HIF1A</title>
<path fill="none" stroke="#3e3e3e" stroke-width="2.5" d="M161.04,-458.34C207.2,-374.8 320.76,-169.29 368.88,-82.21"/>
<polygon fill="#3e3e3e" stroke="#3e3e3e" stroke-width="2.5" points="371.97,-83.86 373.74,-73.42 365.84,-80.48 371.97,-83.86"/>
</g>
<!-- SP3 -->
<g id="node32" class="node">
<title>SP3</title>
<ellipse fill="#b2df8a" stroke="#70bc6b" stroke-width="3" cx="91" cy="-42.18" rx="24.5" ry="24.5"/>
<text text-anchor="middle" x="91" y="-38.48" font-family="Times,serif" font-size="14.00">SP3</text>
</g>
<!-- MAPK3&#45;&gt;SP3 -->
<g id="edge35" class="edge">
<title>MAPK3&#45;&gt;SP3</title>
<path fill="none" stroke="#3e3e3e" stroke-width="2.5" d="M136.48,-453.65C126.72,-365.4 103.87,-158.64 94.8,-76.6"/>
<polygon fill="#3e3e3e" stroke="#3e3e3e" stroke-width="2.5" points="98.27,-76.11 93.69,-66.55 91.31,-76.87 98.27,-76.11"/>
</g>
<!-- MAPK1&#45;&gt;HIF1A -->
<g id="edge36" class="edge">
<title>MAPK1&#45;&gt;HIF1A</title>
<path fill="none" stroke="#3e3e3e" stroke-width="2.5" d="M66.17,-462.06C129.73,-379.91 296.36,-164.51 362.94,-78.46"/>
<polygon fill="#3e3e3e" stroke="#3e3e3e" stroke-width="2.5" points="365.9,-80.35 369.25,-70.3 360.36,-76.07 365.9,-80.35"/>
</g>
<!-- MAPK1&#45;&gt;SP3 -->
<g id="edge37" class="edge">
<title>MAPK1&#45;&gt;SP3</title>
<path fill="none" stroke="#3e3e3e" stroke-width="2.5" d="M45.53,-453.65C55.28,-365.4 78.13,-158.64 87.2,-76.6"/>
<polygon fill="#3e3e3e" stroke="#3e3e3e" stroke-width="2.5" points="90.69,-76.87 88.31,-66.55 83.73,-76.11 90.69,-76.87"/>
</g>
<!-- SFPQ -->
<g id="node33" class="node">
<title>SFPQ</title>
<ellipse fill="#b2df8a" stroke="#70bc6b" stroke-width="3" cx="238" cy="-42.18" rx="32" ry="32"/>
<text text-anchor="middle" x="238" y="-38.48" font-family="Times,serif" font-size="14.00">SFPQ</text>
</g>
<!-- GSK3B&#45;&gt;SFPQ -->
<g id="edge38" class="edge">
<title>GSK3B&#45;&gt;SFPQ</title>
<path fill="none" stroke="#3e3e3e" stroke-width="2.5" d="M238,-456.03C238,-371.73 238,-171.67 238,-84.26"/>
<polygon fill="#3e3e3e" stroke="#3e3e3e" stroke-width="2.5" points="241.5,-84.18 238,-74.18 234.5,-84.18 241.5,-84.18"/>
</g>
<!-- NFKB1 -->
<g id="node34" class="node">
<title>NFKB1</title>
<ellipse fill="#b2df8a" stroke="#70bc6b" stroke-width="3" cx="604" cy="-42.18" rx="38.5" ry="38.5"/>
<text text-anchor="middle" x="604" y="-38.48" font-family="Times,serif" font-size="14.00">NFKB1</text>
</g>
<!-- GSK3B&#45;&gt;NFKB1 -->
<g id="edge39" class="edge">
<title>GSK3B&#45;&gt;NFKB1</title>
<path fill="none" stroke="#3e3e3e" stroke-width="2.5" d="M262.3,-464.57C326.79,-384.86 502.17,-168.06 573.36,-80.06"/>
<polygon fill="#3e3e3e" stroke="#3e3e3e" stroke-width="2.5" points="576.15,-82.18 579.71,-72.2 570.7,-77.77 576.15,-82.18"/>
</g>
<!-- SMARCC1 -->
<g id="node35" class="node">
<title>SMARCC1</title>
<ellipse fill="#b2df8a" stroke="#70bc6b" stroke-width="3" cx="1293.95" cy="-494.6" rx="52" ry="52"/>
<text text-anchor="middle" x="1293.95" y="-490.9" font-family="Times,serif" font-size="14.00">SMARCC1</text>
</g>
<!-- AKT1&#45;&gt;SMARCC1 -->
<g id="edge40" class="edge">
<title>AKT1&#45;&gt;SMARCC1</title>
<path fill="none" stroke="#3e3e3e" stroke-width="2.5" d="M1392.75,-939.77C1375.23,-860.83 1330.17,-657.77 1307.46,-555.45"/>
<polygon fill="#3e3e3e" stroke="#3e3e3e" stroke-width="2.5" points="1310.85,-554.58 1305.27,-545.57 1304.02,-556.09 1310.85,-554.58"/>
</g>
<!-- PHF20 -->
<g id="node36" class="node">
<title>PHF20</title>
<ellipse fill="#b2df8a" stroke="#70bc6b" stroke-width="3" cx="1399.95" cy="-494.6" rx="35.5" ry="35.5"/>
<text text-anchor="middle" x="1399.95" y="-490.9" font-family="Times,serif" font-size="14.00">PHF20</text>
</g>
<!-- AKT1&#45;&gt;PHF20 -->
<g id="edge41" class="edge">
<title>AKT1&#45;&gt;PHF20</title>
<path fill="none" stroke="#3e3e3e" stroke-width="2.5" d="M1399.95,-939.02C1399.95,-855.42 1399.95,-636.11 1399.95,-540.39"/>
<polygon fill="#3e3e3e" stroke="#3e3e3e" stroke-width="2.5" points="1403.45,-540.16 1399.95,-530.16 1396.45,-540.16 1403.45,-540.16"/>
</g>
<!-- TP53&#45;&gt;HIC1 -->
<g id="edge42" class="edge">
<title>TP53&#45;&gt;HIC1</title>
<path fill="none" stroke="#3e3e3e" stroke-width="2.5" d="M732.4,-941.98C736.2,-859.35 746.78,-629.66 751.12,-535.58"/>
<polygon fill="#3e3e3e" stroke="#3e3e3e" stroke-width="2.5" points="754.62,-535.48 751.59,-525.33 747.63,-535.15 754.62,-535.48"/>
</g>
<!-- TP53&#45;&gt;TP73 -->
<g id="edge43" class="edge">
<title>TP53&#45;&gt;TP73</title>
<path fill="none" stroke="#3e3e3e" stroke-width="2.5" d="M746.09,-946.21C792.74,-865.75 934.72,-620.91 987.72,-529.51"/>
<polygon fill="#3e3e3e" stroke="#3e3e3e" stroke-width="2.5" points="990.87,-531.05 992.85,-520.64 984.81,-527.54 990.87,-531.05"/>
</g>
<!-- TP53&#45;&gt;HIF1A -->
<g id="edge44" class="edge">
<title>TP53&#45;&gt;HIF1A</title>
<path fill="none" stroke="#3e3e3e" stroke-width="2.5" d="M720.64,-943.88C671.97,-810.74 465.93,-247.14 406.88,-85.61"/>
<polygon fill="#3e3e3e" stroke="#3e3e3e" stroke-width="2.5" points="410.09,-84.19 403.37,-76 403.51,-86.59 410.09,-84.19"/>
</g>
<!-- MDM2&#45;&gt;TP73 -->
<g id="edge45" class="edge">
<title>MDM2&#45;&gt;TP73</title>
<path fill="none" stroke="#3e3e3e" stroke-width="2.5" d="M1290.13,-939.4C1235,-852.49 1085.65,-617.08 1029.6,-528.72"/>
<polygon fill="#3e3e3e" stroke="#3e3e3e" stroke-width="2.5" points="1032.47,-526.72 1024.16,-520.15 1026.56,-530.47 1032.47,-526.72"/>
</g>
<!-- MDM2&#45;&gt;HIF1A -->
<g id="edge46" class="edge">
<title>MDM2&#45;&gt;HIF1A</title>
<path fill="none" stroke="#3e3e3e" stroke-width="2.5" d="M1283.67,-944.64C1150.37,-809.88 568.18,-221.3 423.59,-75.12"/>
<polygon fill="#3e3e3e" stroke="#3e3e3e" stroke-width="2.5" points="425.78,-72.36 416.26,-67.71 420.8,-77.28 425.78,-72.36"/>
</g>
<!-- CHEK1&#45;&gt;TP73 -->
<g id="edge47" class="edge">
<title>CHEK1&#45;&gt;TP73</title>
<path fill="none" stroke="#3e3e3e" stroke-width="2.5" d="M832.44,-935.93C867.61,-847.49 957.48,-621.53 993.09,-531.97"/>
<polygon fill="#3e3e3e" stroke="#3e3e3e" stroke-width="2.5" points="996.42,-533.08 996.86,-522.49 989.91,-530.49 996.42,-533.08"/>
</g>
<!-- CHEK1&#45;&gt;NFKB1 -->
<g id="edge48" class="edge">
<title>CHEK1&#45;&gt;NFKB1</title>
<path fill="none" stroke="#3e3e3e" stroke-width="2.5" d="M809.22,-934.03C775.26,-786.44 652.64,-253.53 615.04,-90.14"/>
<polygon fill="#3e3e3e" stroke="#3e3e3e" stroke-width="2.5" points="618.34,-88.88 612.69,-79.92 611.52,-90.45 618.34,-88.88"/>
</g>
<!-- CASP3&#45;&gt;TP73 -->
<g id="edge49" class="edge">
<title>CASP3&#45;&gt;TP73</title>
<path fill="none" stroke="#3e3e3e" stroke-width="2.5" d="M919.29,-935.93C936.92,-848.21 981.72,-625.19 1000,-534.18"/>
<polygon fill="#3e3e3e" stroke="#3e3e3e" stroke-width="2.5" points="1003.46,-534.76 1001.99,-524.27 996.59,-533.38 1003.46,-534.76"/>
</g>
<!-- CREBBP&#45;&gt;NFKB1 -->
<g id="edge50" class="edge">
<title>CREBBP&#45;&gt;NFKB1</title>
<path fill="none" stroke="#3e3e3e" stroke-width="2.5" d="M555.23,-450.81C565.38,-365.8 587.67,-179.04 598.23,-90.53"/>
<polygon fill="#3e3e3e" stroke="#3e3e3e" stroke-width="2.5" points="601.72,-90.83 599.43,-80.49 594.77,-90 601.72,-90.83"/>
</g>
<!-- ARNT&#45;&gt;HIF1A -->
<g id="edge51" class="edge">
<title>ARNT&#45;&gt;HIF1A</title>
<path fill="none" stroke="#3e3e3e" stroke-width="2.5" d="M448.29,-460.22C437.23,-379.51 409.6,-177.88 397.2,-87.39"/>
<polygon fill="#3e3e3e" stroke="#3e3e3e" stroke-width="2.5" points="400.66,-86.86 395.84,-77.43 393.73,-87.82 400.66,-86.86"/>
</g>
<!-- PRKACA&#45;&gt;NFKB1 -->
<g id="edge52" class="edge">
<title>PRKACA&#45;&gt;NFKB1</title>
<path fill="none" stroke="#3e3e3e" stroke-width="2.5" d="M652.53,-448.73C642.28,-362.83 620.27,-178.49 609.79,-90.65"/>
<polygon fill="#3e3e3e" stroke="#3e3e3e" stroke-width="2.5" points="613.26,-90.2 608.6,-80.68 606.31,-91.03 613.26,-90.2"/>
</g>
<!-- EP300&#45;&gt;HIF1A -->
<g id="edge53" class="edge">
<title>EP300&#45;&gt;HIF1A</title>
<path fill="none" stroke="#3e3e3e" stroke-width="2.5" d="M333.71,-460.22C344.78,-379.51 372.41,-177.88 384.81,-87.39"/>
<polygon fill="#3e3e3e" stroke="#3e3e3e" stroke-width="2.5" points="388.28,-87.82 386.17,-77.43 381.35,-86.86 388.28,-87.82"/>
</g>
<!-- ABL1&#45;&gt;TP73 -->
<g id="edge54" class="edge">
<title>ABL1&#45;&gt;TP73</title>
<path fill="none" stroke="#3e3e3e" stroke-width="2.5" d="M1208.57,-942.35C1171.1,-858.71 1065.23,-622.44 1024.35,-531.19"/>
<polygon fill="#3e3e3e" stroke="#3e3e3e" stroke-width="2.5" points="1027.54,-529.76 1020.26,-522.06 1021.15,-532.62 1027.54,-529.76"/>
</g>
<!-- PRKCD&#45;&gt;TP73 -->
<g id="edge55" class="edge">
<title>PRKCD&#45;&gt;TP73</title>
<path fill="none" stroke="#3e3e3e" stroke-width="2.5" d="M1120.78,-932.73C1097.59,-842.67 1041.01,-622.97 1017.97,-533.49"/>
<polygon fill="#3e3e3e" stroke="#3e3e3e" stroke-width="2.5" points="1021.34,-532.55 1015.46,-523.74 1014.56,-534.3 1021.34,-532.55"/>
</g>
<!-- CDK1&#45;&gt;TP73 -->
<g id="edge56" class="edge">
<title>CDK1&#45;&gt;TP73</title>
<path fill="none" stroke="#3e3e3e" stroke-width="2.5" d="M1036.75,-938.26C1031.18,-852.38 1016.54,-626.86 1010.56,-534.71"/>
<polygon fill="#3e3e3e" stroke="#3e3e3e" stroke-width="2.5" points="1014.05,-534.41 1009.91,-524.66 1007.06,-534.87 1014.05,-534.41"/>
</g>
<!-- NR1H4 -->
<g id="node37" class="node">
<title>NR1H4</title>
<ellipse fill="#b2df8a" stroke="#70bc6b" stroke-width="3" cx="1491.95" cy="-494.6" rx="38.5" ry="38.5"/>
<text text-anchor="middle" x="1491.95" y="-490.9" font-family="Times,serif" font-size="14.00">NR1H4</text>
</g>
<!-- RXRA&#45;&gt;NR1H4 -->
<g id="edge57" class="edge">
<title>RXRA&#45;&gt;NR1H4</title>
<path fill="none" stroke="#3e3e3e" stroke-width="2.5" d="M1489.17,-937.1C1489.7,-853.02 1491.04,-640.01 1491.65,-543.48"/>
<polygon fill="#3e3e3e" stroke="#3e3e3e" stroke-width="2.5" points="1495.15,-543.43 1491.71,-533.41 1488.15,-543.38 1495.15,-543.43"/>
</g>
</g>
</svg>
