<?xml version="1.0" encoding="UTF-8" standalone="no"?>
<!DOCTYPE svg PUBLIC "-//W3C//DTD SVG 1.1//EN"
 "http://www.w3.org/Graphics/SVG/1.1/DTD/svg11.dtd">
<!-- Generated by graphviz version 2.43.0 (0)
 -->
<!-- Pages: 1 -->
<svg width="970pt" height="1162pt"
 viewBox="0.00 0.00 969.67 1162.00" xmlns="http://www.w3.org/2000/svg" xmlns:xlink="http://www.w3.org/1999/xlink">
<g id="graph0" class="graph" transform="scale(1 1) rotate(0) translate(4 1158)">
<polygon fill="white" stroke="transparent" points="-4,4 -4,-1158 965.67,-1158 965.67,4 -4,4"/>
<!-- MAPK14 -->
<g id="node1" class="node">
<title>MAPK14</title>
<ellipse fill="#bdbdbd" stroke="#848484" stroke-width="3" cx="458.42" cy="-858.5" rx="45.5" ry="45.5"/>
<text text-anchor="middle" x="458.42" y="-854.8" font-family="Times,serif" font-size="14.00">MAPK14</text>
</g>
<!-- MAPK3 -->
<g id="node2" class="node">
<title>MAPK3</title>
<ellipse fill="#bdbdbd" stroke="#848484" stroke-width="3" cx="407.03" cy="-736.5" rx="41" ry="41"/>
<text text-anchor="middle" x="407.03" y="-732.8" font-family="Times,serif" font-size="14.00">MAPK3</text>
</g>
<!-- MAPK14&#45;&gt;MAPK3 -->
<g id="edge1" class="edge">
<title>MAPK14&#45;&gt;MAPK3</title>
<path fill="none" stroke="#eb5e60" stroke-width="2.5" d="M440.73,-816.51C436.29,-805.96 431.49,-794.56 426.94,-783.77"/>
<polygon fill="#eb5e60" stroke="#eb5e60" stroke-width="2.5" points="430.13,-782.33 423.02,-774.47 423.68,-785.05 430.13,-782.33"/>
</g>
<!-- PTPN7 -->
<g id="node3" class="node">
<title>PTPN7</title>
<ellipse fill="#bdbdbd" stroke="#848484" stroke-width="3" cx="560.17" cy="-736.5" rx="36.5" ry="36.5"/>
<text text-anchor="middle" x="560.17" y="-732.8" font-family="Times,serif" font-size="14.00">PTPN7</text>
</g>
<!-- MAPK14&#45;&gt;PTPN7 -->
<g id="edge2" class="edge">
<title>MAPK14&#45;&gt;PTPN7</title>
<path fill="none" stroke="#eb5e60" stroke-width="2.5" d="M487.58,-823.54C500.78,-807.71 516.38,-789 529.74,-772.99"/>
<polygon fill="#eb5e60" stroke="#eb5e60" stroke-width="2.5" points="532.77,-774.82 536.49,-764.9 527.4,-770.33 532.77,-774.82"/>
</g>
<!-- MYC -->
<g id="node4" class="node">
<title>MYC</title>
<ellipse fill="#b2df8a" stroke="#70bc6b" stroke-width="3" cx="213.59" cy="-618.5" rx="31" ry="31"/>
<text text-anchor="middle" x="213.59" y="-614.8" font-family="Times,serif" font-size="14.00">MYC</text>
</g>
<!-- MAPK3&#45;&gt;MYC -->
<g id="edge3" class="edge">
<title>MAPK3&#45;&gt;MYC</title>
<path fill="none" stroke="#70bc6b" stroke-width="2.5" d="M372,-715.13C337.22,-693.91 284.17,-661.56 249.19,-640.22"/>
<polygon fill="#70bc6b" stroke="#70bc6b" stroke-width="2.5" points="250.63,-637 240.27,-634.78 246.99,-642.97 250.63,-637"/>
</g>
<!-- FOXO3 -->
<g id="node5" class="node">
<title>FOXO3</title>
<ellipse fill="#b2df8a" stroke="#70bc6b" stroke-width="3" cx="310.31" cy="-618.5" rx="39" ry="39"/>
<text text-anchor="middle" x="310.31" y="-614.8" font-family="Times,serif" font-size="14.00">FOXO3</text>
</g>
<!-- MAPK3&#45;&gt;FOXO3 -->
<g id="edge4" class="edge">
<title>MAPK3&#45;&gt;FOXO3</title>
<path fill="none" stroke="#eb5e60" stroke-width="2.5" d="M380.86,-704.57C368.76,-689.8 354.29,-672.15 341.62,-656.69"/>
<polygon fill="#eb5e60" stroke="#eb5e60" stroke-width="2.5" points="344.22,-654.35 335.17,-648.83 338.81,-658.78 344.22,-654.35"/>
</g>
<!-- E2F1 -->
<g id="node6" class="node">
<title>E2F1</title>
<ellipse fill="#b2df8a" stroke="#70bc6b" stroke-width="3" cx="407.03" cy="-618.5" rx="30" ry="30"/>
<text text-anchor="middle" x="407.03" y="-614.8" font-family="Times,serif" font-size="14.00">E2F1</text>
</g>
<!-- MAPK3&#45;&gt;E2F1 -->
<g id="edge5" class="edge">
<title>MAPK3&#45;&gt;E2F1</title>
<path fill="none" stroke="#70bc6b" stroke-width="2.5" d="M407.03,-695.23C407.03,-683.53 407.03,-670.8 407.03,-659.13"/>
<polygon fill="#70bc6b" stroke="#70bc6b" stroke-width="2.5" points="410.53,-658.78 407.03,-648.78 403.53,-658.78 410.53,-658.78"/>
</g>
<!-- CEBPA -->
<g id="node7" class="node">
<title>CEBPA</title>
<ellipse fill="#b2df8a" stroke="#70bc6b" stroke-width="3" cx="501.74" cy="-618.5" rx="38.5" ry="38.5"/>
<text text-anchor="middle" x="501.74" y="-614.8" font-family="Times,serif" font-size="14.00">CEBPA</text>
</g>
<!-- MAPK3&#45;&gt;CEBPA -->
<g id="edge6" class="edge">
<title>MAPK3&#45;&gt;CEBPA</title>
<path fill="none" stroke="#eb5e60" stroke-width="2.5" d="M432.91,-704.26C444.76,-689.5 458.88,-671.9 471.24,-656.5"/>
<polygon fill="#eb5e60" stroke="#eb5e60" stroke-width="2.5" points="473.99,-658.67 477.52,-648.68 468.53,-654.29 473.99,-658.67"/>
</g>
<!-- MAPK1 -->
<g id="node8" class="node">
<title>MAPK1</title>
<ellipse fill="#bdbdbd" stroke="#848484" stroke-width="3" cx="608.53" cy="-618.5" rx="41" ry="41"/>
<text text-anchor="middle" x="608.53" y="-614.8" font-family="Times,serif" font-size="14.00">MAPK1</text>
</g>
<!-- PTPN7&#45;&gt;MAPK1 -->
<g id="edge7" class="edge">
<title>PTPN7&#45;&gt;MAPK1</title>
<path fill="none" stroke="#eb5e60" stroke-width="2.5" d="M574.03,-702.69C578.75,-691.18 584.11,-678.1 589.17,-665.74"/>
<polygon fill="#eb5e60" stroke="#eb5e60" stroke-width="2.5" points="592.42,-667.05 592.97,-656.47 585.94,-664.39 592.42,-667.05"/>
</g>
<!-- GSK3B -->
<g id="node9" class="node">
<title>GSK3B</title>
<ellipse fill="#bdbdbd" stroke="#848484" stroke-width="3" cx="287.14" cy="-502.5" rx="38.5" ry="38.5"/>
<text text-anchor="middle" x="287.14" y="-498.8" font-family="Times,serif" font-size="14.00">GSK3B</text>
</g>
<!-- MAPK1&#45;&gt;GSK3B -->
<g id="edge8" class="edge">
<title>MAPK1&#45;&gt;GSK3B</title>
<path fill="none" stroke="#eb5e60" stroke-width="2.5" d="M569.77,-604.51C510.34,-583.06 396.94,-542.13 333.33,-519.17"/>
<polygon fill="#eb5e60" stroke="#eb5e60" stroke-width="2.5" points="334.16,-515.75 323.57,-515.65 331.79,-522.34 334.16,-515.75"/>
</g>
<!-- PPARA -->
<g id="node10" class="node">
<title>PPARA</title>
<ellipse fill="#b2df8a" stroke="#70bc6b" stroke-width="3" cx="508.79" cy="-502.5" rx="38.5" ry="38.5"/>
<text text-anchor="middle" x="508.79" y="-498.8" font-family="Times,serif" font-size="14.00">PPARA</text>
</g>
<!-- MAPK1&#45;&gt;PPARA -->
<g id="edge9" class="edge">
<title>MAPK1&#45;&gt;PPARA</title>
<path fill="none" stroke="#70bc6b" stroke-width="2.5" d="M581.54,-587.11C568.96,-572.48 553.91,-554.97 540.77,-539.69"/>
<polygon fill="#70bc6b" stroke="#70bc6b" stroke-width="2.5" points="543.26,-537.22 534.09,-531.92 537.96,-541.79 543.26,-537.22"/>
</g>
<!-- CDK1 -->
<g id="node11" class="node">
<title>CDK1</title>
<ellipse fill="#bdbdbd" stroke="#848484" stroke-width="3" cx="608.53" cy="-502.5" rx="34" ry="34"/>
<text text-anchor="middle" x="608.53" y="-498.8" font-family="Times,serif" font-size="14.00">CDK1</text>
</g>
<!-- MAPK1&#45;&gt;CDK1 -->
<g id="edge10" class="edge">
<title>MAPK1&#45;&gt;CDK1</title>
<path fill="none" stroke="#eb5e60" stroke-width="2.5" d="M608.53,-577.28C608.53,-567.42 608.53,-556.85 608.53,-546.85"/>
<polygon fill="#eb5e60" stroke="#eb5e60" stroke-width="2.5" points="612.03,-546.7 608.53,-536.7 605.03,-546.7 612.03,-546.7"/>
</g>
<!-- CDK2 -->
<g id="node12" class="node">
<title>CDK2</title>
<ellipse fill="#bdbdbd" stroke="#848484" stroke-width="3" cx="706.26" cy="-502.5" rx="34" ry="34"/>
<text text-anchor="middle" x="706.26" y="-498.8" font-family="Times,serif" font-size="14.00">CDK2</text>
</g>
<!-- MAPK1&#45;&gt;CDK2 -->
<g id="edge11" class="edge">
<title>MAPK1&#45;&gt;CDK2</title>
<path fill="none" stroke="#70bc6b" stroke-width="2.5" d="M634.98,-587.11C648.07,-571.57 663.91,-552.77 677.33,-536.85"/>
<polygon fill="#70bc6b" stroke="#70bc6b" stroke-width="2.5" points="680.33,-538.72 684.09,-528.81 674.97,-534.21 680.33,-538.72"/>
</g>
<!-- GATA2 -->
<g id="node13" class="node">
<title>GATA2</title>
<ellipse fill="#b2df8a" stroke="#70bc6b" stroke-width="3" cx="806.01" cy="-502.5" rx="38.5" ry="38.5"/>
<text text-anchor="middle" x="806.01" y="-498.8" font-family="Times,serif" font-size="14.00">GATA2</text>
</g>
<!-- MAPK1&#45;&gt;GATA2 -->
<g id="edge12" class="edge">
<title>MAPK1&#45;&gt;GATA2</title>
<path fill="none" stroke="#70bc6b" stroke-width="2.5" d="M644.29,-597.49C677.9,-577.75 728.22,-548.2 763.78,-527.3"/>
<polygon fill="#70bc6b" stroke="#70bc6b" stroke-width="2.5" points="765.64,-530.27 772.49,-522.19 762.09,-524.24 765.64,-530.27"/>
</g>
<!-- CDC25A -->
<g id="node14" class="node">
<title>CDC25A</title>
<ellipse fill="#bdbdbd" stroke="#848484" stroke-width="3" cx="44.33" cy="-380.5" rx="44" ry="44"/>
<text text-anchor="middle" x="44.33" y="-376.8" font-family="Times,serif" font-size="14.00">CDC25A</text>
</g>
<!-- GSK3B&#45;&gt;CDC25A -->
<g id="edge13" class="edge">
<title>GSK3B&#45;&gt;CDC25A</title>
<path fill="none" stroke="#eb5e60" stroke-width="2.5" d="M252.61,-485.15C210.87,-464.18 140.38,-428.76 93.11,-405.01"/>
<polygon fill="#eb5e60" stroke="#eb5e60" stroke-width="2.5" points="94.49,-401.79 83.98,-400.42 91.35,-408.04 94.49,-401.79"/>
</g>
<!-- CAMKK2 -->
<g id="node15" class="node">
<title>CAMKK2</title>
<ellipse fill="#bdbdbd" stroke="#848484" stroke-width="3" cx="166.24" cy="-380.5" rx="48" ry="48"/>
<text text-anchor="middle" x="166.24" y="-376.8" font-family="Times,serif" font-size="14.00">CAMKK2</text>
</g>
<!-- GSK3B&#45;&gt;CAMKK2 -->
<g id="edge14" class="edge">
<title>GSK3B&#45;&gt;CAMKK2</title>
<path fill="none" stroke="#eb5e60" stroke-width="2.5" d="M260.01,-475.12C244.53,-459.51 224.82,-439.62 207.47,-422.11"/>
<polygon fill="#eb5e60" stroke="#eb5e60" stroke-width="2.5" points="209.73,-419.41 200.2,-414.77 204.75,-424.34 209.73,-419.41"/>
</g>
<!-- MYOCD -->
<g id="node16" class="node">
<title>MYOCD</title>
<ellipse fill="#b2df8a" stroke="#70bc6b" stroke-width="3" cx="287.14" cy="-380.5" rx="44" ry="44"/>
<text text-anchor="middle" x="287.14" y="-376.8" font-family="Times,serif" font-size="14.00">MYOCD</text>
</g>
<!-- GSK3B&#45;&gt;MYOCD -->
<g id="edge15" class="edge">
<title>GSK3B&#45;&gt;MYOCD</title>
<path fill="none" stroke="#eb5e60" stroke-width="2.5" d="M287.14,-463.9C287.14,-454.68 287.14,-444.66 287.14,-434.87"/>
<polygon fill="#eb5e60" stroke="#eb5e60" stroke-width="2.5" points="290.64,-434.8 287.14,-424.8 283.64,-434.8 290.64,-434.8"/>
</g>
<!-- NR3C1 -->
<g id="node17" class="node">
<title>NR3C1</title>
<ellipse fill="#b2df8a" stroke="#70bc6b" stroke-width="3" cx="397.96" cy="-380.5" rx="37.5" ry="37.5"/>
<text text-anchor="middle" x="397.96" y="-376.8" font-family="Times,serif" font-size="14.00">NR3C1</text>
</g>
<!-- GSK3B&#45;&gt;NR3C1 -->
<g id="edge16" class="edge">
<title>GSK3B&#45;&gt;NR3C1</title>
<path fill="none" stroke="#eb5e60" stroke-width="2.5" d="M313.12,-473.9C328.8,-456.64 348.9,-434.51 365.6,-416.13"/>
<polygon fill="#eb5e60" stroke="#eb5e60" stroke-width="2.5" points="368.39,-418.26 372.53,-408.5 363.21,-413.55 368.39,-418.26"/>
</g>
<!-- CHEK1 -->
<g id="node18" class="node">
<title>CHEK1</title>
<ellipse fill="#bdbdbd" stroke="#848484" stroke-width="3" cx="502.75" cy="-380.5" rx="39" ry="39"/>
<text text-anchor="middle" x="502.75" y="-376.8" font-family="Times,serif" font-size="14.00">CHEK1</text>
</g>
<!-- CDK1&#45;&gt;CHEK1 -->
<g id="edge17" class="edge">
<title>CDK1&#45;&gt;CHEK1</title>
<path fill="none" stroke="#70bc6b" stroke-width="2.5" d="M586.1,-476.63C571.28,-459.54 551.62,-436.87 535.12,-417.83"/>
<polygon fill="#70bc6b" stroke="#70bc6b" stroke-width="2.5" points="537.69,-415.46 528.5,-410.2 532.4,-420.05 537.69,-415.46"/>
</g>
<!-- FOXO1 -->
<g id="node19" class="node">
<title>FOXO1</title>
<ellipse fill="#b2df8a" stroke="#70bc6b" stroke-width="3" cx="608.53" cy="-380.5" rx="39" ry="39"/>
<text text-anchor="middle" x="608.53" y="-376.8" font-family="Times,serif" font-size="14.00">FOXO1</text>
</g>
<!-- CDK1&#45;&gt;FOXO1 -->
<g id="edge18" class="edge">
<title>CDK1&#45;&gt;FOXO1</title>
<path fill="none" stroke="#eb5e60" stroke-width="2.5" d="M608.53,-468.19C608.53,-456.29 608.53,-442.7 608.53,-429.83"/>
<polygon fill="#eb5e60" stroke="#eb5e60" stroke-width="2.5" points="612.03,-429.71 608.53,-419.71 605.03,-429.71 612.03,-429.71"/>
</g>
<!-- RBL2 -->
<g id="node20" class="node">
<title>RBL2</title>
<ellipse fill="#bdbdbd" stroke="#848484" stroke-width="3" cx="706.26" cy="-380.5" rx="32.5" ry="32.5"/>
<text text-anchor="middle" x="706.26" y="-376.8" font-family="Times,serif" font-size="14.00">RBL2</text>
</g>
<!-- CDK2&#45;&gt;RBL2 -->
<g id="edge19" class="edge">
<title>CDK2&#45;&gt;RBL2</title>
<path fill="none" stroke="#eb5e60" stroke-width="2.5" d="M706.26,-468.19C706.26,-454.35 706.26,-438.23 706.26,-423.62"/>
<polygon fill="#eb5e60" stroke="#eb5e60" stroke-width="2.5" points="709.76,-423.29 706.26,-413.29 702.76,-423.29 709.76,-423.29"/>
</g>
<!-- PPP1CA -->
<g id="node21" class="node">
<title>PPP1CA</title>
<ellipse fill="#bdbdbd" stroke="#848484" stroke-width="3" cx="809.03" cy="-380.5" rx="42" ry="42"/>
<text text-anchor="middle" x="809.03" y="-376.8" font-family="Times,serif" font-size="14.00">PPP1CA</text>
</g>
<!-- CDK2&#45;&gt;PPP1CA -->
<g id="edge20" class="edge">
<title>CDK2&#45;&gt;PPP1CA</title>
<path fill="none" stroke="#eb5e60" stroke-width="2.5" d="M728.31,-476.33C742.04,-460.03 759.96,-438.75 775.44,-420.38"/>
<polygon fill="#eb5e60" stroke="#eb5e60" stroke-width="2.5" points="778.13,-422.61 781.9,-412.71 772.78,-418.1 778.13,-422.61"/>
</g>
<!-- RUNX1 -->
<g id="node22" class="node">
<title>RUNX1</title>
<ellipse fill="#b2df8a" stroke="#70bc6b" stroke-width="3" cx="920.86" cy="-380.5" rx="40.5" ry="40.5"/>
<text text-anchor="middle" x="920.86" y="-376.8" font-family="Times,serif" font-size="14.00">RUNX1</text>
</g>
<!-- CDK2&#45;&gt;RUNX1 -->
<g id="edge21" class="edge">
<title>CDK2&#45;&gt;RUNX1</title>
<path fill="none" stroke="#70bc6b" stroke-width="2.5" d="M736.1,-485.54C772.58,-464.8 834.64,-429.52 876.67,-405.63"/>
<polygon fill="#70bc6b" stroke="#70bc6b" stroke-width="2.5" points="878.61,-408.55 885.58,-400.56 875.15,-402.46 878.61,-408.55"/>
</g>
<!-- PRKAA1 -->
<g id="node23" class="node">
<title>PRKAA1</title>
<ellipse fill="#bdbdbd" stroke="#848484" stroke-width="3" cx="166.24" cy="-251.5" rx="45" ry="45"/>
<text text-anchor="middle" x="166.24" y="-247.8" font-family="Times,serif" font-size="14.00">PRKAA1</text>
</g>
<!-- CAMKK2&#45;&gt;PRKAA1 -->
<g id="edge22" class="edge">
<title>CAMKK2&#45;&gt;PRKAA1</title>
<path fill="none" stroke="#70bc6b" stroke-width="2.5" d="M166.24,-332.47C166.24,-324.11 166.24,-315.37 166.24,-306.84"/>
<polygon fill="#70bc6b" stroke="#70bc6b" stroke-width="2.5" points="169.74,-306.58 166.24,-296.58 162.74,-306.58 169.74,-306.58"/>
</g>
<!-- E2F3 -->
<g id="node24" class="node">
<title>E2F3</title>
<ellipse fill="#b2df8a" stroke="#70bc6b" stroke-width="3" cx="502.75" cy="-251.5" rx="30" ry="30"/>
<text text-anchor="middle" x="502.75" y="-247.8" font-family="Times,serif" font-size="14.00">E2F3</text>
</g>
<!-- CHEK1&#45;&gt;E2F3 -->
<g id="edge23" class="edge">
<title>CHEK1&#45;&gt;E2F3</title>
<path fill="none" stroke="#70bc6b" stroke-width="2.5" d="M502.75,-341.45C502.75,-325.75 502.75,-307.66 502.75,-291.84"/>
<polygon fill="#70bc6b" stroke="#70bc6b" stroke-width="2.5" points="506.25,-291.82 502.75,-281.82 499.25,-291.82 506.25,-291.82"/>
</g>
<!-- E2F4 -->
<g id="node25" class="node">
<title>E2F4</title>
<ellipse fill="#b2df8a" stroke="#70bc6b" stroke-width="3" cx="706.26" cy="-251.5" rx="30" ry="30"/>
<text text-anchor="middle" x="706.26" y="-247.8" font-family="Times,serif" font-size="14.00">E2F4</text>
</g>
<!-- RBL2&#45;&gt;E2F4 -->
<g id="edge24" class="edge">
<title>RBL2&#45;&gt;E2F4</title>
<path fill="none" stroke="#70bc6b" stroke-width="2.5" d="M706.26,-347.95C706.26,-330.98 706.26,-310.06 706.26,-292.04"/>
<polygon fill="#70bc6b" stroke="#70bc6b" stroke-width="2.5" points="709.76,-291.83 706.26,-281.83 702.76,-291.83 709.76,-291.83"/>
</g>
<!-- KPNA2 -->
<g id="node26" class="node">
<title>KPNA2</title>
<ellipse fill="#bdbdbd" stroke="#848484" stroke-width="3" cx="166.24" cy="-131.5" rx="39" ry="39"/>
<text text-anchor="middle" x="166.24" y="-127.8" font-family="Times,serif" font-size="14.00">KPNA2</text>
</g>
<!-- PRKAA1&#45;&gt;KPNA2 -->
<g id="edge25" class="edge">
<title>PRKAA1&#45;&gt;KPNA2</title>
<path fill="none" stroke="#70bc6b" stroke-width="2.5" d="M166.24,-206.48C166.24,-198.15 166.24,-189.42 166.24,-180.98"/>
<polygon fill="#70bc6b" stroke="#70bc6b" stroke-width="2.5" points="169.74,-180.87 166.24,-170.87 162.74,-180.87 169.74,-180.87"/>
</g>
<!-- IRF1 -->
<g id="node29" class="node">
<title>IRF1</title>
<ellipse fill="#b2df8a" stroke="#70bc6b" stroke-width="3" cx="166.24" cy="-28.5" rx="28.5" ry="28.5"/>
<text text-anchor="middle" x="166.24" y="-24.8" font-family="Times,serif" font-size="14.00">IRF1</text>
</g>
<!-- KPNA2&#45;&gt;IRF1 -->
<g id="edge27" class="edge">
<title>KPNA2&#45;&gt;IRF1</title>
<path fill="none" stroke="#70bc6b" stroke-width="2.5" d="M166.24,-92.27C166.24,-84.03 166.24,-75.35 166.24,-67.14"/>
<polygon fill="#70bc6b" stroke="#70bc6b" stroke-width="2.5" points="169.74,-67.06 166.24,-57.06 162.74,-67.06 169.74,-67.06"/>
</g>
<!-- PTPRM -->
<g id="node27" class="node">
<title>PTPRM</title>
<ellipse fill="#a6cee3" stroke="#62a0ca" stroke-width="3" cx="571.26" cy="-1110.5" rx="40.5" ry="40.5"/>
<text text-anchor="middle" x="571.26" y="-1106.8" font-family="Times,serif" font-size="14.00">PTPRM</text>
</g>
<!-- CTNND1 -->
<g id="node28" class="node">
<title>CTNND1</title>
<ellipse fill="#bdbdbd" stroke="#848484" stroke-width="3" cx="571.26" cy="-985.5" rx="45.5" ry="45.5"/>
<text text-anchor="middle" x="571.26" y="-981.8" font-family="Times,serif" font-size="14.00">CTNND1</text>
</g>
<!-- PTPRM&#45;&gt;CTNND1 -->
<g id="edge26" class="edge">
<title>PTPRM&#45;&gt;CTNND1</title>
<path fill="none" stroke="#70bc6b" stroke-width="2.5" d="M571.26,-1069.92C571.26,-1060.81 571.26,-1050.99 571.26,-1041.38"/>
<polygon fill="#70bc6b" stroke="#70bc6b" stroke-width="2.5" points="574.76,-1041.08 571.26,-1031.08 567.76,-1041.08 574.76,-1041.08"/>
</g>
<!-- TGFBR2 -->
<g id="node30" class="node">
<title>TGFBR2</title>
<ellipse fill="#a6cee3" stroke="#62a0ca" stroke-width="3" cx="458.42" cy="-1110.5" rx="43.5" ry="43.5"/>
<text text-anchor="middle" x="458.42" y="-1106.8" font-family="Times,serif" font-size="14.00">TGFBR2</text>
</g>
<!-- TRAF6 -->
<g id="node31" class="node">
<title>TRAF6</title>
<ellipse fill="#bdbdbd" stroke="#848484" stroke-width="3" cx="458.42" cy="-985.5" rx="37.5" ry="37.5"/>
<text text-anchor="middle" x="458.42" y="-981.8" font-family="Times,serif" font-size="14.00">TRAF6</text>
</g>
<!-- TGFBR2&#45;&gt;TRAF6 -->
<g id="edge28" class="edge">
<title>TGFBR2&#45;&gt;TRAF6</title>
<path fill="none" stroke="#70bc6b" stroke-width="2.5" d="M458.42,-1066.78C458.42,-1056 458.42,-1044.41 458.42,-1033.44"/>
<polygon fill="#70bc6b" stroke="#70bc6b" stroke-width="2.5" points="461.92,-1033.17 458.42,-1023.17 454.92,-1033.17 461.92,-1033.17"/>
</g>
<!-- TRAF6&#45;&gt;MAPK14 -->
<g id="edge29" class="edge">
<title>TRAF6&#45;&gt;MAPK14</title>
<path fill="none" stroke="#70bc6b" stroke-width="2.5" d="M458.42,-947.74C458.42,-937.33 458.42,-925.8 458.42,-914.59"/>
<polygon fill="#70bc6b" stroke="#70bc6b" stroke-width="2.5" points="461.92,-914.42 458.42,-904.42 454.92,-914.42 461.92,-914.42"/>
</g>
</g>
</svg>
